<?xml version="1.0" encoding="utf-8"?>
<!-- Generator: Adobe Illustrator 16.0.4, SVG Export Plug-In . SVG Version: 6.00 Build 0)  -->
<!DOCTYPE svg PUBLIC "-//W3C//DTD SVG 1.1//EN" "http://www.w3.org/Graphics/SVG/1.1/DTD/svg11.dtd">
<svg version="1.1" id="Layer_1" xmlns="http://www.w3.org/2000/svg" xmlns:xlink="http://www.w3.org/1999/xlink" x="0px" y="0px"
	 width="293px" height="22px" viewBox="0 0 293 22" enable-background="new 0 0 293 22" xml:space="preserve">
<g>
	<g>
		<path fill="#FFFFFF" d="M148.605,21.193c0.768-0.215,1.487-0.654,2.094-1.285c0.113-0.117,0.221-0.24,0.323-0.367
			c0.331-0.406,0.552-0.912,0.656-1.498l0.016-0.086l-0.084-0.018c-0.051-0.012-0.101-0.023-0.15-0.037
			c-1.517-0.355-2.772-1.24-3.537-2.492c-0.184-0.309-0.211-0.719-0.071-1.098c0.134-0.361,0.391-0.631,0.707-0.736
			c0.229-0.088,0.468-0.131,0.711-0.131c0.412,0,0.836,0.127,1.196,0.363c1.09,0.857,1.619,2.217,1.447,3.723l-0.012,0.092
			l0.094,0.008c0.08,0.008,0.16,0.01,0.241,0.01c1.245,0,2.385-0.756,2.904-1.924c0.296-0.609,0.443-1.324,0.425-2.064l-0.002-0.1
			l-0.101,0.014c-0.455,0.068-0.913,0.102-1.362,0.102c-2.186,0-4.109-0.795-5.413-2.24c-0.658-0.807-0.797-1.98-0.334-2.849
			c0.354-0.706,1.151-1.161,2.032-1.161c0.187,0,0.369,0.021,0.542,0.063c1.572,0.41,2.891,1.542,4.029,3.46
			c0.298,0.53,0.529,1.071,0.688,1.61l0.024,0.084l0.085-0.021c0.142-0.039,0.281-0.08,0.421-0.123
			c1.132-0.361,2.161-0.898,3.062-1.6c0.613-0.479,1.16-0.971,1.623-1.462l0.064-0.067l-0.069-0.062
			c-1.334-1.189-2.622-2.533-3.006-4.291c-0.187-1.256-0.039-2.263,0.452-3.068c0.51-0.836,1.454-1.134,2.169-1.134
			c0.267,0,0.52,0.039,0.751,0.116c0.493,0.165,1.036,0.612,1.351,0.946c1.143,1.208,1.549,3.566,0.906,5.256
			c-0.366,0.965-0.922,1.889-1.65,2.744l-0.06,0.069l0.07,0.058c0.273,0.226,0.562,0.445,0.851,0.667
			c0.311,0.237,0.633,0.483,0.938,0.737l0.024,0.021l0.127-0.001c0.255,0,0.509,0.011,0.759,0.033
			c0.709,0.062,1.547,0.17,2.383,0.497c1.353,0.528,2.491,1.452,3.593,2.342c1.102,0.893,2.241,1.814,3.601,2.35
			c0.387,0.152,0.836,0.225,1.146,0.256c0.146,0.016,0.298,0.023,0.45,0.023c1.116,0,2.59-0.445,3.069-1.699
			c0.372-0.973-0.022-2.271-0.878-2.896c-0.261-0.191-0.571-0.305-0.83-0.305c-0.297,0-0.519,0.143-0.641,0.412
			c-0.272,0.6,0.212,0.922,0.602,1.182c0.457,0.305,0.723,0.514,0.446,0.941c-0.213,0.334-0.55,0.402-0.793,0.402
			c-0.435,0-0.913-0.223-1.165-0.545c-0.481-0.611-0.5-1.633-0.043-2.232c0.307-0.403,0.746-0.606,1.304-0.606
			c0.231,0,0.483,0.035,0.747,0.105c1.305,0.348,1.962,1.776,2.033,3.036c0.058,1.01-0.384,1.963-1.149,2.494
			c-0.339,0.232-0.76,0.387-1.219,0.443c-0.18,0.02-0.364,0.031-0.549,0.031c-1.176,0-2.416-0.42-3.905-1.324
			c-0.81-0.492-1.572-1.141-2.383-1.828c-1.735-1.475-3.532-3-5.93-3.042c-0.102-0.008-0.208-0.012-0.315-0.012
			c-0.05,0-0.1,0-0.149,0.002l-0.225,0.008l0.168,0.149c0.896,0.794,1.416,1.537,1.687,2.406c0.299,0.873,0.144,1.826-0.424,2.623
			c-0.62,0.867-1.619,1.406-2.608,1.406c-0.105,0-0.21-0.006-0.315-0.02c-1.037-0.055-1.999-0.705-2.578-1.734
			c-0.541-0.961-0.613-2.049-0.19-2.84c0.65-1.484,2.314-1.923,3.596-2.031l0.197-0.017l-0.143-0.137
			c-0.44-0.424-0.917-0.832-1.367-1.213l-0.067-0.056l-0.058,0.065c-0.542,0.602-1.179,1.178-1.895,1.714
			c-1.074,0.819-2.392,1.401-3.811,1.68l-0.081,0.016l0.009,0.082c0.094,0.848-0.027,1.621-0.357,2.303
			c-0.543,1.25-1.877,2.121-3.244,2.121c-0.111,0-0.223-0.006-0.332-0.018l-0.08-0.01l-0.018,0.078
			c-0.137,0.607-0.381,1.158-0.688,1.549c-0.68,0.758-1.489,1.291-2.338,1.535C148.733,21.162,148.669,21.178,148.605,21.193
			L148.605,21.193z M163.324,11.547c-1.433,0.247-2.578,1.089-3.063,2.255c-0.448,0.861-0.406,2.053,0.106,2.959
			c0.425,0.748,1.106,1.188,1.922,1.236c0.06,0.006,0.122,0.008,0.185,0.008c0.8,0,1.605-0.455,2.153-1.221
			c0.577-0.805,0.753-1.781,0.472-2.613c-0.273-0.873-0.812-1.701-1.694-2.598l-0.033-0.034L163.324,11.547z M149.542,14.088
			c-0.385,0-0.695,0.158-0.878,0.447c-0.215,0.342-0.215,0.812-0.001,1.26c0.432,0.898,1.784,1.541,2.86,1.758
			c0.034,0.01,0.072,0.02,0.11,0.027l0.103,0.02l0.005-0.104c0.021-0.361,0.002-0.742-0.054-1.133
			c-0.188-1.316-0.852-2.096-1.913-2.258C149.693,14.094,149.616,14.088,149.542,14.088L149.542,14.088z M150.764,7.946
			c-0.454,0-0.855,0.17-1.159,0.491c-0.354,0.375-0.53,0.908-0.497,1.502c0.059,1.041,0.657,1.977,1.526,2.385
			c0.852,0.4,1.805,0.602,2.836,0.602c0.615,0,1.252-0.072,1.893-0.217l0.089-0.02l-0.021-0.088
			c-0.12-0.518-0.314-1.013-0.579-1.473c-0.916-1.567-2.234-2.726-3.524-3.1C151.135,7.974,150.946,7.946,150.764,7.946
			L150.764,7.946z M160.629,0.917c-0.099,0-0.201,0.008-0.304,0.025c-0.803,0.128-1.235,0.94-1.522,1.633
			c-0.285,0.69-0.364,1.58-0.204,2.322c0.317,1.48,1.179,3.041,2.359,4.282l0.067,0.07l0.064-0.073
			c1.331-1.496,2.007-3.091,2.009-4.742c0.001-0.868-0.346-2.15-1.11-2.916C161.589,1.12,161.132,0.917,160.629,0.917L160.629,0.917
			z"/>
	</g>
	<g>
		<path fill="#FFFFFF" d="M145.634,21.193c-0.064-0.016-0.128-0.031-0.193-0.051c-0.849-0.244-1.658-0.777-2.342-1.539
			c-0.302-0.387-0.546-0.938-0.682-1.545l-0.018-0.078l-0.08,0.01c-0.11,0.012-0.221,0.018-0.332,0.018
			c-1.368,0-2.701-0.871-3.242-2.117c-0.333-0.686-0.453-1.459-0.36-2.307l0.009-0.082l-0.081-0.016
			c-1.419-0.279-2.736-0.861-3.81-1.68c-0.716-0.536-1.354-1.113-1.895-1.714l-0.059-0.065l-0.066,0.056
			c-0.451,0.381-0.928,0.789-1.368,1.213l-0.143,0.137l0.198,0.017c1.282,0.107,2.946,0.547,3.593,2.025
			c0.426,0.797,0.353,1.885-0.188,2.846c-0.579,1.029-1.541,1.68-2.572,1.734c-0.111,0.014-0.217,0.02-0.322,0.02
			c-0.989,0-1.989-0.539-2.608-1.406c-0.568-0.795-0.723-1.75-0.425-2.619c0.272-0.873,0.792-1.615,1.688-2.41l0.168-0.149
			l-0.225-0.008c-0.05-0.002-0.1-0.002-0.15-0.002c-0.107,0-0.214,0.004-0.32,0.012c-2.393,0.041-4.189,1.567-5.926,3.042
			c-0.809,0.688-1.573,1.336-2.381,1.828c-1.489,0.904-2.73,1.324-3.906,1.324c-0.185,0-0.369-0.012-0.549-0.031
			c-0.459-0.057-0.88-0.211-1.219-0.443c-0.766-0.531-1.206-1.484-1.149-2.494c0.071-1.26,0.728-2.688,2.034-3.036
			c0.263-0.07,0.514-0.105,0.746-0.105c0.559,0,0.998,0.203,1.305,0.606c0.457,0.6,0.438,1.621-0.043,2.232
			c-0.252,0.322-0.731,0.545-1.166,0.545c-0.244,0-0.579-0.068-0.793-0.402c-0.276-0.428-0.01-0.637,0.447-0.941
			c0.389-0.26,0.875-0.582,0.602-1.182c-0.124-0.27-0.345-0.412-0.641-0.412c-0.259,0-0.569,0.113-0.831,0.305
			c-0.855,0.625-1.25,1.924-0.877,2.896c0.479,1.254,1.954,1.699,3.07,1.699c0.152,0,0.303-0.008,0.45-0.023
			c0.309-0.031,0.758-0.104,1.146-0.256c1.358-0.535,2.498-1.457,3.6-2.35c1.102-0.891,2.241-1.814,3.593-2.342
			c0.836-0.327,1.674-0.435,2.384-0.497c0.249-0.021,0.503-0.033,0.759-0.033l0.125,0.001l0.025-0.021
			c0.305-0.254,0.626-0.5,0.937-0.737c0.289-0.222,0.576-0.441,0.851-0.667l0.07-0.058l-0.06-0.069
			c-0.729-0.855-1.285-1.779-1.651-2.744c-0.642-1.689-0.235-4.047,0.907-5.256c0.315-0.333,0.858-0.781,1.352-0.946
			c0.231-0.077,0.484-0.116,0.751-0.116c0.714,0,1.658,0.297,2.168,1.134c0.491,0.806,0.639,1.812,0.451,3.075
			c-0.383,1.751-1.671,3.095-3.005,4.284l-0.068,0.062l0.063,0.067c0.464,0.491,1.01,0.983,1.624,1.462
			c0.899,0.702,1.93,1.239,3.061,1.6c0.139,0.043,0.279,0.084,0.421,0.123l0.084,0.021l0.025-0.084
			c0.158-0.539,0.39-1.08,0.689-1.612c1.137-1.917,2.455-3.048,4.029-3.458c0.171-0.042,0.354-0.062,0.541-0.062
			c0.88,0,1.678,0.455,2.032,1.16c0.464,0.871,0.325,2.043-0.335,2.854c-1.302,1.441-3.226,2.236-5.411,2.236
			c-0.45,0-0.908-0.033-1.362-0.102l-0.1-0.014l-0.002,0.1c-0.019,0.74,0.129,1.455,0.426,2.066
			c0.519,1.166,1.658,1.922,2.903,1.922c0.081,0,0.161-0.002,0.242-0.01l0.092-0.008l-0.011-0.092
			c-0.173-1.506,0.357-2.865,1.454-3.727c0.354-0.232,0.778-0.359,1.189-0.359c0.243,0,0.481,0.043,0.708,0.129
			c0.319,0.107,0.577,0.377,0.71,0.738c0.139,0.379,0.113,0.789-0.072,1.1c-0.764,1.25-2.02,2.135-3.533,2.488
			c-0.053,0.016-0.103,0.027-0.153,0.039l-0.084,0.018l0.015,0.086c0.105,0.586,0.326,1.092,0.656,1.498
			c0.103,0.127,0.211,0.25,0.325,0.367C144.146,20.539,144.867,20.979,145.634,21.193L145.634,21.193z M130.835,11.574
			c-0.882,0.897-1.42,1.725-1.695,2.6c-0.281,0.83-0.104,1.807,0.472,2.611c0.548,0.766,1.354,1.221,2.154,1.221
			c0.062,0,0.125-0.002,0.187-0.008c0.812-0.049,1.495-0.488,1.918-1.236c0.514-0.906,0.556-2.098,0.104-2.967
			c-0.483-1.158-1.628-2-3.062-2.248l-0.046-0.008L130.835,11.574z M144.698,14.088c-0.074,0-0.152,0.006-0.233,0.018
			c-1.062,0.162-1.723,0.941-1.913,2.258c-0.056,0.391-0.074,0.771-0.054,1.133l0.006,0.104l0.102-0.02
			c0.039-0.008,0.077-0.018,0.115-0.027c1.071-0.217,2.424-0.859,2.855-1.758c0.215-0.447,0.214-0.918-0.001-1.26
			C145.393,14.246,145.082,14.088,144.698,14.088L144.698,14.088z M143.475,7.946c-0.183,0-0.371,0.027-0.562,0.083
			c-1.291,0.374-2.608,1.532-3.525,3.099c-0.264,0.46-0.459,0.956-0.58,1.474l-0.02,0.088l0.088,0.02
			c0.641,0.145,1.278,0.217,1.893,0.217c1.03,0,1.984-0.201,2.835-0.602c0.868-0.408,1.468-1.344,1.527-2.385
			c0.034-0.594-0.143-1.127-0.497-1.502C144.332,8.116,143.93,7.946,143.475,7.946L143.475,7.946z M133.609,0.917
			c-0.501,0-0.959,0.203-1.358,0.603c-0.765,0.766-1.112,2.047-1.111,2.916c0.002,1.65,0.678,3.246,2.008,4.742l0.065,0.073
			l0.067-0.07c1.181-1.242,2.041-2.802,2.359-4.282c0.16-0.742,0.082-1.632-0.205-2.322c-0.287-0.693-0.719-1.505-1.523-1.633
			C133.812,0.925,133.709,0.917,133.609,0.917L133.609,0.917z"/>
	</g>
	<g>
		<path fill="#FFFFFF" d="M147.144,20.256c-0.128-0.135-0.523-0.721-0.523-1.436c0-0.857,0.276-1.457,0.523-1.457
			c0.248,0,0.523,0.6,0.523,1.457C147.667,19.539,147.272,20.123,147.144,20.256L147.144,20.256z"/>
	</g>
	<g>
		<path fill="#FFFFFF" d="M147.144,20.256c-0.128-0.135-0.523-0.721-0.523-1.436c0-0.857,0.276-1.457,0.523-1.457
			c0.248,0,0.523,0.6,0.523,1.457C147.667,19.539,147.272,20.123,147.144,20.256L147.144,20.256z"/>
	</g>
	<g>
		<path fill="#FFFFFF" d="M147.758,20.285c-0.009-0.16,0.032-0.639,0.332-1.031c0.319-0.418,0.666-0.637,0.845-0.637
			c0.032,0,0.06,0.008,0.078,0.023c0.062,0.047,0.069,0.186,0.02,0.361c-0.06,0.211-0.189,0.457-0.368,0.689
			C148.365,20.084,147.919,20.252,147.758,20.285L147.758,20.285z"/>
	</g>
	<g>
		<path fill="#FFFFFF" d="M146.481,20.285c-0.16-0.033-0.607-0.201-0.907-0.594c-0.177-0.232-0.308-0.479-0.367-0.689
			c-0.05-0.176-0.042-0.314,0.02-0.361c0.02-0.016,0.045-0.023,0.079-0.023c0.178,0,0.525,0.219,0.843,0.637
			C146.449,19.648,146.49,20.125,146.481,20.285L146.481,20.285z"/>
	</g>
</g>
<rect y="10" fill="#FFFFFF" width="110" height="1"/>
<rect x="183" y="10" fill="#FFFFFF" width="110" height="1"/>
<rect y="10" fill="#FFFFFF" width="1" height="12"/>
<rect x="292" y="10" fill="#FFFFFF" width="1" height="12"/>
</svg>
