<?xml version="1.0" encoding="utf-8"?>
<!-- Generator: Adobe Illustrator 16.0.4, SVG Export Plug-In . SVG Version: 6.00 Build 0)  -->
<!DOCTYPE svg PUBLIC "-//W3C//DTD SVG 1.1//EN" "http://www.w3.org/Graphics/SVG/1.1/DTD/svg11.dtd">
<svg version="1.1" id="Layer_1" xmlns="http://www.w3.org/2000/svg" xmlns:xlink="http://www.w3.org/1999/xlink" x="0px" y="0px"
	 width="293px" height="22px" viewBox="0 0 293 22" enable-background="new 0 0 293 22" xml:space="preserve">
<g>
	<g>
		<path fill="#FFFFFF" d="M144.395,0.613c-0.768,0.215-1.487,0.654-2.094,1.285c-0.113,0.117-0.221,0.24-0.323,0.367
			c-0.331,0.406-0.552,0.912-0.656,1.498l-0.016,0.086l0.084,0.018c0.051,0.012,0.101,0.023,0.15,0.037
			c1.517,0.355,2.772,1.24,3.537,2.492c0.184,0.309,0.211,0.719,0.071,1.098c-0.134,0.361-0.391,0.631-0.707,0.736
			c-0.229,0.088-0.468,0.131-0.711,0.131c-0.412,0-0.836-0.127-1.196-0.363c-1.09-0.857-1.619-2.217-1.447-3.723l0.012-0.092
			l-0.094-0.008c-0.08-0.008-0.16-0.01-0.241-0.01c-1.245,0-2.385,0.756-2.904,1.924c-0.296,0.609-0.443,1.324-0.425,2.064
			l0.002,0.1l0.101-0.014c0.455-0.068,0.913-0.102,1.362-0.102c2.186,0,4.109,0.795,5.413,2.24c0.658,0.807,0.797,1.98,0.334,2.849
			c-0.354,0.706-1.151,1.161-2.032,1.161c-0.187,0-0.369-0.021-0.542-0.063c-1.572-0.41-2.891-1.541-4.029-3.459
			c-0.298-0.53-0.529-1.071-0.688-1.61l-0.024-0.084l-0.085,0.021c-0.142,0.039-0.281,0.08-0.421,0.123
			c-1.132,0.361-2.161,0.898-3.062,1.6c-0.613,0.479-1.16,0.97-1.623,1.461l-0.064,0.067l0.069,0.062
			c1.334,1.189,2.622,2.533,3.006,4.291c0.187,1.256,0.039,2.263-0.452,3.068c-0.51,0.836-1.454,1.134-2.169,1.134
			c-0.267,0-0.52-0.039-0.751-0.116c-0.493-0.165-1.036-0.612-1.351-0.946c-1.143-1.208-1.549-3.566-0.906-5.256
			c0.366-0.965,0.922-1.889,1.65-2.744l0.06-0.069l-0.07-0.058c-0.273-0.227-0.562-0.445-0.851-0.667
			c-0.311-0.237-0.633-0.483-0.938-0.737l-0.024-0.021l-0.127,0.001c-0.255,0-0.509-0.011-0.759-0.033
			c-0.709-0.062-1.547-0.17-2.383-0.497c-1.353-0.528-2.491-1.452-3.593-2.342c-1.102-0.893-2.241-1.814-3.601-2.35
			c-0.387-0.152-0.836-0.225-1.146-0.256c-0.146-0.016-0.298-0.023-0.45-0.023c-1.116,0-2.59,0.445-3.069,1.699
			c-0.372,0.973,0.022,2.271,0.878,2.896c0.261,0.191,0.571,0.305,0.83,0.305c0.297,0,0.519-0.143,0.641-0.412
			c0.272-0.6-0.212-0.922-0.602-1.182c-0.457-0.305-0.723-0.514-0.446-0.941c0.213-0.334,0.55-0.402,0.793-0.402
			c0.435,0,0.913,0.223,1.165,0.545c0.481,0.611,0.5,1.633,0.043,2.232c-0.307,0.403-0.746,0.606-1.304,0.606
			c-0.231,0-0.483-0.035-0.747-0.105c-1.305-0.348-1.962-1.776-2.033-3.036c-0.058-1.01,0.384-1.963,1.149-2.494
			c0.339-0.232,0.76-0.387,1.219-0.443c0.18-0.02,0.364-0.031,0.549-0.031c1.176,0,2.416,0.42,3.905,1.324
			c0.81,0.492,1.572,1.141,2.383,1.828c1.735,1.475,3.532,3,5.93,3.042c0.102,0.008,0.208,0.012,0.315,0.012
			c0.05,0,0.1,0,0.149-0.002l0.225-0.008l-0.168-0.149c-0.896-0.794-1.416-1.537-1.687-2.406c-0.299-0.873-0.144-1.826,0.424-2.623
			c0.62-0.867,1.619-1.406,2.608-1.406c0.105,0,0.21,0.006,0.315,0.02c1.037,0.055,1.999,0.705,2.578,1.734
			c0.541,0.961,0.613,2.049,0.19,2.84c-0.65,1.484-2.314,1.923-3.596,2.031l-0.197,0.017l0.143,0.137
			c0.44,0.424,0.917,0.831,1.367,1.213l0.067,0.056l0.058-0.064c0.542-0.602,1.179-1.178,1.895-1.714
			c1.074-0.819,2.392-1.401,3.811-1.68l0.081-0.016l-0.009-0.082c-0.094-0.848,0.027-1.621,0.357-2.303
			c0.543-1.25,1.877-2.121,3.244-2.121c0.111,0,0.223,0.006,0.332,0.018l0.08,0.01l0.018-0.078c0.137-0.607,0.381-1.158,0.688-1.549
			c0.68-0.758,1.489-1.291,2.338-1.535C144.267,0.645,144.331,0.629,144.395,0.613L144.395,0.613z M129.676,10.259
			c1.433-0.247,2.578-1.089,3.063-2.255c0.448-0.861,0.406-2.053-0.106-2.959c-0.425-0.748-1.106-1.188-1.922-1.236
			c-0.06-0.006-0.122-0.008-0.185-0.008c-0.8,0-1.605,0.455-2.153,1.221c-0.577,0.805-0.753,1.781-0.472,2.613
			c0.273,0.873,0.812,1.701,1.694,2.598l0.033,0.034L129.676,10.259z M143.458,7.719c0.385,0,0.695-0.158,0.878-0.447
			c0.215-0.342,0.215-0.812,0.001-1.26c-0.432-0.898-1.784-1.541-2.86-1.758c-0.034-0.01-0.072-0.02-0.11-0.027l-0.103-0.02
			l-0.005,0.104c-0.021,0.361-0.002,0.742,0.054,1.133c0.188,1.316,0.852,2.096,1.913,2.258
			C143.307,7.713,143.384,7.719,143.458,7.719L143.458,7.719z M142.236,13.86c0.454,0,0.855-0.17,1.159-0.491
			c0.354-0.375,0.53-0.908,0.497-1.502c-0.059-1.041-0.657-1.977-1.526-2.385c-0.852-0.4-1.805-0.602-2.836-0.602
			c-0.615,0-1.252,0.072-1.893,0.217l-0.089,0.02l0.021,0.088c0.12,0.518,0.314,1.013,0.579,1.473
			c0.916,1.567,2.234,2.726,3.524,3.099C141.865,13.833,142.054,13.86,142.236,13.86L142.236,13.86z M132.371,20.89
			c0.099,0,0.201-0.009,0.304-0.025c0.803-0.128,1.235-0.939,1.522-1.633c0.285-0.69,0.364-1.58,0.204-2.322
			c-0.317-1.479-1.179-3.04-2.359-4.282l-0.067-0.07l-0.064,0.073c-1.331,1.495-2.007,3.091-2.009,4.741
			c-0.001,0.868,0.346,2.15,1.11,2.916C131.411,20.687,131.868,20.89,132.371,20.89L132.371,20.89z"/>
	</g>
	<g>
		<path fill="#FFFFFF" d="M147.366,0.613c0.063,0.016,0.128,0.031,0.192,0.051c0.85,0.244,1.658,0.777,2.343,1.539
			c0.302,0.387,0.546,0.938,0.683,1.545l0.018,0.078l0.08-0.01c0.109-0.012,0.221-0.018,0.332-0.018
			c1.367,0,2.701,0.871,3.242,2.117c0.332,0.686,0.453,1.459,0.359,2.307l-0.008,0.082l0.08,0.016
			c1.42,0.279,2.736,0.861,3.811,1.68c0.716,0.536,1.354,1.113,1.895,1.714l0.059,0.064l0.065-0.056
			c0.451-0.382,0.928-0.789,1.368-1.213l0.143-0.137l-0.197-0.017c-1.281-0.107-2.945-0.547-3.593-2.025
			c-0.427-0.797-0.353-1.885,0.188-2.846c0.579-1.029,1.541-1.68,2.571-1.734c0.111-0.014,0.217-0.02,0.322-0.02
			c0.989,0,1.988,0.539,2.607,1.406c0.568,0.795,0.724,1.75,0.426,2.619c-0.271,0.873-0.792,1.615-1.688,2.41l-0.168,0.149
			l0.225,0.008c0.051,0.002,0.1,0.002,0.15,0.002c0.107,0,0.213-0.004,0.319-0.012c2.394-0.041,4.188-1.567,5.926-3.042
			c0.81-0.688,1.573-1.336,2.382-1.828c1.488-0.904,2.73-1.324,3.905-1.324c0.185,0,0.369,0.012,0.55,0.031
			c0.459,0.057,0.879,0.211,1.219,0.443c0.766,0.531,1.205,1.484,1.148,2.494c-0.071,1.26-0.729,2.688-2.034,3.036
			c-0.263,0.07-0.515,0.105-0.745,0.105c-0.559,0-0.998-0.203-1.305-0.606c-0.457-0.6-0.438-1.621,0.043-2.232
			c0.252-0.322,0.73-0.545,1.165-0.545c0.243,0,0.579,0.068,0.793,0.402c0.276,0.428,0.011,0.637-0.446,0.941
			c-0.39,0.26-0.875,0.582-0.602,1.182c0.123,0.27,0.344,0.412,0.641,0.412c0.259,0,0.568-0.113,0.83-0.305
			c0.855-0.625,1.25-1.924,0.878-2.896c-0.479-1.254-1.954-1.699-3.069-1.699c-0.152,0-0.304,0.008-0.45,0.023
			c-0.309,0.031-0.758,0.104-1.146,0.256c-1.359,0.535-2.498,1.457-3.6,2.35c-1.102,0.891-2.241,1.814-3.594,2.342
			c-0.836,0.327-1.674,0.435-2.384,0.497c-0.249,0.021-0.503,0.033-0.759,0.033l-0.125-0.001l-0.025,0.021
			c-0.306,0.254-0.627,0.5-0.938,0.737c-0.289,0.222-0.576,0.44-0.851,0.667l-0.07,0.059l0.06,0.068
			c0.729,0.855,1.285,1.779,1.651,2.744c0.642,1.689,0.235,4.048-0.907,5.256c-0.314,0.334-0.857,0.781-1.352,0.946
			c-0.23,0.077-0.484,0.116-0.75,0.116c-0.715,0-1.658-0.297-2.169-1.134c-0.491-0.806-0.639-1.812-0.451-3.075
			c0.384-1.751,1.671-3.094,3.005-4.283l0.068-0.062l-0.062-0.066c-0.465-0.492-1.011-0.983-1.625-1.462
			c-0.898-0.702-1.93-1.239-3.061-1.6c-0.139-0.043-0.279-0.084-0.421-0.123l-0.085-0.021l-0.024,0.084
			c-0.158,0.539-0.39,1.08-0.689,1.612c-1.137,1.917-2.454,3.047-4.028,3.458c-0.172,0.041-0.354,0.062-0.541,0.062
			c-0.881,0-1.678-0.455-2.031-1.16c-0.464-0.87-0.326-2.043,0.335-2.854c1.302-1.441,3.226-2.236,5.411-2.236
			c0.449,0,0.908,0.033,1.362,0.102l0.101,0.014l0.002-0.1c0.019-0.74-0.129-1.455-0.426-2.066c-0.52-1.166-1.658-1.922-2.903-1.922
			c-0.081,0-0.161,0.002-0.242,0.01l-0.093,0.008l0.012,0.092c0.173,1.506-0.357,2.865-1.454,3.727
			c-0.354,0.232-0.778,0.359-1.189,0.359c-0.243,0-0.481-0.043-0.708-0.129c-0.318-0.107-0.577-0.377-0.71-0.738
			c-0.139-0.379-0.113-0.789,0.072-1.1c0.763-1.25,2.019-2.135,3.533-2.488c0.054-0.016,0.104-0.027,0.154-0.039l0.084-0.018
			l-0.016-0.086c-0.104-0.586-0.325-1.092-0.655-1.498c-0.103-0.127-0.212-0.25-0.325-0.367
			C148.854,1.268,148.133,0.828,147.366,0.613L147.366,0.613z M162.165,10.233c0.882-0.897,1.421-1.725,1.694-2.6
			c0.281-0.83,0.105-1.807-0.472-2.611c-0.548-0.766-1.354-1.221-2.153-1.221c-0.062,0-0.125,0.002-0.188,0.008
			c-0.812,0.049-1.494,0.488-1.918,1.236c-0.514,0.906-0.556,2.098-0.104,2.967c0.483,1.158,1.628,2,3.062,2.248l0.046,0.008
			L162.165,10.233z M148.303,7.719c0.074,0,0.151-0.006,0.232-0.018c1.062-0.162,1.724-0.941,1.914-2.258
			c0.056-0.391,0.074-0.771,0.054-1.133l-0.007-0.104l-0.102,0.02c-0.039,0.008-0.076,0.018-0.115,0.027
			c-1.07,0.217-2.424,0.859-2.855,1.758c-0.215,0.447-0.213,0.918,0.002,1.26C147.607,7.561,147.918,7.719,148.303,7.719
			L148.303,7.719z M149.525,13.86c0.182,0,0.371-0.027,0.562-0.083c1.29-0.373,2.608-1.532,3.524-3.099
			c0.265-0.46,0.459-0.956,0.58-1.474l0.02-0.088l-0.088-0.02c-0.641-0.145-1.278-0.217-1.893-0.217
			c-1.031,0-1.984,0.201-2.836,0.602c-0.867,0.408-1.467,1.344-1.526,2.385c-0.034,0.594,0.144,1.127,0.497,1.502
			C148.668,13.69,149.07,13.86,149.525,13.86L149.525,13.86z M159.391,20.89c0.502,0,0.959-0.202,1.357-0.603
			c0.766-0.766,1.112-2.047,1.111-2.916c-0.002-1.65-0.678-3.246-2.008-4.741l-0.065-0.073l-0.067,0.07
			c-1.181,1.242-2.041,2.803-2.359,4.283c-0.16,0.742-0.082,1.631,0.205,2.321c0.286,0.693,0.719,1.505,1.522,1.634
			C159.188,20.881,159.291,20.89,159.391,20.89L159.391,20.89z"/>
	</g>
	<g>
		<path fill="#FFFFFF" d="M145.856,1.551c0.128,0.135,0.523,0.721,0.523,1.436c0,0.857-0.276,1.457-0.523,1.457
			c-0.248,0-0.523-0.6-0.523-1.457C145.333,2.268,145.728,1.684,145.856,1.551L145.856,1.551z"/>
	</g>
	<g>
		<path fill="#FFFFFF" d="M145.856,1.551c0.128,0.135,0.523,0.721,0.523,1.436c0,0.857-0.276,1.457-0.523,1.457
			c-0.248,0-0.523-0.6-0.523-1.457C145.333,2.268,145.728,1.684,145.856,1.551L145.856,1.551z"/>
	</g>
	<g>
		<path fill="#FFFFFF" d="M145.242,1.521c0.009,0.16-0.032,0.639-0.332,1.031c-0.319,0.418-0.666,0.637-0.845,0.637
			c-0.032,0-0.06-0.008-0.078-0.023c-0.062-0.047-0.069-0.186-0.02-0.361c0.06-0.211,0.189-0.457,0.368-0.689
			C144.635,1.723,145.081,1.555,145.242,1.521L145.242,1.521z"/>
	</g>
	<g>
		<path fill="#FFFFFF" d="M146.519,1.521c0.16,0.033,0.607,0.201,0.907,0.594c0.178,0.232,0.308,0.479,0.367,0.689
			c0.051,0.176,0.043,0.314-0.02,0.361c-0.02,0.016-0.045,0.023-0.078,0.023c-0.178,0-0.525-0.219-0.844-0.637
			C146.551,2.158,146.51,1.682,146.519,1.521L146.519,1.521z"/>
	</g>
</g>
<rect x="183" y="11" fill="#FFFFFF" width="110" height="1"/>
<rect y="11" fill="#FFFFFF" width="110" height="1"/>
<rect x="292" fill="#FFFFFF" width="1" height="12"/>
<rect fill="#FFFFFF" width="1" height="12"/>
</svg>
