<?xml version="1.0" encoding="utf-8"?>
<!-- Generator: Adobe Illustrator 16.0.4, SVG Export Plug-In . SVG Version: 6.00 Build 0)  -->
<!DOCTYPE svg PUBLIC "-//W3C//DTD SVG 1.1//EN" "http://www.w3.org/Graphics/SVG/1.1/DTD/svg11.dtd">
<svg version="1.1" id="Layer_1" xmlns="http://www.w3.org/2000/svg" xmlns:xlink="http://www.w3.org/1999/xlink" x="0px" y="0px"
	 width="90px" height="90px" viewBox="0 0 90 90" enable-background="new 0 0 90 90" xml:space="preserve">
<polygon fill="#DEAF45" points="45,0 90,0 90,74.619 45,89.672 0,74.619 0,0 "/>
<g>
	<path fill="#FFFFFF" d="M45.502,14.794l-0.01-2.589c-0.002-0.259-0.213-0.468-0.476-0.468c-0.262,0.001-0.472,0.213-0.473,0.473
		l0.01,2.588c0.002,0.26,0.214,0.469,0.476,0.468C45.292,15.265,45.502,15.054,45.502,14.794z"/>
	<path fill="#FFFFFF" d="M44.237,13.616l1.721-0.077c0.26-0.013,0.462-0.232,0.45-0.491c-0.011-0.259-0.231-0.46-0.494-0.448
		l-1.721,0.076c-0.26,0.012-0.462,0.232-0.451,0.49C43.755,13.427,43.975,13.627,44.237,13.616z"/>
	<path fill="#FFFFFF" d="M43.068,18.683c0,0,0.979-2.666,1.93-2.708c0.952-0.042,2.01,2.682,2.01,2.682L43.068,18.683z"/>
	<path fill="#FFFFFF" d="M23.836,39.588c0,0-2.168,2.815,0.108,6.256c0,0,1.456-2.423,0.9-3.747
		C24.286,40.775,23.836,39.588,23.836,39.588z"/>
	<path fill="#FFFFFF" d="M22.073,44.106c0,0-1.148,3.545,1.485,5.987c0,0,0.378-2.24,0.295-2.776
		c-0.081-0.535-1.015-2.25-1.279-2.555C22.312,44.457,22.073,44.106,22.073,44.106z"/>
	<path fill="#FFFFFF" d="M24.853,45.489c0,0,0.083-4.006,2.822-4.619c0,0,0.499,2.57-0.916,3.356L24.853,45.489z"/>
	<path fill="#FFFFFF" d="M26.756,45c0,0-2.879,0.493-2.456,4.499c0,0,2.021-0.236,2.363-3.022L26.756,45z"/>
	<path fill="#FFFFFF" d="M21.516,49.436c0,0,2.68,0.518,3.58,5.8c0,0-1.497-0.207-2.983-3.562L21.516,49.436z"/>
	<path fill="#FFFFFF" d="M26.462,48.808c0,0-1.905,0.403-1.522,3.238c0,0,0.239,1.293,0.396,1.941c0,0,0.64-0.939,1.104-2.363
		C26.898,50.2,26.462,48.808,26.462,48.808z"/>
	<path fill="#FFFFFF" d="M27.607,51.492c0,0,0.75,4.541-0.823,5.708c0,0-1.14-2.344-0.625-3.524
		C26.67,52.494,27.607,51.492,27.607,51.492z"/>
	<path fill="#FFFFFF" d="M22.369,54.097c0,0,1.438,4.14,3.188,5.198c0,0,1.351,0.776,2.201,0.783c0,0-1.214-2.455-3.609-4.63
		L22.369,54.097z"/>
	<path fill="#FFFFFF" d="M29.928,61.834c0,0-2.077-1.512-1.88-4.267c0.196-2.756,0.115-3.122,0.115-3.122s1.524,1.556,1.566,4.408
		C29.767,61.705,29.928,61.834,29.928,61.834z"/>
	<path fill="#FFFFFF" d="M30.34,59.423c0,0-0.387,3.165,0.999,4.601c1.386,1.437,1.87,1.649,1.87,1.649s-0.115-1.994-1.15-3.796
		C31.024,60.074,30.34,59.423,30.34,59.423z"/>
	<path fill="#FFFFFF" d="M30.436,63.858c0,0-1.609-2.372-3.048-3.139c-1.443-0.766-2.618-1.143-2.618-1.143s1.792,2.998,2.411,3.22
		c0.62,0.219,2.425,0.863,2.425,0.863L30.436,63.858z"/>
	<path fill="#FFFFFF" d="M28.193,64.787c0,0,1.616,2.882,3.717,2.435c2.101-0.448,2.249-0.478,2.249-0.478s-2.464-1.863-3.525-1.988
		C29.572,64.632,28.193,64.787,28.193,64.787z"/>
	<path fill="#FFFFFF" d="M33.166,62.651c0,0,0.697,3.299,2.733,4.274c2.035,0.979,1.993,0.669,1.993,0.669s-1.432-2.196-2.218-2.855
		C34.885,64.08,33.166,62.651,33.166,62.651z"/>
	<path fill="#FFFFFF" d="M36.503,64.19c0,0,2.5,0.89,3.642,2.406c1.142,1.519,1.679,2.231,1.679,2.231s-1.904-0.595-2.611-0.889
		s-1.623-1.562-1.977-2.251C36.884,65.002,36.503,64.19,36.503,64.19z"/>
	<path fill="#FFFFFF" d="M32.841,68.762c0,0,1.102-1.42,2.647-1.08c1.545,0.339,3.054,0.707,3.054,0.707s-1.241,2.046-2.75,1.592
		C34.281,69.527,32.841,68.762,32.841,68.762z"/>
	<path fill="#FFFFFF" d="M37.452,70.571c0,0,1.81-1.896,3.206-1.526c1.399,0.371,1.582,0.31,1.582,0.31s-0.823,1.911-2.143,1.906
		S37.452,70.571,37.452,70.571z"/>
	<path fill="#FFFFFF" d="M66.514,38.08c0,0,2.189,2.62-0.054,6.26c0,0-1.477-2.291-0.935-3.663
		C66.073,39.306,66.514,38.08,66.514,38.08z"/>
	<path fill="#FFFFFF" d="M68.313,42.439c0,0,1.182,3.44-1.431,6.116c0,0-0.396-2.204-0.319-2.748
		c0.076-0.545,0.995-2.339,1.255-2.667C68.077,42.811,68.313,42.439,68.313,42.439z"/>
	<path fill="#FFFFFF" d="M65.549,44.068c0,0-0.115-3.995-2.861-4.364c0,0-0.479,2.613,0.947,3.274L65.549,44.068z"/>
	<path fill="#FFFFFF" d="M63.642,43.75c0,0,2.884,0.236,2.495,4.279c0,0-2.021-0.057-2.391-2.816L63.642,43.75z"/>
	<path fill="#FFFFFF" d="M68.918,47.718c0,0-2.673,0.755-3.522,6.115c0,0,1.493-0.341,2.946-3.826L68.918,47.718z"/>
	<path fill="#FFFFFF" d="M63.973,47.529c0,0,1.903,0.233,1.549,3.103c0,0-0.227,1.314-0.378,1.975c0,0-0.648-0.881-1.122-2.263
		C63.546,48.961,63.973,47.529,63.973,47.529z"/>
	<path fill="#FFFFFF" d="M62.852,50.315c0,0-0.709,4.606,0.875,5.632c0,0,1.115-2.443,0.592-3.579
		C63.796,51.233,62.852,50.315,62.852,50.315z"/>
	<path fill="#FFFFFF" d="M68.109,52.45c0,0-1.396,4.268-3.14,5.48c0,0-1.344,0.897-2.193,0.981c0,0,1.191-2.563,3.565-4.951
		L68.109,52.45z"/>
	<path fill="#FFFFFF" d="M60.625,60.861c0,0,2.062-1.698,1.841-4.435c-0.222-2.738-0.146-3.111-0.146-3.111s-1.509,1.692-1.52,4.546
		C60.786,60.717,60.625,60.861,60.625,60.861z"/>
	<path fill="#FFFFFF" d="M60.192,58.484c0,0,0.415,3.131-0.957,4.688c-1.373,1.559-1.854,1.816-1.854,1.816s0.093-2.006,1.111-3.897
		C59.511,59.199,60.192,58.484,60.192,58.484z"/>
	<path fill="#FFFFFF" d="M60.135,62.926c0,0,1.589-2.514,3.019-3.408c1.433-0.893,2.603-1.375,2.603-1.375s-1.76,3.158-2.378,3.434
		c-0.616,0.275-2.416,1.08-2.416,1.08L60.135,62.926z"/>
	<path fill="#FFFFFF" d="M62.386,63.656c0,0-1.591,3.024-3.693,2.765c-2.106-0.26-2.252-0.277-2.252-0.277s2.448-2.083,3.507-2.301
		C61.005,63.624,62.386,63.656,62.386,63.656z"/>
	<path fill="#FFFFFF" d="M57.396,61.965c0,0-0.668,3.358-2.694,4.517c-2.025,1.158-1.986,0.845-1.986,0.845s1.412-2.323,2.193-3.052
		C55.689,63.544,57.396,61.965,57.396,61.965z"/>
	<path fill="#FFFFFF" d="M54.073,63.8c0,0-2.491,1.112-3.617,2.73c-1.13,1.618-1.662,2.378-1.662,2.378s1.898-0.764,2.601-1.119
		c0.707-0.358,1.613-1.707,1.958-2.427C53.702,64.644,54.073,63.8,54.073,63.8z"/>
	<path fill="#FFFFFF" d="M57.774,68.043c0,0-1.117-1.32-2.656-0.845c-1.544,0.477-3.046,0.979-3.046,0.979s1.26,1.935,2.764,1.347
		C56.343,68.938,57.774,68.043,57.774,68.043z"/>
	<path fill="#FFFFFF" d="M53.184,70.264l0.077-0.079c-0.011-0.002-1.414-1.359-2.771-1.36c-0.19,0.001-0.381,0.029-0.564,0.095
		c-1.166,0.415-1.482,0.446-1.522,0.445v0.034l0.008-0.033l-0.008-0.001v0.034l0.008-0.033l-0.217-0.049l0.092,0.202
		c0.011,0.002,0.784,1.772,2.143,1.783l0.127-0.005c1.355-0.127,2.679-0.937,2.688-0.939l0.122-0.075l-0.104-0.098L53.184,70.264
		l-0.058-0.095c0,0-0.323,0.197-0.812,0.409c-0.487,0.214-1.14,0.441-1.778,0.499l-0.107,0.006c-0.57,0.007-1.059-0.396-1.403-0.816
		c-0.346-0.419-0.537-0.839-0.537-0.839l-0.101,0.045l-0.025,0.107l0.042,0.004c0.103-0.002,0.418-0.041,1.599-0.458
		c0.156-0.056,0.32-0.081,0.488-0.082c0.604-0.007,1.264,0.314,1.769,0.644c0.504,0.328,0.848,0.655,0.849,0.655L53.184,70.264
		l-0.058-0.095L53.184,70.264z"/>
	<path fill="#FFFFFF" d="M31.322,30.453l0.004,0.627l27.142-0.178l0.097,21.536l0.632-0.002l-0.627-0.086l-0.019,0.12
		c-0.104,0.631-0.703,3.622-2.613,6.464c-1.923,2.842-5.069,5.531-10.486,5.782c-0.196,0.009-0.389,0.014-0.58,0.015
		c-5.484,0.025-8.651-2.958-10.564-6.041c-0.946-1.538-1.553-3.093-1.918-4.256c-0.185-0.583-0.309-1.067-0.385-1.402
		c-0.039-0.169-0.065-0.3-0.083-0.389L31.9,52.518l-0.625,0.103l0.632,0.001l0.047-22.167L31.322,30.453l0.004,0.627L31.322,30.453
		l-0.632-0.001l-0.048,22.219l0.008,0.05c0.011,0.045,0.545,3.312,2.579,6.623c2.017,3.307,5.65,6.691,11.652,6.642
		c0.207,0,0.416-0.005,0.626-0.015c6.24-0.267,9.896-3.678,11.878-6.958c1.997-3.28,2.429-6.444,2.439-6.492l0.005-0.044
		l-0.103-22.838L30.691,29.83l-0.001,0.622L31.322,30.453z"/>
	<path fill="#FFFFFF" d="M41.02,23.546c-0.933-0.151-0.79-1.211-0.79-1.211s-0.03-1.488,1.298-1.737
		c1.327-0.248,1.926,0.491,1.926,0.491l-0.306-1.958c-5.024,0.128-6.725,2.928-6.725,2.928l0.289,0.231c0,0,2.556-2.101,2.425,1.77
		l-0.3-0.026c-0.88,0.008-1.616,0.779-1.647,1.72c-0.028,0.943,0.663,1.698,1.543,1.69c0.882-0.008,1.621-0.78,1.648-1.721
		c0.005-0.173-0.015-0.34,0.003-0.5c0.107,0.828,0.768,1.453,1.58,1.444c0.911-0.009,1.673-0.806,1.705-1.781
		c0.031-0.974-0.684-1.756-1.595-1.748C41.68,23.144,41.31,23.297,41.02,23.546z M49.189,23.466
		c-0.275-0.245-0.635-0.39-1.028-0.386c-0.913,0.009-1.674,0.807-1.706,1.78c-0.03,0.974,0.686,1.757,1.597,1.748
		c0.815-0.008,1.512-0.646,1.669-1.477c0.008,0.159-0.021,0.327-0.027,0.5c-0.028,0.941,0.664,1.698,1.544,1.688
		c0.881-0.008,1.62-0.779,1.647-1.72c0.028-0.942-0.663-1.699-1.542-1.69l-0.3,0.033c0.104-3.872,2.535-1.819,2.535-1.819l0.3-0.238
		c0,0-1.528-2.768-6.548-2.796l-0.426,1.964c0,0,0.644-0.752,1.958-0.529c1.314,0.222,1.194,1.713,1.194,1.713
		s0.077,1.057-0.846,1.222L49.189,23.466z M41.924,18.349l3.418-0.159l3.369,0.115c3.96-0.039,5.992,3.025,5.992,3.025
		c1.077-1.656,3.265-1.286,3.265-1.286l-3.284,6.694c0,0,0.852,0.854-0.134,1.961c-0.988,1.106-0.494,1.729-0.494,1.729
		l-18.259,0.181c0,0,0.532-0.632-0.389-1.72c-0.917-1.088-0.013-1.959-0.013-1.959l-2.877-6.635c0,0,2.213-0.414,3.189,1.223
		C35.708,21.517,37.614,18.38,41.924,18.349z"/>
	<path fill="#FFFFFF" d="M42.356,18.893l0.042-0.153c0.101-0.356,0.391-1.271,0.858-2.071c0.23-0.4,0.507-0.77,0.801-1.025
		c0.299-0.258,0.597-0.4,0.922-0.414l0.045-0.001c0.357-0.002,0.699,0.159,1.039,0.461c0.508,0.45,0.947,1.2,1.239,1.833
		c0.146,0.315,0.257,0.603,0.33,0.808c0.075,0.206,0.111,0.322,0.111,0.322l0.908-0.267c-0.008-0.019-0.296-0.986-0.865-1.982
		c-0.284-0.499-0.64-1.007-1.09-1.41c-0.446-0.401-1.015-0.708-1.681-0.703l-0.081,0.002c-0.676,0.03-1.236,0.373-1.672,0.804
		c-1.292,1.304-1.808,3.54-1.826,3.574L42.356,18.893z"/>
	<path fill="#FFFFFF" d="M35.823,36.782l0.073,0.292l0.511-0.125l0.181,0.047l0.331-0.124l0.207-0.306l0.351-0.394l0.068-0.134
		l0.091-0.407l0.276-0.34l0.381-0.188l0.013-0.006l0.385-0.212l0.062,0.088l0.271,0.123l1.028-0.085l0.202-0.1l0.384-0.431
		l0.452-0.358l0.03-0.027l0.486-0.506l0.216-0.139l1.149,0.058l0.123-0.02l0.842-0.312l0.045-0.022l0.366-0.212l0.064-0.051
		l0.338-0.347l0.173-0.042l0.215,0.169l0.098,0.051l0.66,0.206l0.191-0.003l0.89-0.305l0.155-0.025l0.22,0.307l0.218,0.125
		l0.489,0.047l0.274,0.152l0.215,0.031l0.332-0.074l0.179,0.086l0.064,0.136l0.263,0.171l0.694,0.028l0.054,0.178l0.089,0.142
		l0.59,0.523l0.24,0.074l0.464-0.057l0.554,0.108l0.395,0.264l0.079,0.386l-0.031,0.511l0.038,0.163l0.141,0.255l0.18,0.412
		l0.291,0.181l0.404-0.018l0.095,0.07l0.033,0.759l0.002,0.033l0.101,0.638l-0.132,0.23l-0.034,0.089l-0.072,0.356l0.003,0.129
		l0.083,0.344l-0.188,0.297l-0.045,0.181l0.072,1.017l-0.22,0.275l-0.01,0.012l-0.29,0.405l-0.046,0.095l-0.065,0.243l-0.251,0.084
		l-0.197,0.213l-0.162,0.654l-0.248,0.01l-0.214,0.102l-0.253,0.287l-0.007,0.006l-0.442,0.529l-0.455,0.266l-0.504,0.255
		l-0.069,0.047l-0.583,0.535l-0.027,0.029l-0.582,0.695l-0.012,0.015l-0.306,0.415l-0.39,0.298l-0.283,0.179l-0.268,0.074
		l-0.282-0.368l-0.229-0.12l-0.238,0.102l-0.257,0.286l-0.077,0.197l-0.025,2.551l0.001,0.008l0.101,5.684l0.002,0.022l0.152,1.62
		l-0.066,1.473v0.033l0.041,0.664l0.036,0.128l0.258,0.459l0.004,0.004l0.333,0.572l0.004,0.008l0.774,1.26l0.108,0.104l0.134,0.077
		l0.028,0.141l-0.106,0.177l-1.51,0.582l-0.03,0.013l-0.332,0.173l0.141,0.267l0.031-0.3c-0.006,0-0.493-0.051-0.887-0.048
		l-0.332,0.023l-0.172,0.055c-0.058,0.025-0.193,0.126-0.193,0.306l0.047,0.169l0.217-0.123l-0.25,0.002l0.033,0.123l0.217-0.125
		l-0.25,0.002l0.271-0.002l-0.102-0.252l-0.168,0.254l0.271-0.002l-0.102-0.252l0.05,0.125l-0.001-0.139l-0.049,0.014l0.05,0.125
		l-0.001-0.139c-0.037,0.004-0.244-0.035-0.406-0.079c-0.166-0.043-0.305-0.087-0.307-0.087l-0.024-0.006L43.92,62.22l-0.629-0.139
		l-0.197-0.251l-0.002-0.309l1.431-1.948l0.046-0.091l0.144-0.477l0.011-0.068l0.07-1.142v-0.007l0.065-1.808l0.002-0.011
		l-0.002-0.824l-0.002-0.012l-0.291-7.276l0-0.701l-0.006-0.053l-0.112-0.622l-0.096-0.171l-0.294-0.261l-0.215-0.078l-0.331,0.015
		l-0.273,0.203l-0.111,0.319l-0.015,0.125l0.028,0.301l-0.023,0.026l-0.093,0.016l-0.847-0.659l-0.552-0.446l-0.104-0.054
		l-0.887-0.266l-0.528-0.278l-0.122-0.034l-0.2-0.013l-0.101-0.168l0.029-0.897l-0.177-0.283L39.1,43.684l-0.26-0.231l-0.129-0.068
		l-0.402-0.1l-0.043-0.008l-0.44-0.043L37.5,42.901l-0.137-0.081l-0.164-0.045l-0.021-0.26l-0.144-0.23l-0.247-0.155l-0.032-0.041
		l0.014-0.066l-0.166-0.324l-0.318-0.157l0.077-0.616l-0.009-0.124l-0.149-0.502c-0.047-0.157-0.213-0.249-0.374-0.205l-0.127,0.035
		l-0.001-0.049l0.26-0.324l0.048-0.085l0.145-0.399l0.018-0.103l-0.001-0.745l-0.012-0.085l-0.149-0.504l-0.005-0.014l-0.132-0.377
		l-0.001-0.207l0.2-0.287L35.823,36.782l0.073,0.292L35.823,36.782l-0.25-0.172l-0.256,0.364l-0.055,0.174l0.002,0.353l0.018,0.097
		l0.146,0.418l0.135,0.456l0.002,0.648l-0.112,0.303l-0.294,0.369l-0.066,0.187v0.549l0.12,0.239l0.264,0.05l0.226-0.062
		l0.047,0.158l-0.097,0.767l0.167,0.308l0.514,0.252l0.133-0.27l-0.299-0.054l-0.036,0.198l0.059,0.238l0.147,0.189l0.079,0.072
		l0.167,0.103l0.025,0.318l0.221,0.266l0.288,0.079l0.347,0.355l0.187,0.089l0.529,0.052l0.308,0.077l0.238,0.211l0.077,0.05
		l0.293,0.132l-0.023,0.781l0.04,0.161l0.223,0.386l0.245,0.149l0.297,0.019l0.497,0.261l0.053,0.021l0.86,0.257l0.507,0.408
		l0.003,0.002l0.954,0.742l0.236,0.062l0.332-0.055l0.176-0.095l0.184-0.205l0.078-0.229l-0.036-0.365l0.022-0.064l0.124-0.005
		l-0.014-0.302l-0.203,0.224l0.217,0.194l0.089,0.494l0.001,0.679l0.001,0.013l0.29,7.278l0.002,0.811l-0.063,1.798l-0.067,1.102
		l-0.12,0.396l-1.461,1.986l-0.059,0.179l0.003,0.51l0.065,0.184l0.329,0.417l0.173,0.108l0.735,0.162l0.585,0.132l0.067-0.294
		l-0.092,0.287c0.004,0.001,0.154,0.048,0.334,0.095c0.187,0.046,0.382,0.097,0.564,0.1l0.173-0.032
		c0.073-0.014,0.222-0.148,0.214-0.307l-0.05-0.175l-0.226,0.129l0.26-0.001l-0.035-0.127l-0.225,0.128l0.26-0.001l-0.252,0.001
		l0.121,0.229l0.132-0.23l-0.252,0.001l0.121,0.229l-0.059-0.109l0.042,0.116l0.017-0.007l-0.059-0.109l0.042,0.116l0.245-0.017
		c0.339-0.003,0.819,0.045,0.821,0.045l0.17-0.031l0.318-0.164l1.592-0.615l0.149-0.127l0.22-0.363l0.037-0.209l-0.074-0.39
		l-0.148-0.205l-0.188-0.105l-0.734-1.195l-0.33-0.567l-0.262,0.15l0.266-0.146l-0.225-0.4l-0.037-0.579l0.066-1.478l0.001-0.043
		L47.2,54.909l-0.099-5.667l0.021-2.436l0.182-0.202l-0.227-0.2l-0.242,0.182l0.404,0.531l0.322,0.109l0.513-0.14l0.084-0.037
		l0.331-0.211l0.021-0.015l0.435-0.334l0.059-0.06l0.325-0.441l0.564-0.673l0.538-0.495l0.475-0.24l0.015-0.008l0.511-0.297
		l0.082-0.068l0.473-0.565l0.165-0.188l0.347-0.016l0.281-0.229l0.176-0.712l0.245-0.083l0.195-0.205l0.096-0.347l0.254-0.354
		l0.288-0.359l0.065-0.208l-0.074-1.037l0.203-0.32l0.036-0.229l-0.096-0.402l0.05-0.245l0.159-0.279l0.037-0.194l-0.113-0.725
		l-0.039-0.883l-0.118-0.227l-0.296-0.223l-0.196-0.061l-0.308,0.014l-0.101-0.233l-0.013-0.025l-0.104-0.192l0.027-0.463
		l-0.006-0.079l-0.112-0.544l-0.126-0.189l-0.55-0.367l-0.112-0.045l-0.66-0.128l-0.096-0.004l-0.375,0.047l-0.423-0.375
		l-0.087-0.304l-0.28-0.218l-0.732-0.029l-0.03-0.066l-0.142-0.141l-0.367-0.18l-0.201-0.024l-0.327,0.072l-0.229-0.125
		l-0.115-0.037l-0.415-0.04l-0.248-0.346l-0.293-0.122l-0.366,0.057l-0.054,0.013l-0.823,0.282l-0.51-0.159l-0.287-0.226
		l-0.261-0.057l-0.402,0.097l-0.146,0.083l-0.371,0.38l-0.308,0.178l-0.759,0.281l-1.185-0.059l-0.18,0.048l-0.328,0.211
		l-0.055,0.045l-0.497,0.519l-0.456,0.361l-0.038,0.035l-0.32,0.359l-0.736,0.061l-0.121-0.165l-0.394-0.087l-0.614,0.338
		l-0.433,0.212l-0.101,0.081l-0.364,0.446l-0.061,0.125l-0.089,0.399l-0.312,0.351l-0.025,0.031l-0.098,0.146l-0.046-0.012l-0.151,0
		L35.75,36.49l-0.176,0.12L35.823,36.782z"/>
	<path fill="#FFFFFF" d="M37.004,47.09l-0.44-0.177l-0.403,0.213l-0.182,0.244l0.224,0.5l0.549-0.221l0.145-0.281L37.004,47.09z
		 M36.92,44.538l0.513,0.252l0.186,0.58l0.514,0.095l0.401-0.45l0.404-0.214l0.405,0.729l0.334,1.165l1.692,1.533l1.508,0.953
		l0.844,0.433l1.978-0.363l3.626-0.436l1.062-0.126l1.169-0.602l0.659-0.5l0.508-0.963l-0.005-1.142l-0.188-0.777l-0.184-0.306
		l-0.149-0.699l0.729-0.189l-0.146-0.464l-0.041-0.626l0.623,0.011l-0.007-1.098l0.259-0.13l0.076,0.742l0.22,0.227l0.327-0.878
		l0.291-0.248l0.151,0.699l0.075,0.742l0.587-0.065l0.114,1.133l-0.324,0.798l-0.034,1.181l-0.031,1.14l-0.398,0.842l-0.437,0.726
		l-0.618,0.576l-1.244,0.997l-0.878,0.549l0.332,0.378l0.297,0.497l0.148,0.465l0.041,0.586l0.036,0.194l1.142,1.164l0.479,0.293
		l0.072,0.351l-0.29,0.326l-0.44,0.255l0.042,0.626l0.076,0.819l-0.182,0.324l-0.034,1.021l-0.219,0.282l-0.034,0.474l-0.219,0.402
		l0.005,0.706l-0.256,0.402l-0.513,0.103l-0.439-0.059l-0.772-0.712l0.034-0.51l0.912-0.983l0.293-0.522l-0.005-0.628l0.256-0.364
		l-0.077-0.429l-0.442-0.49l-0.256-0.066l-0.145,0.241l0.112,0.388l0.037,0.548l-0.328,0.172l-0.257,0.284l-0.179,0.794
		l-0.476,0.296l-0.325,0.368l-0.147,0.397l-0.07,0.593l-0.8,0.977l-0.55,0.181l-0.658,0.03l-0.481-0.528l1.275-1.704l0.511-0.376
		l0.729-0.621l0.11-0.436l-0.442-0.569l-0.479-0.41l-0.626-0.719l-0.186-0.305l-0.185-0.854l-0.626-0.168l-0.547,0.22l-0.549,0.534
		l-0.73,0.425l-1.171,0.211L43.6,55.308l-0.474,0.217l-0.875,1.451l-0.434,0.922L41.31,59.02l-0.325,0.719l-0.732,0.778
		l-0.509,0.611l-0.95,0.277l-0.881-0.157l-0.513-0.447l0.068-0.475l0.296-0.051l0.988-0.085l0.912-0.903l0.326-0.563l0.365-0.329
		l0.142-1.223l0.07-0.748l0.215-0.56l-0.001-0.511l-0.88-0.194l-0.439,0.176l-0.807,0.036l-0.291-0.145L38.07,55.24l-0.698-0.166
		l-0.219,0.245l0.039,0.47l0.258,0.303l0.184,0.618l-0.18,0.441l-0.367,0.172L36.61,57.07l-0.626-0.679l-0.185-0.815l0.106-0.789
		l0.435-0.568l0.405-0.331l1.94-0.284l0.329,0.144l0.368-0.096l0.106-0.396l-0.039-0.626l-0.589-0.328l-0.366-0.454l-0.262-1.007
		L37.9,50.541l-0.219-0.188l-0.625,0.028l-0.584,0.458l-0.473,0.53l-0.401-0.1l-0.331-0.261l-0.369-0.218l-0.255-0.028l-0.733,0.149
		l-0.369-0.257l-0.367-0.455l-0.149-0.385l0.255,0.027l0.478,0.45l0.44,0.177l0.513-0.063l0.477-0.333l0.216-0.246l0.404-0.175
		l0.364-0.056l0.11-0.28l-0.51-0.094l-0.295-0.065l-0.514,0.18l-0.293-0.105l-0.185-0.268L33.79,48.8l-0.261-0.34
		c0,0-0.51-0.096-0.328-0.222c0.179-0.125,0.182-0.361,0.182-0.361l0.548-0.377l0.582-0.3l0.548-0.103l0.512-0.415l0.473-0.453
		l0.477-0.376l0.328-0.132l0.036-0.356l-0.074-0.39L36.92,44.538z"/>
	<path fill="#FFFFFF" d="M43.789,69.794c-0.012-1.424,0.667-2.608,1.514-2.645c0.849-0.035,1.542,1.092,1.55,2.516
		c0.01,1.424-0.667,2.607-1.514,2.644C44.492,72.345,43.798,71.22,43.789,69.794z"/>
	<path fill="#FFFFFF" d="M23.836,39.588l-0.089-0.065c-0.007,0.009-0.964,1.252-0.954,3.113c0.006,0.958,0.271,2.079,1.058,3.271
		l0.098,0.146l0.091-0.151c0.001-0.01,1.046-1.731,1.042-3.116c-0.001-0.258-0.042-0.507-0.136-0.73
		c-0.557-1.322-1.005-2.503-1.007-2.506l-0.071-0.186l-0.121,0.158L23.836,39.588l-0.104,0.039c0,0,0.45,1.188,1.01,2.514
		c0.081,0.189,0.118,0.41,0.119,0.646c0.004,0.639-0.246,1.394-0.502,1.984c-0.254,0.59-0.51,1.016-0.51,1.016l0.096,0.056
		l0.093-0.06c-0.764-1.156-1.017-2.23-1.023-3.149c-0.005-0.891,0.223-1.638,0.454-2.162c0.23-0.523,0.458-0.815,0.457-0.817
		L23.836,39.588l-0.104,0.039L23.836,39.588z"/>
	<path fill="#FFFFFF" d="M22.073,44.106l-0.105-0.034c-0.002,0.008-0.262,0.807-0.255,1.918c0.007,1.238,0.352,2.868,1.769,4.183
		l0.15,0.14l0.034-0.202c0-0.003,0.313-1.842,0.308-2.605L23.964,47.3c-0.098-0.592-1.019-2.268-1.305-2.609
		c-0.257-0.299-0.492-0.646-0.494-0.646l-0.127-0.188l-0.07,0.215L22.073,44.106l-0.091,0.061c0,0.001,0.24,0.354,0.507,0.667
		c0.241,0.268,1.191,2.019,1.254,2.5l0.011,0.174c0.005,0.719-0.305,2.564-0.304,2.568l0.108,0.018l0.076-0.08
		c-1.361-1.263-1.69-2.823-1.698-4.024c-0.009-1.076,0.245-1.848,0.242-1.849L22.073,44.106l-0.091,0.061L22.073,44.106z"/>
	<path fill="#FFFFFF" d="M24.853,45.489l0.111,0.004c0-0.004,0.021-0.989,0.378-2.049c0.359-1.062,1.044-2.173,2.357-2.466
		l-0.024-0.107l-0.108,0.021c0,0,0.079,0.411,0.082,0.953c0.007,0.803-0.165,1.86-0.945,2.287L26.7,44.133l-1.909,1.265
		L24.853,45.489l0.111,0.004L24.853,45.489l0.062,0.092l1.905-1.263l-0.062-0.092l0.055,0.096c0.904-0.51,1.06-1.655,1.058-2.479
		c-0.003-0.563-0.086-0.989-0.088-0.994l-0.021-0.11l-0.112,0.024c-2.851,0.663-2.9,4.722-2.908,4.724l-0.006,0.211l0.179-0.117
		L24.853,45.489z"/>
	<path fill="#FFFFFF" d="M26.756,45l-0.019-0.108c-0.01,0.002-0.659,0.114-1.31,0.659c-0.651,0.542-1.292,1.523-1.279,3.217
		c0.001,0.233,0.016,0.481,0.042,0.743l0.012,0.109l0.111-0.012c0.02-0.002,2.114-0.271,2.461-3.12v-0.002l0.092-1.48l0.008-0.139
		l-0.138,0.023L26.756,45l-0.11-0.007l-0.093,1.475l0.11,0.008l-0.11-0.014c-0.169,1.368-0.741,2.092-1.266,2.483
		c-0.263,0.194-0.516,0.307-0.701,0.368c-0.187,0.063-0.298,0.075-0.298,0.075l0.013,0.109l0.11-0.01
		c-0.027-0.256-0.041-0.496-0.042-0.722c-0.01-1.639,0.596-2.54,1.201-3.048c0.301-0.254,0.606-0.406,0.833-0.497
		c0.227-0.089,0.371-0.113,0.371-0.113L26.756,45l-0.11-0.007L26.756,45z"/>
	<path fill="#FFFFFF" d="M21.516,49.436l-0.021,0.108c0,0,0.149,0.027,0.405,0.153c0.763,0.379,2.414,1.619,3.087,5.556l0.108-0.018
		l0.015-0.109l-0.227-0.077c-0.46-0.202-1.562-0.922-2.67-3.422l-0.102,0.046l0.106-0.028l-0.595-2.235L21.516,49.436l-0.021,0.108
		L21.516,49.436l-0.106,0.028l0.597,2.244l0.004,0.009c1.493,3.379,3.027,3.624,3.07,3.627l0.149,0.021l-0.026-0.148
		c-0.899-5.316-3.631-5.887-3.667-5.888l-0.174-0.033l0.045,0.169L21.516,49.436z"/>
	<path fill="#FFFFFF" d="M26.462,48.808l-0.023-0.108c-0.018,0.004-1.68,0.382-1.66,2.661c0.001,0.216,0.017,0.448,0.05,0.7
		l0.002,0.003v0.003c0,0,0.239,1.293,0.397,1.946l0.059,0.242l0.141-0.207c0.004-0.006,0.649-0.952,1.117-2.39
		c0.167-0.519,0.217-1.029,0.214-1.475c-0.005-0.812-0.188-1.402-0.192-1.409l-0.029-0.095l-0.099,0.02L26.462,48.808l-0.105,0.032
		c0,0.001,0.177,0.566,0.182,1.346c0.002,0.427-0.047,0.915-0.206,1.405c-0.23,0.703-0.501,1.29-0.718,1.697
		c-0.215,0.408-0.372,0.636-0.372,0.636l0.092,0.063l0.107-0.026c-0.155-0.642-0.395-1.933-0.395-1.935l-0.108,0.02l0.11-0.016
		C25.016,51.789,25,51.564,25,51.359c-0.005-1.083,0.373-1.684,0.744-2.026c0.188-0.172,0.376-0.275,0.515-0.339l0.226-0.079
		L26.462,48.808l-0.105,0.032L26.462,48.808z"/>
	<path fill="#FFFFFF" d="M27.607,51.492l-0.109,0.018c0,0.002,0.167,1.026,0.176,2.225c0.014,1.313-0.192,2.826-0.957,3.378
		l0.067,0.088l0.1-0.048c0-0.001-0.184-0.379-0.371-0.91c-0.188-0.532-0.374-1.212-0.377-1.797
		c-0.002-0.273,0.035-0.522,0.126-0.726c0.25-0.58,0.608-1.12,0.901-1.514c0.294-0.394,0.524-0.639,0.526-0.64L27.607,51.492
		l-0.109,0.018L27.607,51.492l-0.082-0.074c-0.004,0.005-0.946,1.011-1.469,2.214c-0.105,0.242-0.144,0.521-0.141,0.814
		c0.011,1.252,0.767,2.794,0.769,2.802l0.059,0.12l0.108-0.079c0.881-0.668,1.047-2.225,1.045-3.557
		c-0.008-1.218-0.179-2.255-0.181-2.258l-0.035-0.223l-0.155,0.166L27.607,51.492z"/>
	<path fill="#FFFFFF" d="M22.369,54.097l-0.105,0.035c0.01,0.009,1.422,4.144,3.235,5.257c0.011,0.002,1.352,0.787,2.257,0.799
		l0.181,0.003l-0.079-0.161c-0.006-0.006-1.223-2.473-3.636-4.663l-0.003-0.004l-2.075-1.574l0.12,0.344L22.369,54.097l-0.067,0.086
		l1.779,1.352l0.068-0.086l-0.074,0.081c1.188,1.078,2.086,2.23,2.685,3.112c0.599,0.879,0.897,1.484,0.899,1.486l0.1-0.05l0-0.109
		c-0.393-0.002-0.938-0.192-1.375-0.386c-0.438-0.192-0.77-0.384-0.771-0.384c-0.834-0.499-1.634-1.789-2.207-2.949
		c-0.576-1.161-0.931-2.188-0.932-2.19L22.369,54.097l-0.067,0.086L22.369,54.097z"/>
	<path fill="#FFFFFF" d="M29.928,61.834l0.066-0.088c0,0-0.111-0.08-0.282-0.244c-0.519-0.49-1.555-1.704-1.567-3.538l0.014-0.389
		c0.113-1.595,0.134-2.392,0.131-2.783c-0.002-0.287-0.016-0.355-0.018-0.371l-0.109,0.024l-0.079,0.075
		c0,0.001,0.088,0.093,0.229,0.278c0.421,0.559,1.273,1.945,1.304,4.056c0.02,1.429,0.068,2.177,0.116,2.573
		c0.052,0.397,0.067,0.429,0.125,0.492L29.928,61.834l0.066-0.088L29.928,61.834l0.069-0.084l-0.049,0.061l0.072-0.035l-0.023-0.025
		l-0.049,0.061l0.072-0.035c-0.013-0.015-0.149-0.436-0.182-2.923c-0.041-2.894-1.585-4.473-1.596-4.484l-0.271-0.275l0.083,0.375
		l0.005,0.052l0.009,0.274c0.003,0.382-0.018,1.174-0.132,2.766l-0.013,0.406c0.019,2.562,1.927,3.95,1.938,3.957l0.134-0.173
		L29.928,61.834z"/>
	<path fill="#FFFFFF" d="M30.34,59.423l-0.11-0.015c0,0.004-0.054,0.446-0.049,1.077c0.008,1.064,0.17,2.667,1.079,3.614
		c1.391,1.441,1.88,1.662,1.904,1.675l0.165,0.073l-0.009-0.181c-0.002-0.01-0.115-2.017-1.164-3.845
		c-1.04-1.81-1.73-2.471-1.737-2.479l-0.16-0.153l-0.028,0.218L30.34,59.423l-0.078,0.078c0.001,0.002,0.164,0.156,0.46,0.54
		c0.298,0.385,0.726,0.994,1.239,1.891c0.51,0.887,0.795,1.825,0.952,2.543c0.156,0.716,0.182,1.204,0.185,1.205l0.11-0.007
		l0.045-0.1l-0.084-0.049c-0.189-0.119-0.715-0.504-1.751-1.578c-0.833-0.855-1.014-2.419-1.017-3.462
		c-0.003-0.618,0.049-1.048,0.049-1.048L30.34,59.423l-0.078,0.078L30.34,59.423z"/>
	<path fill="#FFFFFF" d="M30.436,63.858l0.091-0.062c-0.007-0.004-1.605-2.381-3.086-3.176c-1.452-0.77-2.632-1.147-2.637-1.148
		l-0.277-0.089l0.149,0.249c0,0.001,0.449,0.753,0.976,1.533c0.538,0.782,1.108,1.58,1.493,1.732c0.62,0.22,2.421,0.863,2.425,0.863
		l0.005,0.003l0.834,0.2l0.277,0.066l-0.159-0.234L30.436,63.858l0.026-0.107l-0.829-0.198l-0.027,0.107l0.038-0.104
		c0,0-1.806-0.644-2.426-0.863c-0.233-0.066-0.871-0.879-1.382-1.649c-0.523-0.775-0.968-1.521-0.97-1.522l-0.095,0.057
		l-0.033,0.104c0.001,0.001,1.165,0.375,2.599,1.137c0.694,0.367,1.454,1.145,2.03,1.829c0.577,0.685,0.975,1.272,0.978,1.272
		L30.436,63.858l0.026-0.107L30.436,63.858z"/>
	<path fill="#FFFFFF" d="M28.193,64.787l-0.097,0.053c0.01,0.003,1.395,2.533,3.381,2.538l0.456-0.049
		c2.101-0.446,2.247-0.478,2.249-0.478l0.236-0.051l-0.191-0.145c-0.012-0.004-2.448-1.865-3.581-2.009
		c-0.335-0.041-0.697-0.052-1.041-0.049c-0.763,0.005-1.423,0.079-1.425,0.079l-0.165,0.019l0.081,0.144L28.193,64.787l0.012,0.109
		c0.002,0,0.652-0.074,1.402-0.079c0.335-0.002,0.691,0.011,1.013,0.049c0.485,0.052,1.372,0.544,2.114,1.022
		c0.744,0.479,1.355,0.939,1.357,0.941l0.067-0.086l-0.023-0.108c0,0-0.147,0.03-2.249,0.479l-0.411,0.044
		c-0.891,0.009-1.691-0.587-2.269-1.201c-0.574-0.611-0.917-1.223-0.919-1.224L28.193,64.787l0.012,0.109L28.193,64.787z"/>
	<path fill="#FFFFFF" d="M33.166,62.651l-0.108,0.022c0.008,0.008,0.686,3.326,2.792,4.353c1.26,0.603,1.722,0.723,1.94,0.726
		l0.157-0.044l0.055-0.113l0-0.032l-0.016-0.027c-0.007-0.005-1.428-2.193-2.241-2.88c-0.79-0.66-2.508-2.088-2.508-2.088
		l-0.244-0.204l0.065,0.311L33.166,62.651l-0.071,0.083c0.002,0.004,1.719,1.428,2.508,2.088c0.375,0.313,0.931,1.026,1.384,1.655
		c0.455,0.631,0.81,1.177,0.812,1.178l0.093-0.061l-0.11,0.001h0.076l-0.048-0.061l-0.027,0.061h0.076l-0.048-0.061l0.017,0.021
		l-0.007-0.027l-0.01,0.007l0.017,0.021l-0.007-0.027l-0.029,0.003c-0.129,0.005-0.599-0.103-1.842-0.703
		c-0.978-0.469-1.654-1.515-2.077-2.45c-0.424-0.936-0.595-1.749-0.596-1.75L33.166,62.651l-0.071,0.083L33.166,62.651z"/>
	<path fill="#FFFFFF" d="M36.503,64.19l-0.037,0.103c0,0,0.616,0.222,1.377,0.628c0.76,0.409,1.66,1.007,2.211,1.742
		c1.144,1.518,1.682,2.23,1.682,2.23l0.087-0.065l0.034-0.105c-0.004,0-1.906-0.594-2.601-0.885
		c-0.649-0.261-1.583-1.529-1.923-2.199c-0.352-0.686-0.731-1.494-0.732-1.495L36.503,64.19l-0.037,0.103L36.503,64.19l-0.1,0.045
		c0,0.002,0.38,0.813,0.735,1.502c0.369,0.705,1.268,1.975,2.033,2.304c0.718,0.297,2.619,0.891,2.621,0.891l0.329,0.104
		l-0.207-0.273c-0.002-0.002-0.539-0.712-1.68-2.229c-1.176-1.557-3.686-2.44-3.694-2.445l-0.249-0.089l0.112,0.237L36.503,64.19z"
		/>
	<path fill="#FFFFFF" d="M32.841,68.762l0.087,0.066c0.002,0,0.209-0.269,0.576-0.541c0.367-0.275,0.886-0.545,1.492-0.548
		c0.15-0.002,0.306,0.014,0.468,0.049c1.545,0.341,3.048,0.707,3.051,0.707l0.027-0.106l-0.096-0.057c0,0-0.244,0.401-0.646,0.804
		c-0.402,0.406-0.959,0.799-1.557,0.8l-0.42-0.061c-1.499-0.447-2.928-1.21-2.931-1.211L32.841,68.762l0.087,0.066L32.841,68.762
		l-0.052,0.098c0.003,0.001,1.445,0.769,2.971,1.228c0.164,0.048,0.327,0.07,0.485,0.069c1.392-0.025,2.38-1.708,2.392-1.712
		l0.078-0.127l-0.146-0.035c0-0.001-1.51-0.369-3.057-0.708c-0.177-0.039-0.35-0.056-0.517-0.055
		c-1.351,0.015-2.233,1.169-2.242,1.175l-0.081,0.103l0.116,0.062L32.841,68.762z"/>
	<path fill="#FFFFFF" d="M37.452,70.571l0.081,0.076c0.001-0.001,0.366-0.386,0.897-0.771c0.529-0.388,1.22-0.768,1.836-0.77
		l0.363,0.044c1.069,0.284,1.433,0.319,1.566,0.318l0.08-0.009l-0.035-0.105l-0.102-0.042c0,0-0.2,0.463-0.559,0.925
		c-0.36,0.466-0.87,0.912-1.469,0.913l-0.015,0.001c-1.28-0.004-2.59-0.68-2.593-0.678L37.452,70.571l0.081,0.076L37.452,70.571
		l-0.051,0.098c0.007,0.003,1.34,0.695,2.696,0.702h0.015c1.424-0.033,2.219-1.971,2.231-1.973l0.096-0.224l-0.233,0.076l0.02,0.055
		l-0.01-0.058l-0.01,0.003l0.02,0.055l-0.01-0.058l-0.022,0.001c-0.089,0.001-0.447-0.028-1.508-0.311l-0.421-0.052
		c-1.4,0.021-2.881,1.606-2.893,1.609l-0.101,0.106l0.131,0.066L37.452,70.571z"/>
	<path fill="#FFFFFF" d="M66.514,38.08l-0.083,0.071l0.138,0.195c0.259,0.392,0.784,1.347,0.793,2.675
		c0.003,0.923-0.237,2.031-0.995,3.262l0.094,0.058l0.093-0.06c0,0-0.259-0.398-0.516-0.962c-0.259-0.563-0.517-1.292-0.521-1.93
		c-0.001-0.241,0.034-0.469,0.114-0.67c0.547-1.375,0.987-2.602,0.987-2.602L66.514,38.08l-0.083,0.071L66.514,38.08l-0.104-0.037
		c-0.002,0.003-0.44,1.225-0.987,2.595c-0.092,0.234-0.13,0.491-0.128,0.752c0.015,1.383,1.07,3,1.071,3.01l0.095,0.147l0.092-0.15
		c0.781-1.264,1.035-2.415,1.029-3.378c-0.013-1.848-0.975-2.999-0.983-3.01l-0.124-0.147l-0.064,0.181L66.514,38.08z"/>
	<path fill="#FFFFFF" d="M68.313,42.439l-0.105,0.035c0,0,0.062,0.181,0.127,0.5c0.065,0.317,0.129,0.769,0.134,1.299
		c0.007,1.205-0.303,2.81-1.667,4.207l0.081,0.076l0.109-0.019c0-0.002-0.323-1.804-0.329-2.53l0.01-0.185
		c0.06-0.491,0.993-2.321,1.232-2.614c0.266-0.334,0.501-0.709,0.501-0.71L68.313,42.439l-0.105,0.035L68.313,42.439L68.22,42.38
		c0,0.001-0.234,0.37-0.488,0.692c-0.28,0.363-1.188,2.118-1.277,2.719l-0.011,0.215c0.006,0.77,0.331,2.565,0.331,2.568
		l0.036,0.211l0.153-0.154c1.41-1.446,1.735-3.119,1.727-4.361c-0.007-1.095-0.271-1.86-0.272-1.866l-0.076-0.22L68.22,42.38
		L68.313,42.439z"/>
	<path fill="#FFFFFF" d="M65.549,44.068l0.11-0.003c-0.009,0-0.089-4.057-2.957-4.469l-0.105-0.015l-0.019,0.104
		c-0.002,0.004-0.082,0.451-0.08,1.028c0.009,0.82,0.18,1.934,1.09,2.366l0.047-0.1l-0.056,0.096l2.087,1.187l-0.007-0.196
		L65.549,44.068l0.055-0.095l-1.919-1.091l-0.003-0.003c-0.771-0.348-0.957-1.367-0.961-2.168c-0.004-0.555,0.075-0.985,0.075-0.985
		l-0.108-0.021l-0.016,0.11c1.313,0.174,2.002,1.217,2.37,2.246c0.366,1.028,0.393,2.01,0.396,2.011L65.549,44.068l0.055-0.095
		L65.549,44.068z"/>
	<path fill="#FFFFFF" d="M63.642,43.75l-0.009,0.108c0,0,0.143,0.012,0.368,0.081c0.68,0.211,2.039,0.89,2.061,3.327
		c0.002,0.234-0.01,0.484-0.035,0.752l0.11,0.011l0.003-0.109c0,0-0.112-0.003-0.298-0.05c-0.557-0.143-1.709-0.644-1.985-2.672
		l-0.11,0.015l0.11-0.007l-0.104-1.463L63.642,43.75l-0.009,0.108L63.642,43.75l-0.11,0.007l0.104,1.463l0.001,0.003v0.003
		c0.188,1.409,0.806,2.148,1.385,2.521c0.576,0.375,1.102,0.391,1.113,0.391l0.104,0.003l0.01-0.102
		c0.025-0.274,0.037-0.532,0.036-0.773c-0.01-1.684-0.662-2.607-1.319-3.088c-0.655-0.483-1.301-0.537-1.312-0.538l-0.129-0.01
		l0.009,0.127L63.642,43.75z"/>
	<path fill="#FFFFFF" d="M68.918,47.718l-0.029-0.106c-0.033,0.006-2.754,0.809-3.602,6.204l-0.026,0.161l0.159-0.037
		c0.039-0.007,1.564-0.385,3.024-3.891l0.003-0.008l0.625-2.479l-0.184,0.05L68.918,47.718l-0.107-0.026l-0.576,2.289l0.107,0.026
		l-0.103-0.043c-0.721,1.732-1.451,2.675-1.991,3.184c-0.27,0.253-0.496,0.399-0.647,0.48l-0.176,0.081l-0.054,0.018l0.024,0.106
		l0.109,0.018c0.423-2.665,1.295-4.171,2.053-5.012c0.381-0.421,0.731-0.675,0.985-0.825l0.301-0.15l0.104-0.039L68.918,47.718
		l-0.107-0.026L68.918,47.718z"/>
	<path fill="#FFFFFF" d="M63.973,47.529l-0.015,0.108l0.224,0.06c0.416,0.154,1.257,0.619,1.272,2.227
		c0.001,0.211-0.012,0.442-0.044,0.693l0.111,0.015l-0.109-0.019c-0.001,0.002-0.227,1.313-0.378,1.969l0.109,0.024l0.089-0.064
		c0,0-0.158-0.214-0.376-0.603c-0.218-0.387-0.498-0.947-0.73-1.631c-0.161-0.468-0.217-0.945-0.218-1.366
		c-0.007-0.79,0.171-1.38,0.17-1.381L63.973,47.529l-0.015,0.108L63.973,47.529l-0.106-0.031c-0.004,0.007-0.187,0.623-0.182,1.446
		c0.004,0.439,0.061,0.938,0.23,1.435c0.48,1.397,1.134,2.287,1.139,2.292l0.145,0.196l0.052-0.236
		c0.153-0.667,0.38-1.979,0.38-1.979l0.001-0.004l0.001-0.003c0.032-0.262,0.046-0.501,0.045-0.722
		c-0.007-1.126-0.421-1.765-0.844-2.106c-0.419-0.343-0.835-0.395-0.849-0.396l-0.092-0.012l-0.026,0.09L63.973,47.529z"/>
	<path fill="#FFFFFF" d="M62.852,50.315l-0.109-0.017c-0.002,0.003-0.168,1.083-0.16,2.321c0.016,1.321,0.198,2.831,1.085,3.42
		l0.106,0.07l0.055-0.117c0.001-0.007,0.747-1.627,0.741-2.882c-0.001-0.287-0.043-0.559-0.151-0.787
		c-0.534-1.161-1.483-2.082-1.489-2.087l-0.153-0.151l-0.033,0.213L62.852,50.315l-0.078,0.078c0,0,0.23,0.224,0.528,0.591
		c0.299,0.368,0.66,0.875,0.918,1.43c0.088,0.19,0.125,0.433,0.127,0.698c0.012,1.174-0.723,2.787-0.721,2.79l0.101,0.045
		l0.062-0.091c-0.755-0.472-0.982-1.935-0.983-3.238c-0.009-1.218,0.156-2.284,0.155-2.287L62.852,50.315l-0.078,0.078
		L62.852,50.315z"/>
	<path fill="#FFFFFF" d="M68.109,52.45l-0.105-0.033c0,0.003-0.348,1.061-0.911,2.273c-0.562,1.211-1.351,2.571-2.187,3.151
		c0.002-0.001-0.33,0.22-0.767,0.451c-0.435,0.233-0.979,0.473-1.373,0.51l0.01,0.109l0.103,0.046c0-0.002,0.292-0.634,0.885-1.567
		c0.59-0.936,1.479-2.166,2.656-3.354l-0.078-0.076l0.072,0.083l1.768-1.51L68.109,52.45l-0.105-0.033L68.109,52.45l-0.072-0.082
		l-1.771,1.512l-0.004,0.004c-2.39,2.401-3.583,4.976-3.586,4.981l-0.081,0.174l0.192-0.018c0.904-0.096,2.235-0.997,2.245-0.999
		c1.799-1.266,3.173-5.528,3.181-5.538l0.122-0.373l-0.299,0.257L68.109,52.45z"/>
	<path fill="#FFFFFF" d="M60.625,60.861l0.07,0.083c0.009-0.008,1.912-1.568,1.896-4.14l-0.017-0.388
		c-0.126-1.548-0.155-2.338-0.157-2.729l0.006-0.294l0.005-0.057l0.082-0.402l-0.274,0.307c-0.009,0.013-1.533,1.725-1.548,4.62
		c-0.006,1.425-0.05,2.172-0.092,2.558c-0.02,0.193-0.041,0.297-0.054,0.346l-0.013,0.036l0.07,0.033l-0.049-0.057l-0.021,0.023
		l0.07,0.033l-0.049-0.057l0.144,0.166L60.625,60.861l0.073,0.081c0.051-0.061,0.069-0.097,0.119-0.5
		c0.043-0.399,0.086-1.15,0.093-2.58c0.005-1.407,0.381-2.527,0.753-3.297c0.187-0.384,0.374-0.68,0.512-0.878
		c0.14-0.199,0.229-0.298,0.229-0.298l-0.084-0.074l-0.109-0.021c-0.003,0.016-0.016,0.088-0.013,0.396
		c0.001,0.4,0.033,1.193,0.158,2.745l0.016,0.37c0.007,1.229-0.446,2.221-0.904,2.909c-0.229,0.344-0.457,0.609-0.63,0.79
		c-0.172,0.18-0.283,0.27-0.283,0.271L60.625,60.861l0.073,0.081L60.625,60.861z"/>
	<path fill="#FFFFFF" d="M60.192,58.484l-0.11,0.015c0,0,0.054,0.406,0.058,1c0.011,1.042-0.147,2.652-0.987,3.602
		c-0.683,0.776-1.145,1.229-1.433,1.481l-0.308,0.254l-0.084,0.057l0.053,0.097l0.111,0.004c0-0.001,0.022-0.491,0.172-1.221
		c0.148-0.732,0.423-1.695,0.925-2.629c0.51-0.942,0.932-1.59,1.226-2.001c0.296-0.411,0.459-0.581,0.459-0.582L60.192,58.484
		l-0.11,0.015L60.192,58.484l-0.08-0.074c-0.007,0.008-0.694,0.73-1.718,2.629c-1.03,1.92-1.122,3.936-1.124,3.944l-0.009,0.194
		l0.173-0.092c0.02-0.013,0.507-0.276,1.885-1.841c0.906-1.035,1.047-2.684,1.044-3.747c-0.004-0.606-0.06-1.023-0.06-1.027
		l-0.031-0.228l-0.16,0.167L60.192,58.484z"/>
	<path fill="#FFFFFF" d="M60.135,62.926l0.095,0.059c0.001-0.002,0.394-0.623,0.965-1.36c0.572-0.735,1.325-1.581,2.018-2.014
		c1.427-0.889,2.584-1.363,2.588-1.366l-0.044-0.102l-0.097-0.052c0,0.001-0.438,0.787-0.955,1.607
		c-0.505,0.817-1.131,1.685-1.372,1.777c-0.614,0.276-2.413,1.079-2.414,1.08l0.044,0.101l-0.034-0.104l-0.826,0.271L60.135,62.926
		l0.095,0.059L60.135,62.926l0.035,0.104l0.827-0.271l0.005-0.002l0.006-0.001c0,0,1.8-0.805,2.415-1.081
		c0.377-0.182,0.941-1.031,1.469-1.861c0.52-0.826,0.961-1.617,0.962-1.618l0.152-0.274l-0.292,0.121
		c-0.004,0-1.179,0.483-2.618,1.381c-1.471,0.924-3.048,3.439-3.055,3.445l-0.163,0.257l0.292-0.096L60.135,62.926z"/>
	<path fill="#FFFFFF" d="M62.386,63.656l-0.099-0.051c0,0.002-0.357,0.682-0.958,1.363c-0.603,0.687-1.439,1.355-2.367,1.358
		l-0.257-0.015c-2.105-0.26-2.248-0.278-2.249-0.278l-0.016,0.109l0.072,0.083c0.001-0.001,0.61-0.519,1.35-1.063
		c0.737-0.545,1.621-1.116,2.107-1.212c0.747-0.156,1.674-0.184,2.131-0.187c0.177-0.002,0.282,0.001,0.282,0.001L62.386,63.656
		l-0.099-0.051L62.386,63.656l0.004-0.109c-0.002,0-0.111-0.003-0.291-0.002c-0.465,0.003-1.398,0.031-2.174,0.19
		c-1.125,0.242-3.544,2.321-3.557,2.323l-0.189,0.162l0.247,0.03c0.002,0,0.146,0.019,2.254,0.28l0.283,0.016
		c2.073-0.033,3.511-2.838,3.522-2.84l0.083-0.155l-0.179-0.005L62.386,63.656z"/>
	<path fill="#FFFFFF" d="M57.396,61.965l-0.11-0.021c0.001,0.002-0.164,0.829-0.58,1.802c-0.415,0.974-1.081,2.084-2.059,2.642
		c-1.299,0.747-1.756,0.873-1.853,0.868l-0.016-0.001l-0.019,0.072h0.066l-0.048-0.072l-0.019,0.072h0.066h-0.111l0.096,0.057
		c0-0.001,0.352-0.579,0.802-1.248c0.447-0.669,0.997-1.433,1.371-1.782c0.78-0.729,2.484-2.305,2.486-2.309L57.396,61.965
		l-0.11-0.021L57.396,61.965l-0.076-0.081c0,0-1.707,1.579-2.486,2.31c-0.807,0.756-2.209,3.071-2.214,3.076l-0.015,0.025
		l0.001,0.032l0.049,0.104l0.14,0.044c0.209-0.007,0.645-0.149,1.963-0.898c2.089-1.208,2.738-4.583,2.747-4.592l0.066-0.333
		l-0.251,0.231L57.396,61.965z"/>
	<path fill="#FFFFFF" d="M54.073,63.8l-0.044-0.101c-0.007,0.005-2.508,1.112-3.664,2.768c-1.129,1.619-1.66,2.377-1.661,2.379
		l-0.213,0.304l0.344-0.138c0.001-0.001,1.896-0.765,2.611-1.126c0.758-0.392,1.647-1.739,2.007-2.477
		c0.349-0.721,0.721-1.564,0.723-1.565l0.114-0.262l-0.261,0.117L54.073,63.8l-0.102-0.045c0,0.002-0.371,0.844-0.72,1.562
		c-0.332,0.701-1.252,2.051-1.906,2.373c-0.693,0.354-2.592,1.116-2.593,1.118l0.041,0.101l0.091,0.063c0,0,0.531-0.761,1.661-2.379
		c0.549-0.789,1.444-1.467,2.2-1.942c0.758-0.476,1.372-0.749,1.372-0.751L54.073,63.8l-0.102-0.045L54.073,63.8z"/>
	<path fill="#FFFFFF" d="M57.774,68.043l0.085-0.069c-0.008-0.008-0.831-0.991-2.083-0.988c-0.219,0.001-0.45,0.035-0.691,0.107
		c-1.545,0.479-3.047,0.98-3.047,0.98l-0.136,0.047l0.077,0.118c0.011,0.004,0.958,1.502,2.289,1.508
		c0.197-0.002,0.4-0.038,0.606-0.119c1.521-0.592,2.955-1.488,2.958-1.49l0.108-0.067l-0.082-0.096L57.774,68.043l-0.057-0.092
		c-0.004,0.001-1.429,0.89-2.921,1.472c-0.184,0.071-0.36,0.103-0.53,0.104c-0.574,0.005-1.103-0.339-1.486-0.697
		c-0.383-0.354-0.613-0.71-0.615-0.71l-0.093,0.059l0.035,0.105c0.003-0.002,1.502-0.503,3.044-0.979
		c0.219-0.068,0.43-0.098,0.627-0.099c0.563-0.004,1.043,0.222,1.381,0.451c0.34,0.231,0.529,0.459,0.532,0.459L57.774,68.043
		l-0.057-0.092L57.774,68.043z"/>
	<path fill="#FFFFFF" d="M53.129,70.209c0,0-1.828-1.736-3.221-1.24c-1.394,0.494-1.578,0.45-1.578,0.45s0.842,1.836,2.16,1.714
		C51.808,71.011,53.129,70.209,53.129,70.209z"/>
</g>
</svg>
