<?xml version="1.0" encoding="utf-8"?>
<!-- Generator: Adobe Illustrator 16.0.4, SVG Export Plug-In . SVG Version: 6.00 Build 0)  -->
<!DOCTYPE svg PUBLIC "-//W3C//DTD SVG 1.1//EN" "http://www.w3.org/Graphics/SVG/1.1/DTD/svg11.dtd">
<svg version="1.1" id="Layer_1" xmlns="http://www.w3.org/2000/svg" xmlns:xlink="http://www.w3.org/1999/xlink" x="0px" y="0px"
	 width="168px" height="70px" viewBox="0 0 168 70" enable-background="new 0 0 168 70" xml:space="preserve">
<g>
	<path fill="#D18A00" d="M84.683,3.613l0.004-2.974c0-0.296-0.241-0.542-0.542-0.542S83.6,0.339,83.6,0.635l-0.008,2.974
		c0,0.3,0.241,0.542,0.542,0.542S84.679,3.909,84.683,3.613z"/>
	<path fill="#D18A00" d="M83.236,2.251l1.979-0.076c0.297-0.013,0.533-0.262,0.521-0.559c-0.013-0.3-0.262-0.533-0.566-0.52
		l-1.976,0.076c-0.3,0.013-0.533,0.262-0.52,0.558C82.687,2.027,82.936,2.259,83.236,2.251z"/>
	<g>
		<path fill="#E7C685" d="M68.277,21.495l31.906-0.004l-0.051,25.454c0,0-2.044,14.202-15.852,14.727
			C70.477,62.196,68.058,46.95,68.058,46.95L68.277,21.495z"/>
		<path fill="#D18A00" d="M81.857,8.06c0,0,1.143-3.055,2.238-3.093c1.091-0.042,2.289,3.093,2.289,3.093H81.857z"/>
		<path fill="#D18A00" d="M59.609,31.932c0,0-2.509,3.219,0.076,7.184c0,0,1.692-2.771,1.066-4.294
			C60.117,33.298,59.609,31.932,59.609,31.932z"/>
		<path fill="#D18A00" d="M57.553,37.109c0,0-1.345,4.058,1.658,6.884c0,0,0.453-2.572,0.36-3.186
			c-0.089-0.618-1.151-2.59-1.451-2.94C57.824,37.512,57.553,37.109,57.553,37.109z"/>
		<path fill="#D18A00" d="M60.734,38.718c0,0,0.123-4.599,3.274-5.284c0,0,0.554,2.957-1.079,3.85L60.734,38.718z"/>
		<path fill="#D18A00" d="M62.926,38.172c0,0-3.312,0.541-2.855,5.144c0,0,2.323-0.258,2.737-3.456L62.926,38.172z"/>
		<path fill="#D18A00" d="M56.872,43.223c0,0,3.076,0.613,4.07,6.688c0,0-1.718-0.25-3.401-4.116L56.872,43.223z"/>
		<path fill="#D18A00" d="M62.558,42.537c0,0-2.191,0.449-1.772,3.706c0,0,0.267,1.489,0.44,2.233c0,0,0.741-1.074,1.286-2.703
			C63.049,44.141,62.558,42.537,62.558,42.537z"/>
		<path fill="#D18A00" d="M63.853,45.63c0,0,0.829,5.221-0.986,6.549c0,0-1.294-2.699-0.694-4.053
			C62.77,46.772,63.853,45.63,63.853,45.63z"/>
		<path fill="#D18A00" d="M57.815,48.583c0,0,1.62,4.764,3.625,5.994c0,0,1.544,0.901,2.521,0.914c0,0-1.375-2.826-4.112-5.343
			L57.815,48.583z"/>
		<path fill="#D18A00" d="M66.441,57.526c0,0-2.373-1.752-2.128-4.916c0.246-3.165,0.157-3.588,0.157-3.588s1.739,1.803,1.764,5.077
			C66.259,57.378,66.441,57.526,66.441,57.526z"/>
		<path fill="#D18A00" d="M66.932,54.759c0,0-0.465,3.63,1.113,5.293c1.582,1.658,2.136,1.907,2.136,1.907s-0.114-2.292-1.291-4.369
			C67.715,55.513,66.932,54.759,66.932,54.759z"/>
		<path fill="#D18A00" d="M67.008,59.853c0,0-1.828-2.737-3.473-3.625c-1.654-0.893-3-1.333-3-1.333s2.035,3.461,2.746,3.715
			c0.711,0.258,2.779,1.011,2.779,1.011L67.008,59.853z"/>
		<path fill="#D18A00" d="M64.428,60.906c0,0,1.836,3.32,4.251,2.821c2.416-0.495,2.585-0.533,2.585-0.533s-2.813-2.157-4.032-2.306
			C66.014,60.737,64.428,60.906,64.428,60.906z"/>
		<path fill="#D18A00" d="M70.156,58.486c0,0,0.778,3.795,3.109,4.933c2.327,1.138,2.28,0.782,2.28,0.782s-1.625-2.533-2.526-3.295
			C72.119,60.141,70.156,58.486,70.156,58.486z"/>
		<path fill="#D18A00" d="M73.976,60.28c0,0,2.869,1.04,4.167,2.792c1.299,1.751,1.913,2.576,1.913,2.576s-2.183-0.698-2.991-1.041
			c-0.812-0.343-1.853-1.806-2.255-2.602C74.407,61.215,73.976,60.28,73.976,60.28z"/>
		<path fill="#D18A00" d="M69.737,65.505c0,0,1.278-1.62,3.05-1.223c1.772,0.401,3.503,0.837,3.503,0.837s-1.443,2.34-3.173,1.807
			C71.387,66.397,69.737,65.505,69.737,65.505z"/>
		<path fill="#D18A00" d="M75.021,67.62c0,0,2.094-2.171,3.693-1.73c1.604,0.436,1.815,0.368,1.815,0.368s-0.96,2.187-2.475,2.17
			C76.54,68.415,75.021,67.62,75.021,67.62z"/>
		<path fill="#D18A00" d="M108.645,30.515c0,0,2.496,3.029-0.11,7.191c0,0-1.68-2.64-1.045-4.213
			C108.128,31.919,108.645,30.515,108.645,30.515z"/>
		<path fill="#D18A00" d="M110.679,35.536c0,0,1.333,3.955-1.688,7.01c0,0-0.44-2.534-0.347-3.16
			c0.089-0.622,1.159-2.674,1.459-3.046C110.404,35.963,110.679,35.536,110.679,35.536z"/>
		<path fill="#D18A00" d="M107.489,37.389c0,0-0.102-4.594-3.253-5.034c0,0-0.571,2.995,1.066,3.765L107.489,37.389z"/>
		<path fill="#D18A00" d="M105.303,37.008c0,0,3.312,0.292,2.834,4.929c0,0-2.322-0.08-2.725-3.249L105.303,37.008z"/>
		<path fill="#D18A00" d="M111.335,41.599c0,0-3.075,0.85-4.091,7.001c0,0,1.718-0.381,3.409-4.374L111.335,41.599z"/>
		<path fill="#D18A00" d="M105.653,41.345c0,0,2.188,0.283,1.756,3.574c0,0-0.267,1.511-0.448,2.268c0,0-0.736-1.015-1.273-2.605
			C105.154,42.99,105.653,41.345,105.653,41.345z"/>
		<path fill="#D18A00" d="M104.347,44.538c0,0-0.847,5.284,0.964,6.478c0,0,1.299-2.801,0.707-4.108
			C105.425,45.601,104.347,44.538,104.347,44.538z"/>
		<path fill="#D18A00" d="M110.37,47.03c0,0-1.637,4.891-3.646,6.273c0,0-1.548,1.02-2.525,1.108c0,0,1.388-2.936,4.129-5.66
			L110.37,47.03z"/>
		<path fill="#D18A00" d="M101.711,56.634c0,0,2.382-1.934,2.148-5.077c-0.236-3.147-0.147-3.574-0.147-3.574
			s-1.743,1.929-1.777,5.207C101.896,56.473,101.711,56.634,101.711,56.634z"/>
		<path fill="#D18A00" d="M101.232,53.904c0,0,0.453,3.597-1.134,5.377c-1.591,1.781-2.145,2.073-2.145,2.073
			s0.123-2.302,1.303-4.472C100.441,54.717,101.232,53.904,101.232,53.904z"/>
		<path fill="#D18A00" d="M101.131,59.007c0,0,1.845-2.881,3.494-3.896c1.654-1.016,3-1.557,3-1.557s-2.044,3.612-2.759,3.922
			c-0.706,0.312-2.779,1.223-2.779,1.223L101.131,59.007z"/>
		<path fill="#D18A00" d="M103.712,59.861c0,0-1.849,3.46-4.261,3.147c-2.419-0.313-2.584-0.339-2.584-0.339
			s2.825-2.373,4.044-2.614C102.125,59.811,103.712,59.861,103.712,59.861z"/>
		<path fill="#D18A00" d="M97.992,57.877c0,0-0.791,3.854-3.126,5.17c-2.336,1.315-2.289,0.956-2.289,0.956s1.642-2.657,2.542-3.49
			C96.021,59.68,97.992,57.877,97.992,57.877z"/>
		<path fill="#D18A00" d="M94.163,59.963c0,0-2.868,1.261-4.175,3.109c-1.312,1.853-1.93,2.72-1.93,2.72s2.188-0.862,3-1.269
			c0.812-0.402,1.861-1.946,2.263-2.771C93.732,60.927,94.163,59.963,94.163,59.963z"/>
		<path fill="#D18A00" d="M98.386,64.866c0,0-1.273-1.527-3.046-0.99c-1.777,0.533-3.507,1.1-3.507,1.1s1.434,2.233,3.164,1.569
			C96.731,65.881,98.386,64.866,98.386,64.866z"/>
		<path fill="#D18A00" d="M93.093,67.383l0.089-0.093c-0.013-0.005-1.611-1.574-3.173-1.582c-0.22,0-0.436,0.029-0.646,0.105
			c-1.346,0.47-1.709,0.499-1.756,0.499v0.038l0.013-0.038h-0.013v0.038l0.013-0.038l-0.25-0.06l0.102,0.237
			c0.013,0,0.889,2.039,2.449,2.064l0.145-0.009c1.561-0.135,3.084-1.053,3.097-1.058l0.14-0.084l-0.119-0.114L93.093,67.383
			l-0.067-0.11c0,0-0.372,0.225-0.935,0.466s-1.312,0.495-2.048,0.559l-0.123,0.004c-0.651,0.004-1.209-0.461-1.607-0.947
			c-0.389-0.482-0.608-0.969-0.608-0.969l-0.114,0.051l-0.03,0.122l0.047,0.009c0.118-0.004,0.482-0.047,1.84-0.517
			c0.178-0.062,0.368-0.088,0.562-0.088c0.694-0.005,1.447,0.367,2.026,0.748c0.576,0.381,0.969,0.762,0.969,0.762L93.093,67.383
			l-0.067-0.11L93.093,67.383z"/>
		<path fill="#D18A00" d="M68.277,21.495v0.719l31.179-0.004l-0.051,24.735h0.728l-0.72-0.102l-0.021,0.14
			c-0.127,0.724-0.834,4.154-3.051,7.403c-2.229,3.249-5.863,6.316-12.086,6.565c-0.229,0.009-0.448,0.013-0.668,0.013
			c-6.299-0.013-9.916-3.464-12.091-7.018c-1.074-1.772-1.76-3.566-2.17-4.903c-0.208-0.673-0.347-1.227-0.432-1.616
			c-0.042-0.19-0.072-0.343-0.093-0.444l-0.025-0.144l-0.719,0.11l0.728,0.008l0.22-25.458L68.277,21.495v0.719V21.495l-0.728-0.008
			l-0.22,25.518l0.009,0.06c0.013,0.051,0.605,3.807,2.915,7.623c2.293,3.815,6.439,7.729,13.334,7.721
			c0.241,0,0.478-0.005,0.719-0.018c7.171-0.258,11.396-4.149,13.698-7.902c2.318-3.752,2.839-7.382,2.847-7.441l0.009-0.051
			l0.051-26.229l-33.353,0.008l-0.008,0.711L68.277,21.495z"/>
		<path fill="#D18A00" d="M79.467,13.631c-1.07-0.178-0.896-1.396-0.896-1.396s-0.025-1.709,1.501-1.984
			c1.527-0.275,2.208,0.576,2.208,0.576l-0.334-2.25c-5.774,0.114-7.746,3.316-7.746,3.316l0.33,0.267c0,0,2.949-2.395,2.771,2.052
			l-0.342-0.034c-1.011,0.004-1.866,0.884-1.908,1.963c-0.038,1.083,0.749,1.958,1.76,1.954c1.016-0.004,1.87-0.884,1.908-1.967
			c0.008-0.195-0.013-0.389,0.008-0.571c0.114,0.952,0.872,1.675,1.802,1.671c1.049-0.004,1.929-0.914,1.971-2.035
			c0.042-1.117-0.774-2.022-1.819-2.018C80.229,13.174,79.801,13.347,79.467,13.631z M88.854,13.601
			c-0.317-0.283-0.728-0.453-1.181-0.453c-1.049,0.004-1.929,0.914-1.972,2.035c-0.042,1.117,0.774,2.022,1.819,2.018
			c0.939-0.004,1.743-0.732,1.93-1.684c0.008,0.182-0.025,0.376-0.034,0.575c-0.042,1.083,0.749,1.955,1.76,1.95
			c1.011-0.004,1.865-0.88,1.903-1.963c0.043-1.083-0.748-1.954-1.755-1.95l-0.348,0.034c0.148-4.446,2.928-2.069,2.928-2.069
			l0.343-0.275c0,0-1.734-3.19-7.501-3.257l-0.503,2.25c0,0,0.749-0.859,2.255-0.592s1.357,1.976,1.357,1.976s0.081,1.214-0.981,1.4
			L88.854,13.601z M80.546,7.67l3.926-0.156l3.871,0.156c4.548-0.017,6.857,3.52,6.857,3.52c1.252-1.896,3.761-1.456,3.761-1.456
			l-3.82,7.666c0,0,0.973,0.99-0.169,2.25c-1.143,1.265-0.584,1.984-0.584,1.984l-20.97,0.072c0,0,0.613-0.723-0.436-1.979
			c-1.045-1.256,0-2.25,0-2.25l-3.257-7.641c0,0,2.547-0.461,3.655,1.426C73.379,11.262,75.592,7.674,80.546,7.67z"/>
		<path fill="#D18A00" d="M81.037,8.296l0.051-0.173c0.118-0.411,0.457-1.46,0.998-2.374c0.271-0.457,0.588-0.88,0.931-1.172
			c0.343-0.296,0.686-0.453,1.062-0.47h0.051c0.41,0,0.799,0.187,1.188,0.538c0.58,0.52,1.079,1.383,1.409,2.115
			c0.165,0.364,0.292,0.694,0.376,0.931c0.085,0.232,0.123,0.368,0.123,0.368l1.045-0.296c-0.009-0.025-0.33-1.138-0.978-2.284
			c-0.325-0.576-0.728-1.164-1.239-1.629s-1.163-0.821-1.925-0.821h-0.097c-0.774,0.03-1.421,0.419-1.925,0.914
			c-1.494,1.489-2.103,4.053-2.124,4.091L81.037,8.296z"/>
		<path fill="#D18A00" d="M73.4,28.797l0.081,0.334l0.588-0.14l0.208,0.059l0.38-0.14l0.241-0.351l0.406-0.453l0.081-0.152
			l0.105-0.465l0.322-0.389l0.44-0.211l0.013-0.009l0.444-0.241l0.072,0.102l0.309,0.144l1.185-0.089l0.233-0.114l0.444-0.491
			l0.521-0.41l0.034-0.03l0.563-0.58l0.25-0.156l1.32,0.072l0.14-0.021l0.969-0.351l0.055-0.025l0.418-0.241l0.076-0.055
			l0.394-0.397l0.199-0.047l0.246,0.195l0.11,0.059L85,24.444h0.221l1.023-0.343l0.178-0.029l0.254,0.355l0.245,0.144l0.562,0.055
			l0.317,0.177l0.245,0.038l0.381-0.084l0.203,0.102l0.076,0.157l0.301,0.199l0.795,0.038l0.06,0.207l0.102,0.161l0.677,0.605
			l0.274,0.088l0.533-0.063l0.635,0.126l0.453,0.309l0.084,0.444l-0.038,0.583l0.043,0.19l0.16,0.292l0.203,0.474l0.334,0.212
			l0.462-0.017l0.109,0.08l0.034,0.872v0.038l0.109,0.732l-0.151,0.267l-0.038,0.102l-0.089,0.406l0.004,0.148l0.093,0.397
			l-0.22,0.338l-0.051,0.208l0.072,1.167l-0.254,0.317l-0.009,0.013l-0.339,0.461l-0.051,0.11l-0.08,0.279l-0.287,0.093
			l-0.229,0.246l-0.19,0.749L91.93,35.9l-0.245,0.114l-0.292,0.326l-0.009,0.008l-0.512,0.605l-0.524,0.301l-0.579,0.292
			l-0.081,0.051l-0.673,0.613l-0.033,0.033l-0.673,0.791l-0.013,0.013l-0.355,0.475l-0.448,0.338l-0.326,0.203l-0.309,0.085
			l-0.321-0.423l-0.263-0.14l-0.274,0.114l-0.297,0.325l-0.093,0.225l-0.046,2.932v0.008l0.076,6.532v0.025l0.16,1.861L85.715,53.3
			v0.038l0.043,0.762l0.042,0.147l0.292,0.529l0.004,0.004l0.377,0.66l0.004,0.009l0.88,1.455l0.123,0.118l0.156,0.089l0.03,0.161
			l-0.123,0.203l-1.739,0.659l-0.033,0.013l-0.385,0.195l0.16,0.309l0.038-0.343c-0.008,0-0.566-0.063-1.02-0.063l-0.38,0.025
			l-0.199,0.063c-0.067,0.025-0.22,0.14-0.224,0.347l0.055,0.194l0.25-0.14h-0.288l0.038,0.145l0.25-0.145h-0.288h0.309
			l-0.114-0.287l-0.194,0.287h0.309l-0.114-0.287l0.055,0.144v-0.16l-0.055,0.017l0.055,0.144v-0.16
			c-0.042,0.004-0.279-0.043-0.465-0.094c-0.19-0.051-0.347-0.102-0.347-0.102l-0.03-0.008l-0.673-0.157l-0.723-0.165l-0.224-0.287
			v-0.355l1.658-2.226l0.055-0.105l0.169-0.546l0.013-0.08l0.089-1.308v-0.008l0.089-2.077v-0.013l0.004-0.948V49.94l-0.279-8.359
			l0.004-0.808l-0.008-0.06l-0.123-0.715l-0.11-0.198L82.788,39.5l-0.246-0.089l-0.381,0.013l-0.313,0.232l-0.131,0.364
			l-0.017,0.144l0.03,0.343l-0.03,0.034l-0.106,0.017l-0.969-0.766l-0.63-0.512l-0.118-0.063l-1.016-0.313l-0.605-0.321l-0.14-0.038
			l-0.232-0.017l-0.114-0.195l0.042-1.027l-0.203-0.326l-0.495-0.229l-0.3-0.266l-0.148-0.081l-0.461-0.118l-0.046-0.009
			l-0.508-0.051l-0.372-0.389l-0.157-0.093l-0.186-0.051l-0.025-0.3l-0.161-0.266l-0.283-0.178l-0.038-0.047l0.017-0.076
			l-0.186-0.372l-0.364-0.182l0.093-0.71l-0.013-0.14l-0.165-0.58c-0.055-0.182-0.246-0.288-0.427-0.237l-0.148,0.038v-0.055
			l0.3-0.372l0.055-0.093l0.173-0.457l0.021-0.118l0.004-0.859l-0.017-0.097l-0.165-0.58l-0.009-0.013l-0.148-0.436v-0.237
			l0.233-0.33L73.4,28.797l0.081,0.334L73.4,28.797l-0.288-0.199l-0.296,0.415l-0.063,0.199v0.406l0.021,0.114l0.165,0.478
			l0.148,0.524v0.745l-0.131,0.347l-0.338,0.423l-0.08,0.216l-0.004,0.63l0.14,0.275l0.3,0.059l0.262-0.067l0.051,0.182l-0.118,0.88
			l0.19,0.351l0.588,0.296l0.156-0.309l-0.342-0.063l-0.042,0.225l0.063,0.275l0.169,0.22l0.089,0.081l0.19,0.123l0.03,0.364
			l0.25,0.309l0.33,0.094l0.397,0.41l0.216,0.102l0.605,0.063l0.355,0.089l0.271,0.245l0.089,0.06l0.334,0.152l-0.034,0.896
			l0.047,0.187l0.254,0.439l0.279,0.174l0.343,0.025l0.567,0.3l0.06,0.025l0.985,0.301l0.58,0.474l0.004,0.004l1.091,0.859
			l0.271,0.071l0.38-0.059l0.203-0.11l0.211-0.232l0.089-0.263l-0.034-0.423l0.025-0.072l0.14-0.004l-0.013-0.347l-0.233,0.258
			l0.246,0.225l0.097,0.566l-0.004,0.778l0.004,0.013l0.279,8.364l-0.004,0.935l-0.084,2.064l-0.089,1.265l-0.14,0.453l-1.692,2.271
			l-0.068,0.203v0.588l0.072,0.207l0.376,0.482l0.199,0.127l0.842,0.19l0.672,0.156l0.076-0.338L83,58.893
			c0.004,0,0.173,0.055,0.38,0.114c0.216,0.051,0.44,0.114,0.647,0.114l0.203-0.034c0.081-0.013,0.254-0.169,0.245-0.352
			l-0.055-0.198l-0.262,0.144h0.3l-0.038-0.144l-0.262,0.144h0.3h-0.292l0.14,0.267l0.152-0.267h-0.292l0.14,0.267l-0.068-0.127
			l0.047,0.136l0.021-0.009l-0.068-0.127l0.047,0.136l0.279-0.018c0.394,0,0.943,0.056,0.943,0.056l0.194-0.034l0.368-0.187
			l1.832-0.693l0.178-0.144l0.254-0.415l0.042-0.245l-0.084-0.444l-0.165-0.236l-0.221-0.123l-0.833-1.379l-0.372-0.656
			l-0.305,0.174l0.309-0.169l-0.258-0.462l-0.038-0.664l0.089-1.696v-0.051l-0.165-1.87l-0.072-6.511l0.047-2.796l0.207-0.232
			l-0.258-0.232l-0.279,0.207l0.461,0.613l0.368,0.127l0.593-0.156l0.093-0.043l0.385-0.236l0.025-0.018l0.499-0.38l0.068-0.068
			l0.376-0.503l0.656-0.766l0.621-0.563l0.546-0.274l0.018-0.009l0.588-0.338l0.097-0.076l0.546-0.647l0.19-0.211l0.397-0.018
			l0.326-0.262l0.207-0.817l0.283-0.093l0.225-0.233l0.11-0.397l0.296-0.406l0.334-0.41l0.076-0.237l-0.076-1.193l0.232-0.368
			l0.047-0.262l-0.105-0.461l0.055-0.279l0.187-0.321l0.042-0.224L94.62,29.77l-0.038-1.011l-0.135-0.262l-0.339-0.258l-0.224-0.072
			l-0.352,0.013l-0.114-0.267l-0.017-0.029l-0.119-0.22l0.038-0.533l-0.008-0.089l-0.123-0.63l-0.144-0.216l-0.631-0.427
			l-0.131-0.055l-0.757-0.148l-0.106-0.008l-0.432,0.051l-0.481-0.432l-0.098-0.351l-0.321-0.254l-0.842-0.038l-0.034-0.076
			l-0.161-0.161l-0.423-0.211l-0.229-0.025l-0.376,0.076l-0.263-0.144l-0.135-0.042l-0.475-0.051L86.87,23.5l-0.334-0.144
			l-0.423,0.063l-0.06,0.013l-0.947,0.322l-0.588-0.19l-0.326-0.258l-0.3-0.067l-0.461,0.105l-0.169,0.098l-0.427,0.431
			l-0.355,0.203l-0.875,0.317l-1.358-0.076l-0.207,0.055l-0.381,0.241l-0.063,0.051l-0.575,0.592l-0.524,0.411l-0.042,0.038
			l-0.372,0.41l-0.846,0.063l-0.14-0.19l-0.449-0.102l-0.706,0.385l-0.5,0.241l-0.118,0.089l-0.423,0.512l-0.067,0.144l-0.106,0.457
			l-0.364,0.402l-0.03,0.034l-0.11,0.169l-0.055-0.017h-0.173l-0.677,0.161l-0.203,0.135L73.4,28.797z"/>
		<path fill="#D18A00" d="M74.682,40.643l-0.507-0.208l-0.461,0.241l-0.211,0.279l0.254,0.575l0.63-0.249l0.169-0.321L74.682,40.643
			z M74.602,37.715l0.588,0.292l0.208,0.668l0.592,0.114l0.465-0.512l0.461-0.245l0.461,0.838l0.376,1.336l1.934,1.777l1.726,1.104
			l0.964,0.503l2.276-0.402l4.167-0.474l1.219-0.135l1.35-0.686l0.761-0.567l0.589-1.104l0.004-1.308l-0.212-0.893l-0.207-0.351
			l-0.165-0.804l0.838-0.212l-0.165-0.537l-0.042-0.719l0.715,0.017v-1.261l0.3-0.144l0.081,0.85l0.249,0.263l0.385-1.007
			l0.335-0.283l0.169,0.804l0.08,0.854l0.677-0.072l0.123,1.303l-0.381,0.914l-0.047,1.354L95.429,40.3l-0.461,0.964l-0.508,0.834
			l-0.715,0.655l-1.435,1.134L91.3,44.513l0.376,0.437l0.334,0.575l0.17,0.533l0.042,0.672l0.038,0.225l1.308,1.346l0.545,0.342
			l0.081,0.402l-0.334,0.372l-0.508,0.288l0.042,0.719l0.085,0.943l-0.212,0.368L93.22,52.91l-0.254,0.322l-0.046,0.541
			l-0.254,0.461v0.812l-0.296,0.461l-0.588,0.114l-0.504-0.071l-0.884-0.821l0.042-0.588l1.058-1.121l0.339-0.601V51.7l0.296-0.418
			l-0.085-0.491l-0.503-0.566l-0.292-0.081l-0.17,0.279l0.123,0.444l0.042,0.63l-0.38,0.195l-0.297,0.325l-0.211,0.91l-0.551,0.334
			l-0.376,0.423l-0.169,0.457l-0.089,0.677l-0.923,1.117l-0.634,0.203l-0.758,0.029l-0.55-0.609l1.48-1.946l0.588-0.431l0.842-0.707
			l0.132-0.499l-0.504-0.655L88.3,50.842l-0.715-0.829l-0.211-0.352l-0.208-0.981l-0.715-0.198l-0.63,0.249l-0.635,0.609
			l-0.842,0.482l-1.35,0.232l-0.799,0.076l-0.546,0.246l-1.015,1.658l-0.508,1.058l-0.588,1.281l-0.381,0.825l-0.846,0.889
			l-0.588,0.697l-1.096,0.313l-1.011-0.187l-0.584-0.52l0.081-0.542l0.338-0.06l1.138-0.089l1.053-1.027l0.381-0.647l0.419-0.377
			l0.173-1.404l0.084-0.858l0.254-0.639v-0.588l-1.007-0.229l-0.508,0.198l-0.926,0.034L76.18,50l-0.334,0.013l-0.804-0.194
			l-0.254,0.279l0.042,0.537l0.296,0.351l0.208,0.711L75.122,52.2l-0.423,0.198l-0.546-0.296l-0.715-0.782l-0.207-0.939l0.131-0.905
			l0.503-0.651l0.465-0.377l2.229-0.309l0.376,0.165l0.427-0.105l0.123-0.457l-0.042-0.72l-0.673-0.381l-0.418-0.524l-0.292-1.159
			l-0.376-0.347l-0.25-0.216l-0.719,0.029l-0.677,0.521l-0.545,0.605l-0.461-0.114l-0.376-0.305l-0.423-0.254l-0.292-0.034
			l-0.846,0.17l-0.418-0.301l-0.419-0.524l-0.169-0.444l0.292,0.034l0.55,0.52l0.503,0.208l0.588-0.068l0.55-0.38l0.25-0.284
			l0.465-0.194l0.419-0.063l0.127-0.321l-0.584-0.11l-0.338-0.076l-0.592,0.199l-0.334-0.118l-0.211-0.31l-0.795-0.194L70.68,42.19
			c0,0-0.588-0.114-0.376-0.258c0.208-0.144,0.211-0.415,0.211-0.415l0.63-0.427l0.673-0.343l0.63-0.114l0.592-0.47l0.545-0.516
			l0.55-0.428l0.376-0.152l0.046-0.406l-0.08-0.448L74.602,37.715z"/>
		<path fill="#D18A00" d="M82.306,66.773c-0.004-1.637,0.787-2.99,1.755-3.028c0.978-0.034,1.764,1.265,1.764,2.901
			c0,1.638-0.786,2.991-1.76,3.025C83.092,69.705,82.306,68.411,82.306,66.773z"/>
		<path fill="#D18A00" d="M59.609,31.932l-0.102-0.076c-0.009,0.013-1.117,1.434-1.117,3.571c0,1.099,0.296,2.39,1.189,3.756
			l0.11,0.174l0.106-0.174c0.004-0.013,1.214-1.976,1.223-3.566c0-0.296-0.042-0.584-0.152-0.842
			c-0.63-1.523-1.134-2.881-1.138-2.885l-0.08-0.216l-0.14,0.182L59.609,31.932l-0.119,0.042c0,0,0.508,1.371,1.142,2.898
			c0.089,0.216,0.131,0.469,0.131,0.745c0,0.731-0.292,1.599-0.592,2.272c-0.296,0.677-0.592,1.158-0.592,1.163l0.106,0.063
			l0.11-0.068c-0.867-1.328-1.151-2.567-1.151-3.621c0-1.024,0.267-1.883,0.538-2.479c0.266-0.601,0.529-0.935,0.529-0.939
			L59.609,31.932l-0.119,0.042L59.609,31.932z"/>
		<path fill="#D18A00" d="M57.553,37.109l-0.123-0.042c0,0.009-0.305,0.927-0.305,2.2c0,1.421,0.381,3.295,2.001,4.814l0.169,0.164
			l0.042-0.232c0-0.004,0.373-2.115,0.373-2.99l-0.013-0.237c-0.106-0.682-1.151-2.606-1.481-3.004
			c-0.292-0.343-0.558-0.744-0.558-0.744l-0.148-0.216l-0.08,0.245L57.553,37.109l-0.106,0.068c0,0,0.271,0.41,0.576,0.77
			c0.275,0.309,1.354,2.322,1.421,2.877l0.013,0.199c0,0.824-0.368,2.944-0.368,2.948l0.123,0.021l0.089-0.094
			c-1.552-1.459-1.92-3.253-1.92-4.632c0-1.235,0.296-2.12,0.296-2.12L57.553,37.109l-0.106,0.068L57.553,37.109z"/>
		<path fill="#D18A00" d="M60.734,38.718l0.127,0.004c0-0.004,0.03-1.134,0.449-2.349c0.423-1.218,1.214-2.491,2.729-2.817
			l-0.03-0.123l-0.123,0.025c0,0,0.084,0.47,0.084,1.096c0.004,0.922-0.203,2.132-1.1,2.618h-0.004l-2.204,1.438L60.734,38.718
			l0.127,0.004L60.734,38.718l0.068,0.105l2.2-1.435l-0.072-0.105l0.063,0.11c1.045-0.58,1.231-1.896,1.235-2.839
			c0-0.651-0.093-1.138-0.093-1.142l-0.025-0.131l-0.127,0.03c-3.283,0.74-3.367,5.402-3.376,5.402l-0.008,0.241l0.203-0.131
			L60.734,38.718z"/>
		<path fill="#D18A00" d="M62.926,38.172l-0.021-0.127c-0.013,0.004-0.762,0.127-1.51,0.744c-0.753,0.618-1.498,1.739-1.493,3.685
			c0,0.271,0.013,0.555,0.042,0.854l0.013,0.127l0.127-0.013c0.025-0.004,2.433-0.296,2.852-3.565v-0.005l0.118-1.692l0.009-0.16
			l-0.157,0.025L62.926,38.172l-0.127-0.009l-0.118,1.688l0.127,0.008l-0.127-0.017c-0.208,1.573-0.867,2.398-1.472,2.843
			c-0.305,0.225-0.597,0.352-0.808,0.419c-0.216,0.072-0.343,0.084-0.343,0.084l0.013,0.127l0.127-0.013
			c-0.03-0.291-0.042-0.566-0.042-0.829c0-1.882,0.703-2.91,1.405-3.489c0.347-0.288,0.698-0.462,0.96-0.563
			c0.258-0.097,0.427-0.122,0.427-0.122L62.926,38.172l-0.127-0.009L62.926,38.172z"/>
		<path fill="#D18A00" d="M56.872,43.223l-0.025,0.123c0,0,0.173,0.033,0.465,0.182c0.872,0.44,2.758,1.874,3.503,6.4l0.127-0.017
			l0.017-0.127l-0.263-0.089c-0.524-0.237-1.785-1.07-3.037-3.951l-0.119,0.051l0.123-0.029l-0.668-2.572L56.872,43.223
			l-0.025,0.123L56.872,43.223l-0.123,0.029l0.668,2.585l0.004,0.009c1.692,3.892,3.452,4.184,3.503,4.188l0.169,0.025l-0.03-0.17
			c-0.994-6.117-4.125-6.789-4.167-6.789l-0.199-0.043l0.051,0.194L56.872,43.223z"/>
		<path fill="#D18A00" d="M62.558,42.537l-0.025-0.122c-0.021,0-1.933,0.423-1.929,3.041c0,0.25,0.017,0.517,0.055,0.805v0.004
			v0.004c0,0,0.267,1.485,0.444,2.238l0.063,0.279l0.165-0.237c0.004-0.009,0.753-1.087,1.299-2.737
			c0.199-0.596,0.258-1.18,0.258-1.691c0-0.932-0.207-1.612-0.211-1.621l-0.03-0.109l-0.114,0.025L62.558,42.537l-0.123,0.038
			c0,0,0.199,0.651,0.199,1.545c0,0.49-0.059,1.049-0.245,1.611c-0.271,0.808-0.584,1.48-0.838,1.946
			c-0.25,0.465-0.431,0.728-0.431,0.728l0.105,0.071l0.123-0.029c-0.174-0.736-0.44-2.221-0.44-2.225l-0.123,0.021l0.127-0.013
			c-0.038-0.279-0.055-0.537-0.055-0.774c0.004-1.243,0.444-1.929,0.871-2.322c0.216-0.194,0.436-0.312,0.592-0.385l0.262-0.089
			L62.558,42.537l-0.123,0.038L62.558,42.537z"/>
		<path fill="#D18A00" d="M63.853,45.63l-0.123,0.017c0,0.005,0.187,1.181,0.187,2.556c0.004,1.51-0.246,3.249-1.125,3.875
			l0.076,0.102l0.114-0.051c0,0-0.208-0.44-0.419-1.049c-0.211-0.614-0.419-1.396-0.419-2.069c0-0.312,0.042-0.601,0.148-0.833
			c0.292-0.664,0.707-1.282,1.045-1.73c0.342-0.452,0.609-0.731,0.609-0.731L63.853,45.63l-0.123,0.017L63.853,45.63l-0.093-0.089
			c-0.004,0.009-1.091,1.155-1.701,2.534c-0.123,0.279-0.169,0.597-0.169,0.935c0,1.438,0.858,3.216,0.863,3.224l0.063,0.14
			l0.127-0.093c1.015-0.758,1.218-2.547,1.227-4.078c0-1.396-0.19-2.589-0.19-2.594l-0.038-0.254l-0.182,0.187L63.853,45.63z"/>
		<path fill="#D18A00" d="M57.815,48.583l-0.118,0.038c0.013,0.008,1.603,4.771,3.676,6.062c0.013,0.005,1.548,0.914,2.589,0.936
			l0.207,0.004l-0.093-0.186c-0.004-0.005-1.383-2.848-4.137-5.382l-0.004-0.004l-2.374-1.827l0.136,0.397L57.815,48.583
			l-0.076,0.097l2.035,1.565l0.076-0.097l-0.085,0.093c1.358,1.248,2.377,2.576,3.063,3.592c0.681,1.015,1.015,1.713,1.015,1.713
			l0.119-0.055l0.004-0.123c-0.453-0.008-1.079-0.229-1.578-0.452c-0.503-0.229-0.88-0.448-0.884-0.448
			c-0.956-0.58-1.866-2.069-2.513-3.406c-0.651-1.337-1.054-2.517-1.054-2.521L57.815,48.583l-0.076,0.097L57.815,48.583z"/>
		<path fill="#D18A00" d="M66.441,57.526l0.076-0.102c0,0-0.127-0.094-0.321-0.279c-0.592-0.571-1.773-1.972-1.773-4.078
			l0.017-0.449c0.144-1.827,0.173-2.745,0.173-3.193c0-0.33-0.017-0.41-0.017-0.428l-0.127,0.025l-0.093,0.089
			c0,0,0.102,0.106,0.262,0.321c0.482,0.644,1.451,2.242,1.468,4.671c0.013,1.637,0.063,2.5,0.114,2.953
			c0.06,0.457,0.076,0.495,0.14,0.566L66.441,57.526l0.076-0.102L66.441,57.526l0.081-0.098l-0.055,0.072l0.084-0.043l-0.029-0.029
			l-0.055,0.072l0.084-0.043c-0.017-0.017-0.173-0.499-0.19-3.358c-0.025-3.325-1.785-5.148-1.798-5.161l-0.309-0.317l0.093,0.432
			l0.004,0.059l0.008,0.313c0,0.439-0.029,1.35-0.173,3.177l-0.017,0.466c0,2.944,2.183,4.552,2.196,4.561l0.157-0.199
			L66.441,57.526z"/>
		<path fill="#D18A00" d="M66.932,54.759l-0.127-0.017c0,0.004-0.063,0.512-0.063,1.235c0.004,1.223,0.178,3.067,1.214,4.158
			c1.586,1.667,2.145,1.925,2.174,1.938l0.19,0.089l-0.013-0.207c0-0.013-0.114-2.318-1.307-4.425
			c-1.181-2.09-1.972-2.852-1.976-2.864l-0.187-0.173l-0.034,0.249L66.932,54.759l-0.089,0.089c0.004,0,0.186,0.183,0.524,0.622
			c0.343,0.444,0.83,1.151,1.413,2.184c0.58,1.023,0.897,2.103,1.07,2.927c0.173,0.825,0.203,1.384,0.203,1.388l0.127-0.009
			l0.055-0.113l-0.098-0.056c-0.216-0.14-0.816-0.588-2.001-1.827c-0.952-0.99-1.146-2.788-1.142-3.985
			c0-0.711,0.063-1.201,0.063-1.201L66.932,54.759l-0.089,0.089L66.932,54.759z"/>
		<path fill="#D18A00" d="M67.008,59.853l0.106-0.067c-0.004-0.005-1.824-2.746-3.52-3.668c-1.663-0.896-3.016-1.341-3.021-1.341
			l-0.317-0.106l0.169,0.288c0,0,0.508,0.867,1.108,1.769c0.613,0.905,1.261,1.823,1.701,2.001c0.71,0.258,2.779,1.011,2.784,1.011
			l0.004,0.005l0.956,0.232l0.317,0.08l-0.182-0.271L67.008,59.853l0.034-0.122l-0.952-0.233l-0.03,0.123l0.042-0.118
			c0,0-2.069-0.753-2.779-1.012c-0.271-0.076-0.994-1.015-1.578-1.903c-0.592-0.893-1.1-1.756-1.1-1.756l-0.11,0.063l-0.038,0.118
			c0,0,1.333,0.44,2.974,1.324c0.795,0.428,1.663,1.329,2.318,2.12c0.66,0.786,1.112,1.468,1.117,1.468L67.008,59.853l0.034-0.122
			L67.008,59.853z"/>
		<path fill="#D18A00" d="M64.428,60.906l-0.11,0.059c0.008,0.005,1.582,2.92,3.862,2.94l0.524-0.055
			c2.416-0.495,2.585-0.529,2.585-0.529l0.275-0.059l-0.22-0.165c-0.013-0.005-2.796-2.162-4.1-2.335
			c-0.385-0.047-0.799-0.063-1.193-0.063c-0.876,0-1.637,0.08-1.637,0.08l-0.19,0.021l0.093,0.164L64.428,60.906l0.013,0.122
			c0,0,0.749-0.08,1.612-0.08c0.385,0,0.795,0.017,1.164,0.063c0.554,0.063,1.569,0.635,2.419,1.193
			c0.851,0.554,1.553,1.091,1.553,1.091l0.076-0.102l-0.025-0.122c0,0-0.169,0.033-2.585,0.533l-0.474,0.046
			c-1.02,0.005-1.938-0.686-2.593-1.396c-0.66-0.707-1.045-1.409-1.049-1.413L64.428,60.906l0.013,0.122L64.428,60.906z"/>
		<path fill="#D18A00" d="M70.156,58.486l-0.127,0.025c0.013,0.009,0.766,3.828,3.177,5.021c1.442,0.702,1.971,0.842,2.225,0.846
			l0.178-0.046l0.063-0.132v-0.038l-0.017-0.029c-0.008-0.004-1.625-2.529-2.551-3.325c-0.905-0.762-2.868-2.415-2.868-2.415
			l-0.279-0.237l0.072,0.355L70.156,58.486l-0.084,0.098c0.004,0.004,1.967,1.653,2.868,2.415c0.427,0.364,1.062,1.188,1.578,1.912
			c0.516,0.728,0.922,1.358,0.922,1.358l0.106-0.068h-0.127h0.089l-0.055-0.067l-0.034,0.067h0.089l-0.055-0.067l0.017,0.025
			l-0.004-0.034l-0.013,0.009l0.017,0.025l-0.004-0.034l-0.034,0.005c-0.148,0.004-0.689-0.123-2.111-0.825
			c-1.121-0.541-1.891-1.751-2.369-2.83c-0.478-1.074-0.668-2.01-0.673-2.014L70.156,58.486l-0.084,0.098L70.156,58.486z"/>
		<path fill="#D18A00" d="M73.976,60.28l-0.042,0.118c0,0,0.707,0.258,1.578,0.731c0.871,0.475,1.899,1.168,2.53,2.019
			c1.303,1.751,1.912,2.572,1.912,2.572l0.102-0.072l0.042-0.123c-0.004,0-2.187-0.697-2.982-1.036
			c-0.745-0.301-1.806-1.764-2.191-2.538c-0.397-0.791-0.829-1.722-0.829-1.722L73.976,60.28l-0.042,0.118L73.976,60.28
			l-0.114,0.051c0,0.004,0.431,0.938,0.833,1.734c0.419,0.812,1.443,2.275,2.318,2.656c0.825,0.352,3.004,1.045,3.004,1.045
			l0.376,0.123l-0.237-0.317c0-0.004-0.609-0.82-1.913-2.572c-1.336-1.798-4.213-2.83-4.222-2.839l-0.288-0.105l0.127,0.275
			L73.976,60.28z"/>
		<path fill="#D18A00" d="M69.737,65.505l0.102,0.076c0,0,0.241-0.305,0.664-0.618c0.423-0.312,1.02-0.617,1.718-0.617
			c0.173,0,0.351,0.021,0.537,0.059c1.772,0.402,3.495,0.838,3.499,0.838l0.034-0.123l-0.11-0.067c0,0-0.283,0.461-0.749,0.923
			c-0.465,0.461-1.104,0.905-1.794,0.905l-0.482-0.072c-1.718-0.529-3.355-1.413-3.359-1.413L69.737,65.505l0.102,0.076
			L69.737,65.505l-0.059,0.109c0.004,0.005,1.654,0.897,3.405,1.435c0.187,0.055,0.373,0.084,0.554,0.084
			c1.599-0.021,2.746-1.945,2.763-1.95l0.089-0.144l-0.169-0.042c0,0-1.73-0.436-3.507-0.838c-0.203-0.047-0.402-0.067-0.592-0.067
			c-1.548,0.008-2.572,1.328-2.581,1.337l-0.097,0.114l0.135,0.071L69.737,65.505z"/>
		<path fill="#D18A00" d="M75.021,67.62l0.093,0.084c0,0,0.423-0.439,1.037-0.88c0.609-0.439,1.404-0.871,2.111-0.867l0.419,0.056
			c1.227,0.329,1.646,0.372,1.798,0.372l0.089-0.009l-0.038-0.118l-0.119-0.051c0,0-0.232,0.528-0.647,1.058
			c-0.419,0.533-1.007,1.04-1.692,1.04H78.05c-1.468-0.017-2.966-0.799-2.97-0.799L75.021,67.62l0.093,0.084L75.021,67.62
			l-0.059,0.109c0.009,0.005,1.536,0.809,3.088,0.825h0.021c1.633-0.025,2.564-2.246,2.577-2.246l0.11-0.259l-0.267,0.085
			l0.021,0.063l-0.008-0.063h-0.013l0.021,0.063l-0.008-0.063h-0.025c-0.106,0-0.516-0.038-1.73-0.368l-0.486-0.063
			c-1.607,0.013-3.321,1.823-3.333,1.828l-0.119,0.118l0.152,0.08L75.021,67.62z"/>
		<path fill="#D18A00" d="M108.645,30.515l-0.098,0.08l0.156,0.229c0.297,0.449,0.893,1.553,0.893,3.076
			c-0.004,1.062-0.287,2.332-1.167,3.74l0.105,0.067l0.11-0.067c0,0-0.296-0.457-0.588-1.108s-0.584-1.489-0.58-2.221
			c0-0.279,0.038-0.537,0.131-0.77c0.64-1.574,1.155-2.979,1.155-2.979L108.645,30.515l-0.098,0.08L108.645,30.515l-0.119-0.042
			c-0.004,0.004-0.516,1.405-1.154,2.974c-0.105,0.267-0.152,0.562-0.152,0.863c0.009,1.586,1.206,3.457,1.21,3.465l0.105,0.169
			l0.11-0.169c0.905-1.447,1.205-2.767,1.205-3.875c-0.004-2.12-1.1-3.452-1.108-3.465l-0.14-0.169l-0.076,0.207L108.645,30.515z"/>
		<path fill="#D18A00" d="M110.679,35.536l-0.122,0.038c0,0,0.071,0.211,0.144,0.575c0.072,0.364,0.144,0.884,0.144,1.493
			c0,1.384-0.367,3.22-1.945,4.814l0.093,0.089l0.123-0.021c0-0.004-0.355-2.072-0.355-2.906l0.013-0.211
			c0.071-0.562,1.154-2.657,1.434-2.991c0.305-0.381,0.58-0.808,0.58-0.812L110.679,35.536l-0.122,0.038L110.679,35.536
			l-0.105-0.068c0,0-0.274,0.423-0.566,0.792c-0.326,0.414-1.38,2.424-1.489,3.109l-0.013,0.249c0,0.88,0.359,2.944,0.359,2.949
			l0.042,0.245l0.174-0.178c1.633-1.649,2.018-3.566,2.018-4.992c0-1.256-0.296-2.136-0.296-2.145l-0.089-0.254l-0.14,0.224
			L110.679,35.536z"/>
		<path fill="#D18A00" d="M107.489,37.389l0.127-0.004c-0.009,0-0.072-4.662-3.363-5.157l-0.118-0.017l-0.021,0.119
			c-0.004,0.004-0.097,0.516-0.102,1.18c0.005,0.943,0.19,2.225,1.235,2.725l0.056-0.114l-0.068,0.11l2.391,1.379l-0.009-0.225
			L107.489,37.389l0.067-0.109l-2.199-1.27v-0.004c-0.885-0.406-1.092-1.574-1.092-2.496c0-0.639,0.098-1.134,0.098-1.134
			l-0.127-0.021l-0.017,0.123c1.506,0.211,2.288,1.413,2.707,2.602c0.41,1.181,0.432,2.31,0.436,2.31H107.489l0.067-0.109
			L107.489,37.389z"/>
		<path fill="#D18A00" d="M105.303,37.008l-0.013,0.127c0,0,0.164,0.013,0.423,0.094c0.782,0.245,2.335,1.036,2.344,3.833
			c0,0.271-0.018,0.554-0.047,0.862l0.127,0.013l0.004-0.127c0,0-0.127-0.004-0.343-0.059c-0.639-0.17-1.958-0.749-2.259-3.08
			l-0.127,0.017l0.127-0.008l-0.11-1.68L105.303,37.008l-0.013,0.127L105.303,37.008l-0.127,0.009l0.109,1.68V38.7v0.005
			c0.203,1.611,0.91,2.466,1.569,2.901c0.66,0.432,1.266,0.457,1.278,0.457l0.118,0.005l0.013-0.119
			c0.029-0.312,0.047-0.609,0.047-0.888c0.004-1.93-0.741-2.996-1.489-3.554c-0.753-0.559-1.493-0.622-1.506-0.626l-0.148-0.013
			l0.009,0.147L105.303,37.008z"/>
		<path fill="#D18A00" d="M111.335,41.599l-0.034-0.119c-0.038,0.005-3.168,0.905-4.184,7.099l-0.029,0.183l0.182-0.038
			c0.047-0.009,1.802-0.432,3.503-4.451l0.004-0.008l0.736-2.843l-0.212,0.059L111.335,41.599l-0.123-0.03l-0.681,2.623l0.122,0.034
			l-0.113-0.051c-0.843,1.984-1.688,3.062-2.314,3.643c-0.309,0.287-0.571,0.452-0.745,0.545l-0.202,0.094l-0.063,0.017l0.029,0.127
			l0.123,0.017c0.507-3.054,1.519-4.78,2.398-5.74c0.436-0.479,0.842-0.77,1.138-0.939l0.347-0.169l0.119-0.047L111.335,41.599
			l-0.123-0.03L111.335,41.599z"/>
		<path fill="#D18A00" d="M105.653,41.345l-0.017,0.127l0.258,0.067c0.474,0.182,1.438,0.724,1.442,2.568
			c0,0.24-0.013,0.507-0.055,0.799l0.127,0.013l-0.123-0.021c0,0.004-0.271,1.51-0.448,2.259l0.123,0.029l0.105-0.071
			c0,0-0.182-0.25-0.428-0.694c-0.249-0.448-0.566-1.096-0.829-1.883c-0.182-0.537-0.241-1.083-0.241-1.569
			c0-0.905,0.208-1.586,0.208-1.586L105.653,41.345l-0.017,0.127L105.653,41.345l-0.118-0.034c-0.005,0.009-0.22,0.715-0.22,1.658
			c0,0.504,0.062,1.079,0.253,1.65c0.542,1.607,1.286,2.636,1.291,2.64l0.165,0.229l0.059-0.271
			c0.183-0.767,0.453-2.272,0.453-2.272V44.94v-0.004c0.042-0.301,0.059-0.576,0.059-0.829c0-1.291-0.469-2.031-0.951-2.425
			c-0.482-0.397-0.961-0.461-0.974-0.461l-0.105-0.017l-0.029,0.105L105.653,41.345z"/>
		<path fill="#D18A00" d="M104.347,44.538l-0.127-0.021c0,0.004-0.199,1.243-0.199,2.665c0.009,1.519,0.207,3.253,1.219,3.938
			l0.122,0.08l0.063-0.135c0.004-0.009,0.872-1.861,0.876-3.305c0-0.33-0.047-0.639-0.169-0.905
			c-0.605-1.337-1.688-2.402-1.697-2.407l-0.173-0.173l-0.042,0.241L104.347,44.538l-0.089,0.089c0,0,0.262,0.259,0.601,0.682
			c0.343,0.427,0.753,1.011,1.045,1.649c0.097,0.221,0.14,0.499,0.14,0.804c0.004,1.35-0.851,3.198-0.847,3.198l0.114,0.056
			l0.072-0.106c-0.863-0.545-1.117-2.229-1.108-3.727c0-1.4,0.198-2.623,0.194-2.627L104.347,44.538l-0.089,0.089L104.347,44.538z"
			/>
		<path fill="#D18A00" d="M110.37,47.03l-0.122-0.038c0,0-0.406,1.214-1.062,2.602c-0.655,1.388-1.569,2.944-2.534,3.604
			c0,0-0.38,0.25-0.884,0.512c-0.503,0.267-1.13,0.537-1.582,0.575l0.013,0.127l0.114,0.056c0-0.005,0.343-0.729,1.028-1.794
			c0.685-1.07,1.713-2.479,3.079-3.833l-0.093-0.089l0.085,0.098l2.039-1.722L110.37,47.03l-0.122-0.038L110.37,47.03l-0.08-0.098
			l-2.048,1.727l-0.004,0.004c-2.763,2.741-4.15,5.69-4.154,5.694l-0.098,0.203l0.225-0.021c1.036-0.102,2.572-1.129,2.585-1.134
			c2.077-1.438,3.685-6.324,3.697-6.337l0.14-0.428l-0.343,0.292L110.37,47.03z"/>
		<path fill="#D18A00" d="M101.711,56.634l0.08,0.101c0.009-0.013,2.208-1.789,2.208-4.746l-0.013-0.444
			c-0.135-1.776-0.165-2.687-0.165-3.135l0.013-0.338l0.005-0.063l0.097-0.462l-0.317,0.352c-0.008,0.013-1.776,1.967-1.811,5.292
			c-0.021,1.638-0.076,2.496-0.127,2.94c-0.021,0.22-0.051,0.339-0.063,0.397l-0.013,0.038l0.076,0.038l-0.055-0.063l-0.021,0.025
			l0.076,0.038l-0.055-0.063l0.165,0.194L101.711,56.634l0.084,0.097c0.06-0.071,0.081-0.109,0.14-0.575
			c0.051-0.457,0.106-1.32,0.127-2.961c0.018-1.616,0.457-2.902,0.889-3.782c0.216-0.44,0.432-0.778,0.592-1.007
			c0.165-0.229,0.267-0.339,0.267-0.339l-0.097-0.084l-0.123-0.025c-0.004,0.017-0.021,0.102-0.021,0.452
			c0,0.461,0.03,1.371,0.165,3.156l0.013,0.423c0,1.413-0.528,2.551-1.058,3.338c-0.267,0.394-0.532,0.698-0.731,0.901
			c-0.199,0.207-0.326,0.309-0.326,0.309L101.711,56.634l0.084,0.097L101.711,56.634z"/>
		<path fill="#D18A00" d="M101.232,53.904l-0.127,0.013c0,0,0.06,0.47,0.06,1.151c0.004,1.197-0.19,3.046-1.163,4.129
			c-0.792,0.888-1.324,1.4-1.654,1.691l-0.355,0.288l-0.098,0.063l0.06,0.114l0.127,0.004c0,0,0.029-0.562,0.207-1.4
			c0.178-0.837,0.499-1.945,1.083-3.012c0.593-1.079,1.079-1.819,1.422-2.293c0.343-0.47,0.532-0.66,0.532-0.664L101.232,53.904
			l-0.127,0.013L101.232,53.904l-0.093-0.089c-0.009,0.009-0.804,0.834-1.992,3.008c-1.197,2.196-1.316,4.515-1.32,4.522
			l-0.013,0.225l0.199-0.105c0.025-0.013,0.583-0.313,2.179-2.103c1.049-1.181,1.222-3.071,1.227-4.294
			c0-0.698-0.06-1.177-0.06-1.181l-0.034-0.263l-0.186,0.19L101.232,53.904z"/>
		<path fill="#D18A00" d="M101.131,59.007l0.11,0.067c0-0.004,0.457-0.715,1.121-1.557c0.66-0.842,1.531-1.807,2.331-2.297
			c1.646-1.012,2.978-1.549,2.982-1.553l-0.051-0.114l-0.11-0.063c0,0-0.512,0.901-1.108,1.84c-0.588,0.936-1.312,1.925-1.591,2.031
			c-0.706,0.312-2.779,1.223-2.779,1.223l0.051,0.114l-0.042-0.119l-0.952,0.305L101.131,59.007l0.11,0.067L101.131,59.007
			l0.043,0.118l0.951-0.305l0.005-0.004h0.008c0,0,2.073-0.914,2.779-1.223c0.436-0.207,1.092-1.181,1.705-2.128
			c0.601-0.947,1.112-1.854,1.112-1.854l0.183-0.312l-0.339,0.136c-0.004,0-1.357,0.545-3.021,1.569
			c-1.692,1.049-3.523,3.926-3.532,3.934l-0.19,0.292l0.339-0.105L101.131,59.007z"/>
		<path fill="#D18A00" d="M103.712,59.861l-0.11-0.06c0,0-0.419,0.778-1.112,1.557c-0.698,0.783-1.663,1.549-2.729,1.545
			l-0.297-0.021c-2.415-0.313-2.58-0.334-2.58-0.334l-0.017,0.122l0.08,0.098c0,0,0.706-0.593,1.557-1.21
			c0.851-0.622,1.87-1.27,2.433-1.379c0.858-0.174,1.921-0.199,2.445-0.199c0.203,0,0.33,0.004,0.33,0.004V59.861l-0.11-0.06
			L103.712,59.861l0.004-0.127c0,0-0.127-0.004-0.334-0.004c-0.533,0-1.604,0.025-2.496,0.202c-1.295,0.271-4.091,2.641-4.104,2.641
			l-0.216,0.186l0.279,0.038c0.004,0,0.169,0.021,2.589,0.334l0.326,0.021c2.382-0.021,4.053-3.232,4.065-3.232l0.097-0.182
			l-0.207-0.004L103.712,59.861z"/>
		<path fill="#D18A00" d="M97.992,57.877l-0.123-0.025c0,0.004-0.194,0.952-0.681,2.068c-0.482,1.117-1.257,2.387-2.386,3.017
			c-1.498,0.851-2.022,0.99-2.137,0.986h-0.013l-0.025,0.08h0.076l-0.051-0.08l-0.025,0.08h0.076h-0.127l0.11,0.067
			c0-0.004,0.41-0.664,0.931-1.43c0.516-0.766,1.154-1.638,1.586-2.035c0.905-0.833,2.873-2.631,2.877-2.636L97.992,57.877
			l-0.123-0.025L97.992,57.877l-0.085-0.093c0,0-1.971,1.802-2.872,2.636c-0.931,0.862-2.56,3.511-2.568,3.52l-0.017,0.029v0.034
			l0.06,0.122l0.156,0.051c0.241-0.008,0.744-0.165,2.264-1.02c2.406-1.37,3.181-5.241,3.189-5.254l0.076-0.381l-0.288,0.263
			L97.992,57.877z"/>
		<path fill="#D18A00" d="M94.163,59.963l-0.051-0.114c-0.008,0.004-2.889,1.256-4.23,3.151c-1.307,1.849-1.925,2.716-1.925,2.721
			l-0.245,0.347l0.394-0.156c0.004-0.005,2.188-0.863,3.008-1.273c0.876-0.444,1.908-1.988,2.327-2.83
			c0.406-0.825,0.837-1.794,0.842-1.794l0.131-0.301l-0.301,0.136L94.163,59.963l-0.118-0.051c0,0-0.432,0.964-0.838,1.785
			c-0.385,0.804-1.455,2.348-2.208,2.712c-0.795,0.401-2.982,1.265-2.986,1.265l0.046,0.118l0.106,0.072
			c0,0,0.617-0.867,1.925-2.721c0.639-0.9,1.671-1.671,2.542-2.212c0.872-0.542,1.582-0.851,1.582-0.854L94.163,59.963l-0.118-0.051
			L94.163,59.963z"/>
		<path fill="#D18A00" d="M98.386,64.866l0.097-0.081c-0.013-0.008-0.947-1.146-2.386-1.15c-0.254,0-0.516,0.034-0.795,0.118
			c-1.777,0.537-3.507,1.104-3.507,1.104l-0.157,0.051l0.089,0.135c0.009,0.009,1.088,1.735,2.614,1.752
			c0.229,0,0.462-0.042,0.702-0.131c1.752-0.669,3.401-1.688,3.406-1.692l0.127-0.076l-0.094-0.11L98.386,64.866l-0.068-0.11
			c-0.004,0.004-1.646,1.016-3.367,1.671c-0.207,0.08-0.41,0.114-0.609,0.114c-0.659,0.004-1.265-0.397-1.7-0.812
			c-0.436-0.41-0.698-0.82-0.702-0.82l-0.105,0.067l0.037,0.123c0.005-0.005,1.73-0.567,3.508-1.104
			c0.249-0.076,0.49-0.105,0.719-0.105c0.647-0.004,1.197,0.262,1.582,0.528c0.39,0.267,0.605,0.529,0.609,0.529L98.386,64.866
			l-0.068-0.11L98.386,64.866z"/>
		<path fill="#D18A00" d="M93.029,67.319c0,0-2.085-2.01-3.688-1.451s-1.814,0.504-1.814,0.504s0.951,2.119,2.466,1.988
			C91.507,68.229,93.029,67.319,93.029,67.319z"/>
		<g>
			<path fill="#D18A00" d="M4.816,34.694c0,0-3.791-0.334-4.636,3.968c-0.846,4.312,2.454,7.577,6.984,7.497
				c4.539-0.081,8.072-1.841,8.072-1.841s10.614-5.736,13.977-7.801c0,0,5.296-3.664,9.51-3.664c3.791,0,7.17,4.451,4.552,8.596
				c-2.623,4.146-9.345,1.845-10.106,0.965c0,0-0.859,0.571,0.838,1.277c1.692,0.706,7.733,2.052,9.933-1.921
				c2.196-3.972,0.436-8.854-3.947-9.556c-4.383-0.711-8.677,0.317-13.385,3.105c-3.553,2.103-11.777,7.505-16.579,8.851
				c-4.806,1.345-8.833,0.481-9.171-4.142C0.519,35.401,4.816,34.694,4.816,34.694z"/>
			<path fill="#D18A00" d="M26.523,31.906c-3.257,0.55-9.675,3.973-13.127,6.295c-3.093,2.077-6.058,2.543-7.243,1.104
				s0-2.788,0.846-3.19c0.842-0.397,0.254-0.714,0.254-0.714s-2.521,0.093-2.437,2.8c0.081,2.703,3.773,3.744,7.141,2.944
				s10.369-5.25,12.133-6.371c1.756-1.121,5.296-3.109,8.918-2.868C33.008,31.906,32.247,30.946,26.523,31.906z"/>
			<path fill="#D18A00" d="M41.245,39.703c0,0,1.184-0.702,1.184-1.823s-0.495-2.788-2.775-3.105
				c-2.28-0.321-5.296,0.639-9.844,3.347C25.254,40.824,12.042,49.12,6.238,50.063c0,0-2.352,0.178-3.113,0.241
				c0,0-0.491,0.465,0.761,0.465c1.252,0,7.158-0.88,12.62-3.346c5.466-2.467,13.131-6.612,15.483-8.118s5.144-3.588,7.496-3.588
				s2.268,1.765,2.268,1.765s0,0.397-0.084,1.104C41.583,39.297,41.245,39.703,41.245,39.703z"/>
			<path fill="#D18A00" d="M163.42,34.694c0,0,3.791-0.334,4.633,3.968c0.846,4.312-2.454,7.577-6.984,7.497
				c-4.54-0.081-8.072-1.841-8.072-1.841s-10.609-5.736-13.978-7.801c0,0-5.296-3.664-9.506-3.664c-3.794,0-7.175,4.451-4.552,8.596
				c2.619,4.146,9.337,1.845,10.103,0.965c0,0,0.858,0.571-0.833,1.277c-1.692,0.706-7.738,2.052-9.934-1.921
				c-2.2-3.972-0.439-8.854,3.942-9.556c4.383-0.711,8.682,0.317,13.386,3.105c3.554,2.103,11.777,7.505,16.579,8.851
				c4.806,1.345,8.837,0.481,9.172-4.142C167.718,35.401,163.42,34.694,163.42,34.694z"/>
			<path fill="#D18A00" d="M141.71,31.906c3.261,0.55,9.679,3.973,13.131,6.295c3.093,2.077,6.054,2.543,7.242,1.104
				c1.181-1.438,0-2.788-0.846-3.19c-0.846-0.397-0.254-0.714-0.254-0.714s2.521,0.093,2.437,2.8
				c-0.089,2.703-3.777,3.744-7.146,2.944c-3.367-0.8-10.368-5.25-12.128-6.371s-5.301-3.109-8.922-2.868
				C135.225,31.906,135.99,30.946,141.71,31.906z"/>
			<path fill="#D18A00" d="M126.987,39.703c0,0-1.185-0.702-1.185-1.823s0.491-2.788,2.775-3.105
				c2.284-0.321,5.297,0.639,9.849,3.347c4.552,2.703,17.768,10.999,23.572,11.942c0,0,2.348,0.178,3.109,0.241
				c0,0,0.49,0.465-0.758,0.465c-1.256,0-7.162-0.88-12.623-3.346c-5.466-2.467-13.132-6.612-15.483-8.118
				c-2.356-1.506-5.145-3.588-7.497-3.588c-2.352,0-2.268,1.765-2.268,1.765s0,0.397,0.085,1.104
				C126.649,39.297,126.987,39.703,126.987,39.703z"/>
		</g>
	</g>
</g>
</svg>
