<?xml version="1.0" encoding="utf-8"?>
<!-- Generator: Adobe Illustrator 16.0.4, SVG Export Plug-In . SVG Version: 6.00 Build 0)  -->
<!DOCTYPE svg PUBLIC "-//W3C//DTD SVG 1.1//EN" "http://www.w3.org/Graphics/SVG/1.1/DTD/svg11.dtd">
<svg version="1.1" xmlns="http://www.w3.org/2000/svg" xmlns:xlink="http://www.w3.org/1999/xlink" x="0px" y="0px" width="383px"
	 height="34px" viewBox="0 0 383 34" enable-background="new 0 0 383 34" xml:space="preserve">
<g id="Layer_1" display="none">
</g>
<g id="Layer_2">
	<g>
		<g>
			<path fill="#FFFFFF" d="M194.556,33.613c1.25-0.348,2.424-1.066,3.412-2.094c0.184-0.192,0.36-0.393,0.528-0.6
				c0.538-0.663,0.898-1.485,1.069-2.441l0.024-0.139l-0.137-0.03c-0.082-0.018-0.164-0.038-0.244-0.061
				c-2.474-0.58-4.52-2.021-5.767-4.061c-0.299-0.503-0.343-1.172-0.114-1.789c0.217-0.59,0.637-1.026,1.151-1.201
				c0.374-0.143,0.763-0.215,1.159-0.215c0.67,0,1.361,0.211,1.949,0.594c1.776,1.4,2.64,3.614,2.358,6.068l-0.018,0.15l0.151,0.013
				c0.13,0.011,0.262,0.016,0.394,0.016c2.028,0,3.887-1.231,4.732-3.138c0.483-0.992,0.724-2.157,0.693-3.361l-0.004-0.165
				l-0.163,0.023c-0.741,0.109-1.487,0.165-2.22,0.165c-3.563,0-6.697-1.296-8.824-3.649c-1.073-1.316-1.298-3.229-0.544-4.644
				c0.578-1.151,1.878-1.893,3.312-1.893c0.305,0,0.603,0.035,0.883,0.104c2.563,0.667,4.713,2.512,6.567,5.639
				c0.485,0.862,0.863,1.746,1.121,2.624l0.041,0.138l0.138-0.038c0.23-0.061,0.459-0.129,0.686-0.2
				c1.844-0.585,3.522-1.463,4.989-2.607c0.999-0.78,1.89-1.582,2.646-2.382l0.104-0.109l-0.112-0.1
				c-2.174-1.939-4.272-4.128-4.899-6.992c-0.304-2.049-0.064-3.688,0.737-5.001c0.831-1.363,2.37-1.849,3.534-1.849
				c0.435,0,0.847,0.064,1.224,0.19c0.805,0.269,1.689,0.998,2.202,1.541c1.862,1.97,2.525,5.812,1.479,8.567
				c-0.598,1.573-1.504,3.078-2.692,4.472l-0.096,0.113l0.115,0.094c0.445,0.368,0.914,0.726,1.386,1.087
				c0.506,0.387,1.029,0.787,1.526,1.202l0.042,0.035l0.205-0.002c0.415,0,0.831,0.018,1.235,0.054
				c1.157,0.102,2.522,0.277,3.885,0.81c2.206,0.861,4.062,2.364,5.857,3.817c1.796,1.455,3.651,2.958,5.867,3.831
				c0.631,0.248,1.363,0.364,1.867,0.417c0.239,0.024,0.485,0.037,0.733,0.037c1.819,0,4.222-0.726,5.003-2.771
				c0.605-1.584-0.036-3.701-1.431-4.721c-0.426-0.312-0.932-0.497-1.354-0.497c-0.482,0-0.844,0.233-1.044,0.674
				c-0.445,0.976,0.345,1.502,0.98,1.925c0.745,0.495,1.178,0.836,0.728,1.536c-0.348,0.541-0.896,0.655-1.293,0.655
				c-0.707,0-1.488-0.365-1.899-0.888c-0.782-0.997-0.814-2.664-0.069-3.64c0.5-0.655,1.215-0.988,2.126-0.988
				c0.378,0,0.787,0.059,1.216,0.172c2.127,0.567,3.198,2.895,3.315,4.948c0.093,1.644-0.625,3.201-1.874,4.064
				c-0.552,0.381-1.237,0.631-1.985,0.722c-0.293,0.034-0.595,0.053-0.896,0.053c-1.916,0-3.938-0.687-6.364-2.16
				c-1.319-0.802-2.564-1.858-3.882-2.979c-2.831-2.404-5.759-4.891-9.666-4.957c-0.165-0.013-0.339-0.02-0.514-0.02
				c-0.081,0-0.163,0.002-0.245,0.005l-0.367,0.013l0.275,0.243c1.46,1.295,2.308,2.505,2.749,3.921
				c0.486,1.421,0.235,2.977-0.692,4.273c-1.009,1.414-2.638,2.292-4.25,2.292c-0.17,0-0.343-0.01-0.515-0.029
				c-1.69-0.093-3.257-1.149-4.201-2.828c-0.881-1.568-1-3.341-0.311-4.628c1.061-2.42,3.772-3.136,5.86-3.31l0.322-0.027
				l-0.232-0.225c-0.719-0.69-1.495-1.354-2.229-1.976l-0.108-0.092l-0.096,0.105c-0.882,0.98-1.921,1.92-3.086,2.793
				c-1.751,1.336-3.898,2.283-6.21,2.74l-0.133,0.025l0.015,0.134c0.151,1.381-0.045,2.644-0.585,3.753
				c-0.884,2.036-3.057,3.455-5.286,3.455c-0.182,0-0.361-0.01-0.542-0.029l-0.129-0.014l-0.029,0.127
				c-0.223,0.989-0.62,1.886-1.119,2.525c-1.107,1.235-2.427,2.103-3.812,2.501C194.765,33.561,194.659,33.588,194.556,33.613
				L194.556,33.613z M218.546,17.894c-2.336,0.401-4.203,1.775-4.995,3.674c-0.729,1.404-0.661,3.349,0.176,4.825
				c0.69,1.219,1.802,1.934,3.13,2.013c0.098,0.01,0.2,0.014,0.301,0.014c1.305,0,2.617-0.744,3.511-1.991
				c0.939-1.309,1.228-2.901,0.769-4.258c-0.446-1.424-1.324-2.771-2.761-4.235l-0.054-0.055L218.546,17.894z M196.082,22.032
				c-0.626,0-1.134,0.26-1.43,0.73c-0.351,0.556-0.352,1.324-0.001,2.052c0.702,1.466,2.908,2.514,4.66,2.867
				c0.056,0.015,0.117,0.029,0.18,0.041l0.167,0.036l0.01-0.17c0.032-0.591,0.003-1.211-0.088-1.846
				c-0.31-2.146-1.389-3.419-3.118-3.682C196.329,22.042,196.203,22.032,196.082,22.032L196.082,22.032z M198.074,12.023
				c-0.741,0-1.396,0.277-1.891,0.8c-0.577,0.611-0.864,1.48-0.809,2.449c0.096,1.695,1.071,3.221,2.487,3.885
				c1.387,0.652,2.941,0.982,4.621,0.982c1.002,0,2.04-0.119,3.085-0.354l0.144-0.031l-0.033-0.144
				c-0.196-0.844-0.514-1.65-0.943-2.4c-1.494-2.556-3.643-4.444-5.745-5.052C198.679,12.069,198.371,12.023,198.074,12.023
				L198.074,12.023z M214.153,0.567c-0.162,0-0.329,0.014-0.496,0.04c-1.309,0.208-2.014,1.532-2.481,2.663
				c-0.466,1.125-0.593,2.575-0.333,3.784c0.519,2.412,1.921,4.956,3.846,6.979l0.109,0.115l0.105-0.119
				c2.169-2.438,3.271-5.038,3.273-7.729c0.002-1.414-0.564-3.503-1.811-4.751C215.716,0.897,214.971,0.567,214.153,0.567
				L214.153,0.567z"/>
		</g>
		<g>
			<path fill="#FFFFFF" d="M189.712,33.613c-0.104-0.025-0.209-0.053-0.313-0.082c-1.383-0.398-2.704-1.266-3.818-2.51
				c-0.492-0.631-0.889-1.527-1.112-2.517l-0.029-0.127l-0.13,0.014c-0.179,0.02-0.36,0.029-0.541,0.029
				c-2.229,0-4.402-1.419-5.284-3.45c-0.542-1.114-0.738-2.377-0.587-3.758l0.015-0.134l-0.132-0.025
				c-2.312-0.457-4.459-1.404-6.209-2.739c-1.168-0.875-2.207-1.814-3.088-2.794l-0.095-0.105l-0.108,0.092
				c-0.735,0.622-1.512,1.286-2.229,1.976l-0.233,0.225l0.322,0.027c2.089,0.174,4.8,0.89,5.855,3.3
				c0.695,1.297,0.576,3.069-0.305,4.638c-0.944,1.679-2.511,2.735-4.192,2.827c-0.181,0.021-0.353,0.03-0.524,0.03
				c-1.612,0-3.241-0.878-4.25-2.292c-0.926-1.297-1.179-2.853-0.692-4.269c0.442-1.421,1.29-2.631,2.75-3.926l0.274-0.243
				l-0.366-0.013c-0.082-0.003-0.163-0.005-0.244-0.005c-0.175,0-0.349,0.007-0.521,0.02c-3.9,0.066-6.827,2.553-9.658,4.957
				c-1.318,1.12-2.563,2.177-3.882,2.979c-2.426,1.474-4.449,2.16-6.365,2.16c-0.301,0-0.602-0.019-0.896-0.053
				c-0.747-0.091-1.434-0.341-1.985-0.722c-1.249-0.863-1.967-2.421-1.873-4.064c0.116-2.054,1.187-4.381,3.314-4.948
				c0.429-0.113,0.838-0.172,1.216-0.172c0.91,0,1.626,0.333,2.126,0.988c0.745,0.976,0.713,2.643-0.069,3.64
				c-0.411,0.522-1.192,0.888-1.899,0.888c-0.397,0-0.944-0.114-1.292-0.655c-0.451-0.7-0.017-1.041,0.727-1.536
				c0.635-0.423,1.426-0.949,0.981-1.925c-0.201-0.44-0.562-0.674-1.044-0.674c-0.421,0-0.928,0.186-1.354,0.497
				c-1.395,1.02-2.037,3.137-1.431,4.721c0.782,2.045,3.184,2.771,5.003,2.771c0.248,0,0.494-0.013,0.733-0.037
				c0.502-0.053,1.235-0.169,1.867-0.417c2.214-0.873,4.071-2.376,5.867-3.831c1.795-1.453,3.651-2.956,5.856-3.817
				c1.363-0.532,2.729-0.708,3.884-0.81c0.405-0.036,0.821-0.054,1.236-0.054l0.206,0.002l0.041-0.035
				c0.497-0.415,1.021-0.815,1.527-1.202c0.472-0.361,0.939-0.719,1.386-1.087l0.115-0.094l-0.097-0.113
				c-1.188-1.394-2.094-2.899-2.692-4.472c-1.046-2.754-0.383-6.597,1.479-8.567c0.513-0.543,1.398-1.272,2.203-1.541
				c0.377-0.125,0.789-0.19,1.224-0.19c1.164,0,2.703,0.486,3.534,1.849c0.801,1.313,1.042,2.953,0.736,5.011
				c-0.625,2.854-2.724,5.043-4.898,6.982l-0.112,0.1l0.103,0.109c0.757,0.801,1.647,1.603,2.646,2.382
				c1.467,1.144,3.146,2.022,4.99,2.607c0.227,0.071,0.455,0.14,0.686,0.2l0.138,0.038l0.041-0.138
				c0.258-0.878,0.636-1.762,1.124-2.627c1.853-3.124,4.001-4.968,6.566-5.636c0.279-0.068,0.576-0.103,0.881-0.103
				c1.435,0,2.735,0.742,3.311,1.89c0.755,1.418,0.53,3.331-0.546,4.652c-2.123,2.349-5.257,3.645-8.82,3.645
				c-0.732,0-1.479-0.056-2.219-0.165l-0.164-0.023l-0.004,0.165c-0.03,1.204,0.21,2.369,0.696,3.366
				c0.844,1.901,2.702,3.133,4.73,3.133c0.131,0,0.263-0.005,0.394-0.016l0.151-0.013l-0.018-0.15
				c-0.282-2.454,0.582-4.668,2.37-6.075c0.576-0.376,1.269-0.587,1.938-0.587c0.396,0,0.785,0.072,1.154,0.213
				c0.52,0.177,0.939,0.613,1.157,1.203c0.228,0.617,0.184,1.286-0.117,1.791c-1.246,2.037-3.291,3.479-5.758,4.057
				c-0.086,0.024-0.168,0.045-0.25,0.062l-0.138,0.03l0.025,0.139c0.171,0.956,0.531,1.778,1.069,2.441
				c0.168,0.207,0.345,0.407,0.53,0.6C187.29,32.547,188.462,33.266,189.712,33.613L189.712,33.613z M165.593,17.935
				c-1.437,1.464-2.314,2.812-2.761,4.239c-0.458,1.353-0.171,2.945,0.769,4.255c0.895,1.246,2.207,1.99,3.511,1.99
				c0.101,0,0.203-0.004,0.305-0.014c1.324-0.079,2.435-0.794,3.126-2.013c0.837-1.477,0.905-3.421,0.169-4.837
				c-0.786-1.887-2.653-3.261-4.989-3.662l-0.076-0.014L165.593,17.935z M188.187,22.032c-0.121,0-0.248,0.01-0.38,0.029
				c-1.73,0.263-2.808,1.536-3.117,3.682c-0.092,0.635-0.122,1.255-0.089,1.846l0.01,0.17l0.167-0.036
				c0.062-0.012,0.125-0.026,0.187-0.043c1.746-0.352,3.951-1.399,4.654-2.865c0.349-0.728,0.349-1.496-0.002-2.052
				C189.32,22.292,188.812,22.032,188.187,22.032L188.187,22.032z M186.194,12.023c-0.297,0-0.604,0.045-0.916,0.135
				c-2.103,0.608-4.251,2.496-5.745,5.051c-0.43,0.75-0.748,1.557-0.944,2.401l-0.034,0.144l0.144,0.031
				c1.044,0.235,2.083,0.354,3.085,0.354c1.679,0,3.234-0.33,4.621-0.982c1.415-0.664,2.392-2.189,2.488-3.885
				c0.055-0.968-0.232-1.838-0.81-2.449C187.59,12.3,186.936,12.023,186.194,12.023L186.194,12.023z M170.115,0.567
				c-0.818,0-1.563,0.33-2.213,0.981c-1.246,1.248-1.812,3.338-1.811,4.751c0.003,2.69,1.105,5.291,3.274,7.729l0.105,0.119
				l0.11-0.115c1.925-2.023,3.327-4.567,3.846-6.979c0.26-1.209,0.132-2.659-0.333-3.784c-0.467-1.13-1.172-2.454-2.482-2.663
				C170.444,0.581,170.277,0.567,170.115,0.567L170.115,0.567z"/>
		</g>
		<g>
			<path fill="#FFFFFF" d="M192.174,32.088c-0.208-0.22-0.853-1.177-0.853-2.342c0-1.398,0.449-2.373,0.853-2.373
				c0.402,0,0.853,0.975,0.853,2.373C193.026,30.917,192.383,31.87,192.174,32.088L192.174,32.088z"/>
		</g>
		<g>
			<path fill="#FFFFFF" d="M192.174,32.088c-0.208-0.22-0.853-1.177-0.853-2.342c0-1.398,0.449-2.373,0.853-2.373
				c0.402,0,0.853,0.975,0.853,2.373C193.026,30.917,192.383,31.87,192.174,32.088L192.174,32.088z"/>
		</g>
		<g>
			<path fill="#FFFFFF" d="M193.176,32.134c-0.016-0.262,0.052-1.039,0.541-1.682c0.52-0.681,1.085-1.036,1.375-1.036
				c0.054,0,0.096,0.012,0.129,0.035c0.101,0.077,0.112,0.303,0.031,0.592c-0.097,0.345-0.31,0.743-0.6,1.123
				C194.165,31.806,193.437,32.079,193.176,32.134L193.176,32.134z"/>
		</g>
		<g>
			<path fill="#FFFFFF" d="M191.093,32.134c-0.261-0.055-0.99-0.328-1.477-0.968c-0.29-0.38-0.502-0.778-0.6-1.123
				c-0.081-0.289-0.068-0.515,0.032-0.592c0.032-0.023,0.074-0.035,0.128-0.035c0.291,0,0.855,0.355,1.375,1.036
				C191.042,31.096,191.108,31.873,191.093,32.134L191.093,32.134z"/>
		</g>
	</g>
	<rect y="17" fill="#FFFFFF" width="126" height="1"/>
	<rect x="257" y="17" fill="#FFFFFF" width="126" height="1"/>
</g>
</svg>
