<?xml version="1.0" encoding="utf-8"?>
<!-- Generator: Adobe Illustrator 16.0.4, SVG Export Plug-In . SVG Version: 6.00 Build 0)  -->
<!DOCTYPE svg PUBLIC "-//W3C//DTD SVG 1.1//EN" "http://www.w3.org/Graphics/SVG/1.1/DTD/svg11.dtd">
<svg version="1.1" id="Layer_1" xmlns="http://www.w3.org/2000/svg" xmlns:xlink="http://www.w3.org/1999/xlink" x="0px" y="0px"
	 width="290px" height="136px" viewBox="0 0 290 136" enable-background="new 0 0 290 136" xml:space="preserve">
<g>
	
		<path fill-rule="evenodd" clip-rule="evenodd" fill="#FFFFFF" stroke="#FFFFFF" stroke-width="0.3089" stroke-miterlimit="3.8637" d="
		M140.055,4.761c1.268,1.073,1.832,2.71,1.627,4.72c-0.551,5.42-4.836,9.345-6.982,9.345c-0.648,0-1.375-0.421-2.146-0.421
		c-0.768,0-1.222,0.467-1.264,0.888c-0.058,0.561,0.314,0.888,1.125,0.888c0.648,0,1.229-0.139,1.595-0.139
		c0.769,0,1.323,0.934,1.173,2.382c-0.236,2.337-1.741,5.187-2.036,8.084c-0.308,3.038,1.028,5.047,2.405,5.047
		c1.297,0,3.141-1.4,5.566-4.159c1.189-1.355,1.718-2.149,1.741-2.382c0.01-0.094-0.062-0.188-0.224-0.188
		c-0.205,0-0.785,0.935-2.017,2.29c-2.097,2.335-3.63,3.457-4.522,3.457c-0.525,0-0.865-0.653-0.784-1.447
		c0.194-1.917,1.815-5.094,2.123-8.131c0.217-2.149-0.703-4.253-2.596-5.562c4.972-0.7,9.096-4.999,9.498-8.971
		c0.256-2.523-0.911-5-3.31-6.496c1.187-0.935,1.854-1.122,1.893-1.496c0.01-0.094-0.062-0.185-0.224-0.185
		c-0.447,0-1.112,0.559-2.285,1.355c-1.961-1.029-4.496-1.59-7.615-1.59c-1.66,0-3.345,0.235-5.134,0.702
		c-1.255-1.215-3.015-1.823-5.161-1.823c-3.809,0-7.883,2.243-10.775,5.982c-1.955,2.522-2.833,4.765-2.895,5.375
		c-0.022,0.233,0.091,0.327,0.253,0.327c0.243,0,0.59-1.825,2.253-4.253c2.85-4.113,7.209-6.778,10.652-6.778
		c1.903,0,3.365,0.376,4.59,1.449c-8.875,2.853-14.632,10.094-15.147,15.19c-0.347,3.41,1.231,5.42,4.35,5.42
		c2.431,0,5.877-1.637,8.331-4.253c2.723-2.898,4.545-6.869,4.905-10.421c0.214-2.104-0.088-3.926-0.969-5.608
		c0.959-0.279,2.496-0.655,4.561-0.655c2.957,0,5.177,0.468,6.882,1.637c-5.838,4.439-9.232,9.955-12.665,15.841
		c-5.55,9.581-9.644,14.814-14.425,14.814c-1.702,0-2.583-0.888-2.493-1.776c0.068-0.653,0.628-1.4,0.7-2.102
		c0.11-1.075-0.606-2.008-1.536-2.008c-1.054,0-1.978,1.122-2.136,2.662c-0.221,2.198,1.501,3.974,4.619,3.974
		c5.268,0,11.426-4.441,16.879-13.039C133.4,14.855,136.292,7.938,140.055,4.761z M127.011,3.591
		c0.742,1.076,0.927,2.431,0.742,4.253c-0.327,3.225-1.938,6.729-4.778,9.955c-2.746,3.131-5.54,4.72-7.686,4.72
		c-2.269,0-3.439-1.637-3.17-4.298C112.647,13.031,118.33,6.116,127.011,3.591z"/>
	
		<path fill-rule="evenodd" clip-rule="evenodd" fill="#FFFFFF" stroke="#FFFFFF" stroke-width="0.3089" stroke-miterlimit="3.8637" d="
		M154.609,19.753c-4.648,0-13.676,5.984-13.676,12.824c0,2.253,0.943,3.498,2.963,3.498c2.833,0,7.481-3.964,10.039-7.073
		c0.542,0.389,1.012,0.623,1.618,0.623c0.742,0,1.079-0.156,2.492-1.556l0.405-0.389l-0.337-0.543l-0.474,0.465
		c-1.076,1.089-1.614,1.4-2.02,1.4c-0.473,0-0.674-0.233-1.079-0.778c1.55-2.02,2.224-4.352,2.224-5.828
		C156.765,20.607,155.958,19.753,154.609,19.753z M154.946,20.839c1.145,0,1.28,1.011,1.28,1.634
		c0,5.595-9.297,12.979-12.262,12.979c-1.08,0-1.686-0.389-1.686-1.63C142.278,31.254,151.241,20.839,154.946,20.839z"/>
	
		<path fill-rule="evenodd" clip-rule="evenodd" fill="#FFFFFF" stroke="#FFFFFF" stroke-width="0.3089" stroke-miterlimit="3.8637" d="
		M156.425,35.608h3.772c1.145-1.477,2.02-2.409,2.895-3.264c3.167-3.031,10.646-11.97,14.483-11.97c0.542,0,1.08,0.465,1.08,1.01
		c0,2.566-7.748,6.295-7.748,12.438c0,1.242,0.742,2.253,1.887,2.253c1.818,0,5.656-3.653,10.24-8.007l0.402-0.389l-0.338-0.543
		l-0.47,0.465c-3.099,3.033-8.285,7.851-9.835,7.851c-0.473,0-0.943-0.467-0.943-1.165c0-2.799,8.149-7.305,8.149-11.97
		c0-1.478-1.076-2.564-2.558-2.564c-2.966,0-7.614,4.739-10.24,7.383h-0.136c1.349-2.021,2.224-3.652,2.224-5.208
		c0-1.167-0.739-2.175-1.951-2.175c-1.213,0-3.705,1.786-9.365,7.383l-0.47,0.465l0.401,0.467l0.405-0.389
		c5.524-5.362,7.948-7.305,9.028-7.305c0.538,0,0.605,0.388,0.605,0.932c0,1.011-2.561,3.887-4.647,6.295L156.425,35.608z"/>
</g>
<g>
	<path fill-rule="evenodd" clip-rule="evenodd" fill="#FFFFFF" d="M103.751,97.202c0,0,7.654-0.923,8.781,7.018
		c1.062,7.452,0.765,13.284,0.476,15.224c-0.296,1.943-1.568,7.297-4.977,7.215c-3.322-0.078-4.13-1.27-4.35-4.639
		c-0.22-3.368,0-20.496,0-20.496L103.751,97.202z M103.434,66.703c0,0,6.602-0.631,7.591,6.078
		c0.985,6.712,0.244,11.553-0.25,13.427c-0.491,1.863-1.15,5.977-7.34,5.892v-13.32V68.045V66.703z M88.18,60.534
		c0,0,13.283,0.625,17.323,0.356c4.042-0.267,11.135-1.871,15.425,5.644c4.284,7.509,2.062,20.994-0.992,22.431
		c0,0-2.571,2.85-3.887,3.397c-1.314,0.555-1.66,0.998-0.742,1.355c0.919,0.354,7.755,0.547,10.398,10.735
		c2.642,10.186-2.148,20.114-2.56,20.915c-0.412,0.8-4.027,6.801-9.562,6.622c-5.534-0.175-19.052,0-20.871,0.088
		c-1.824,0.091-4.702,0.267-4.702,0.267v-5.197c0,0,4.29,0.197,4.29-3.47v-17.092V88.964v-13.14c0,0-0.086-2.759,0-4.646
		c0.08-1.887-0.836-4.542-1.907-5.181c-1.068-0.636-2.301-0.636-2.301-0.636L88.18,60.534z"/>
	<path fill-rule="evenodd" clip-rule="evenodd" fill="#FFFFFF" d="M144.224,81.578l3.356,20.585h-7.481l3.734-20.59L144.224,81.578z
		 M143.257,60.491h8.252l4.899,27.544l4.012,22.444c0,0,1.635,9.99,2.312,12.369c0.674,2.383,2.602,4.581,4.219,4.581l0.003,5.074
		h-19.76l-0.098-5.078c0,0,3.741-0.334,3.741-3.239c0-2.903-1.621-10.991-2.002-12.56c-0.388-1.567,0.287-3.741-3.746-4.052
		c-4.027-0.314-6.034-0.104-6.034-0.104s-1.928,7.377-2.316,11.641c-0.384,4.265-0.943,5.729,0.869,7.376
		c1.813,1.65,2.389,1.13,2.389,1.13v4.785h-14.671v-4.889c0,0,4.634-0.502,5.863-8.402l5.55-25.371l3.741-19.646L143.257,60.491z"/>
	<path fill-rule="evenodd" clip-rule="evenodd" fill="#FFFFFF" d="M252.01,60.863h16.088v5.065c0,0-3.479,0.8-2.425,5.216
		c1.055,4.413,6.183,19.111,6.183,19.111l1.334,4.302l5.128-17.968c0,0,0.488-0.726,1.125-5.906
		c0.633-5.175-2.705-5.058-2.705-5.058v-4.533h12.351l-0.021,4.761c0,0-1.757-0.269-3.549,4.263
		c-1.79,4.529-6.075,20.711-6.075,20.711l-3.656,11.993l-0.104,19.226c0,0-0.39,5.405,2.843,5.864l0.003,4.528h-18.159l-0.104-4.95
		c0,0,4.284-0.799,4.284-5.102c0-4.302,0-18.996,0-18.996l-9.095-30.879c0,0-2.285-6.05-3.445-6.466V60.863z"/>
	<path fill-rule="evenodd" clip-rule="evenodd" fill="#FFFFFF" d="M217.37,60.861h29.96v18.201h-2.6c0,0,0.073-8.803-3.074-10.851
		c-3.154-2.053-5.362-1.366-6.862-1.366c-1.495,0-2.127,1.366-1.972,5.208c0.159,3.845-0.155,20.255-0.155,20.255
		s5.203,0.513,7.095-1.027c1.895-1.536,2.205-6.491,2.126-7.688l2.526-0.001v22.728h-2.917c0,0,0.236-7.008-3.235-7.86
		c-3.468-0.856-5.439-0.342-5.439-0.342v22.901c0,0-0.865,5.211,4.81,5.382c5.678,0.171,7.804-2.819,8.754-4.528
		c0.944-1.708,2.204-9.998,2.204-9.998l2.758,1.28c0,0-2.52,14.527-2.053,19.056l-31.925-0.341v-4.356c0,0,4.024,0.938,4.024-7.519
		c0-8.462,0-27.346,0-27.346s0-15.978,0-18.117c0-2.138,0.708-6.407-1.187-8.031c-1.888-1.624-2.838-0.941-2.838-0.941V60.861z"/>
	<path fill-rule="evenodd" clip-rule="evenodd" fill="#FFFFFF" d="M170.815,60.578h15.595l6.725,18.905l9.606,23.874l-0.076-24.272
		c0,0,0-6.169,0-7.854c0-1.679-0.734-4.406-2.216-4.966c-1.478-0.556-2.661-0.639-2.661-0.639V60.74h14.485v5.365
		c0,0-4.061-0.878-4.876,3.126l-0.15,11.134v16.581v7.528l0.077,21.953v5.929h-3.249l-6.063-12.655l-7.614-16.985l-5.913-14.337
		l-4.214-9.858v18.426v19.307c0,0-0.148,1.604,0.447,5.209c0.589,3.603,1.253,4.966,4.948,5.525l0.002,5.528h-15.076v-5.046
		c0,0,4.436,0.079,4.506-3.444c0.077-3.524,0-18.347,0-18.347V88.298c0,0,0.077-11.216,0.152-15.223
		c0.074-4.004,0.44-5.61-2.444-6.97l-1.99-0.557V60.578z"/>
	<path fill-rule="evenodd" clip-rule="evenodd" fill="#FFFFFF" d="M60.474,60.813H42.15V65.4c0,0,2.566,0.352,3.354,2.15
		c0.78,1.799,0.976,5.466,0.976,6.419c0,0.951,0.095,24.026,0.095,24.026s0.101,19.756,1.888,25.083
		c1.77,5.27,3.448,8.751,10.739,10.795c7.289,2.047,16.856-4.026,17.442-13.336c0,0,1.565-15.274,1.667-23.073
		c0.094-7.796,0.195-16.333,0.195-18.591c0-2.256-0.195-7.235,0-8.855c0.195-1.618,0.78-3.173,2.471-3.738
		c1.693-0.563,3.255-0.563,3.255-0.563V60.39H68.769v5.221c0,0,3.939,0.352,4.04,4.302c0.095,3.95,0.095,18.982,0.095,18.982v15.38
		c0,0,0,4.935-0.095,8.463c-0.101,3.532-0.687,10.056-3.454,12.065c-2.764,2.013-7.026,2.862-9.076-2.359
		c-2.053-5.223-2.443-14.215-2.443-18.169c0-3.95-0.098-17.395,0-21.449c0.097-4.061-0.098-6.769,0-9.631
		c0.097-2.859,0.292-5.19,0.78-6.279c0.489-1.091,1.858-1.517,1.858-1.517V60.813z"/>
	<path fill-rule="evenodd" clip-rule="evenodd" fill="#FFFFFF" d="M37.513,83.343l0.052-20.222c0,0-10.056-6.79-21.53-2.943
		c0,0-8.93,3.662-12.725,18.503c0,0-2.001,7.531-2.044,17.123c-0.042,10.193,1.077,16.753,2.78,20.942c0,0,1.172,4.873,5.814,11.442
		c4.434,6.274,12.354,6.078,15.215,5.697c4.018-0.535,11.239-4.678,11.582-5.514c0.342-0.833,1.924-20.664,1.924-20.664
		l-2.865,0.093c0,0-1.751,15.381-6.58,18.023c-4.83,2.642-9.278,1.662-13.082-7.232c0,0-2.691-7.872-2.773-18.943
		c-0.088-11.073,0.384-13.112,0.897-16.307c0.509-3.196,1.876-11.489,5.766-16.401c3.89-4.914,9.827-1.342,10.9,1.02
		c1.068,2.363,2.319,4.788,3.631,11.166c0.698,3.381,0.562,4.214,0.562,4.214L37.513,83.343z"/>
</g>
</svg>
