<?xml version="1.0" encoding="utf-8"?>
<!-- Generator: Adobe Illustrator 16.0.4, SVG Export Plug-In . SVG Version: 6.00 Build 0)  -->
<!DOCTYPE svg PUBLIC "-//W3C//DTD SVG 1.1//EN" "http://www.w3.org/Graphics/SVG/1.1/DTD/svg11.dtd">
<svg version="1.1" id="Layer_1" xmlns="http://www.w3.org/2000/svg" xmlns:xlink="http://www.w3.org/1999/xlink" x="0px" y="0px"
	 width="166.896px" height="18.883px" viewBox="0 0 166.896 18.883" enable-background="new 0 0 166.896 18.883"
	 xml:space="preserve">
<path fill="#969696" d="M166.818,15.564c0,0.409-0.079,0.796-0.236,1.164c-0.149,0.357-0.361,0.673-0.634,0.946
	c-0.276,0.285-0.595,0.503-0.952,0.652c-0.375,0.157-0.766,0.236-1.171,0.236c-0.409,0-0.797-0.079-1.163-0.236
	c-0.358-0.149-0.676-0.367-0.953-0.652c-0.281-0.273-0.496-0.589-0.646-0.946c-0.148-0.368-0.224-0.755-0.224-1.164
	c0-0.405,0.075-0.791,0.224-1.158c0.15-0.356,0.365-0.675,0.646-0.952c0.277-0.273,0.595-0.488,0.953-0.646
	c0.366-0.148,0.754-0.223,1.163-0.223c0.405,0,0.796,0.074,1.171,0.223c0.357,0.158,0.676,0.373,0.952,0.646
	c0.272,0.277,0.484,0.596,0.634,0.952C166.739,14.773,166.818,15.159,166.818,15.564 M137.499,0.294h7.009l-4.035,18.289h-14.438
	l-1.784-5.877h-0.122l-1.291,5.877h-6.855l4.042-18.289h8.466c1.126,0,2.125,0.115,2.999,0.345l1.279,0.448
	c0.383,0.188,0.732,0.405,1.048,0.652c0.312,0.26,0.578,0.552,0.8,0.876c0.226,0.333,0.395,0.697,0.505,1.093
	c0.115,0.414,0.178,0.863,0.186,1.349c0,0.499-0.06,1.028-0.179,1.586c-0.157,0.695-0.364,1.293-0.62,1.796
	c-0.256,0.507-0.577,0.947-0.966,1.317c-0.375,0.358-0.833,0.674-1.375,0.946c-0.503,0.256-1.06,0.47-1.669,0.64
	c0.337,0.562,0.584,0.995,0.742,1.298l2.423,5.021L137.499,0.294z M127.836,5.557c-0.29-0.175-0.797-0.262-1.521-0.262h-0.537
	l-0.679,3.102h0.486c0.708,0,1.254-0.087,1.638-0.262c0.26-0.11,0.468-0.264,0.626-0.46c0.179-0.213,0.306-0.481,0.378-0.806
	C128.363,6.228,128.233,5.791,127.836,5.557 M156.631,0.294h7.648l-8.007,8.894l4.617,9.395h-8.146l-2.104-5.532l-0.455-1.055
	c-0.166-0.413-0.249-0.774-0.249-1.081h-0.147l-1.541,7.668h-6.829l4.035-18.289h6.836l-1.899,7.935h0.153
	c0.184-0.413,0.658-1.104,1.426-2.072L156.631,0.294z M91.874,10.915h-0.147l-1.542,7.668h-6.829l4.035-18.289h6.835l-1.899,7.935
	h0.153c0.184-0.413,0.659-1.104,1.426-2.072l4.662-5.863h7.647l-8.005,8.894l4.617,9.395h-8.147l-2.104-5.532l-0.454-1.055
	C91.957,11.583,91.874,11.222,91.874,10.915 M116.723,0.269v0.026h2.206l-4.035,18.289h-7.009l2.597-11.767h-8.729l5.871-6.522
	h-0.02l0.077-0.026H116.723z M52.937,1.752c0.614-0.379,1.603-0.814,2.967-1.305C56.962,0.149,58.023,0,59.089,0
	c1.108,0,2.14,0.13,3.094,0.39c0.963,0.264,1.856,0.665,2.68,1.202l-2.941,4.7c-0.576-0.439-1.145-0.768-1.708-0.985
	c-0.665-0.273-1.348-0.41-2.046-0.41c-0.383,0-0.729,0.068-1.036,0.205c-0.384,0.174-0.616,0.43-0.697,0.767
	c-0.056,0.294,0.068,0.514,0.371,0.659c0.102,0.051,0.383,0.134,0.844,0.249l1.521,0.326c0.729,0.167,1.36,0.384,1.893,0.652
	c0.58,0.286,1.044,0.633,1.394,1.042c0.379,0.435,0.625,0.938,0.735,1.509c0.043,0.209,0.069,0.427,0.077,0.652L65.63,0.294h7.002
	l-2.75,12.412h5.883l-1.285,5.877H61.589l1.061-4.815c-0.017,0.039-0.036,0.077-0.057,0.115c-0.222,0.464-0.499,0.905-0.832,1.323
	c-0.312,0.405-0.667,0.782-1.068,1.132l-1.272,0.908c-1.275,0.635-2.259,1.04-2.954,1.215c-1.041,0.281-2.094,0.422-3.159,0.422
	c-1.654-0.115-2.891-0.265-3.709-0.447c-1.582-0.478-2.692-0.891-3.332-1.24l3.293-5.161l0.294,0.275
	c0.58,0.503,1.177,0.893,1.791,1.17c0.72,0.332,1.456,0.499,2.206,0.499c0.443,0,0.848-0.079,1.215-0.237
	c0.464-0.199,0.737-0.483,0.818-0.851c0.128-0.553-0.313-0.895-1.324-1.022l-1.368-0.249c-0.678-0.119-1.285-0.301-1.822-0.544
	c-0.567-0.264-1.027-0.592-1.381-0.985c-0.383-0.409-0.644-0.882-0.78-1.419c-0.136-0.576-0.128-1.207,0.026-1.893
	c0.115-0.541,0.288-1.055,0.518-1.541c0.226-0.473,0.503-0.925,0.832-1.355C51.006,3.323,51.791,2.613,52.937,1.752 M82.41,18.583
	h-7.008l4.035-18.289h7.009L82.41,18.583z"/>
<g>
	<path fill="#969696" d="M1.804,9.726h0.014l1.649-3.411H4.56l0.494,3.411h0.014l1.537-3.411h1.429l-2.528,5.281h-1.4L3.667,8.535
		H3.653L2.13,11.596H0.736L0,6.315h1.429L1.804,9.726z"/>
	<path fill="#969696" d="M9.56,7.478L9.419,8.36h1.548l-0.185,1.163H9.235l-0.145,0.91h1.632l-0.185,1.163H7.532l0.84-5.281h3.005
		l-0.185,1.163H9.56z"/>
	<path fill="#969696" d="M11.382,11.596l0.84-5.281h1.961c0.938,0,1.511,0.364,1.351,1.373c-0.076,0.477-0.291,0.861-0.753,1.079
		L14.779,8.78c0.741,0.098,0.981,0.609,0.865,1.345c-0.176,1.106-1.18,1.471-2.146,1.471H11.382z M12.922,10.545h0.175
		c0.406,0,1.089,0.021,1.182-0.561c0.102-0.637-0.588-0.574-1.036-0.574h-0.14L12.922,10.545z M13.265,8.388h0.154
		c0.364,0,0.752-0.063,0.824-0.512c0.077-0.483-0.346-0.511-0.717-0.511h-0.098L13.265,8.388z"/>
	<path fill="#969696" d="M19.645,7.674c-0.219-0.21-0.519-0.351-0.855-0.351c-0.252,0-0.612,0.147-0.658,0.441
		c-0.049,0.308,0.303,0.427,0.529,0.504l0.333,0.105c0.701,0.217,1.209,0.588,1.073,1.442c-0.083,0.525-0.295,1.064-0.772,1.422
		c-0.469,0.351-1.045,0.497-1.578,0.497c-0.666,0-1.281-0.224-1.76-0.602l0.764-1.106c0.295,0.301,0.663,0.546,1.132,0.546
		c0.322,0,0.691-0.161,0.75-0.532c0.062-0.386-0.457-0.519-0.738-0.603c-0.822-0.245-1.354-0.469-1.191-1.492
		c0.17-1.072,1.045-1.772,2.103-1.772c0.532,0,1.157,0.168,1.583,0.434L19.645,7.674z"/>
	<path fill="#969696" d="M21.806,11.596h-1.373l0.84-5.281h1.373L21.806,11.596z"/>
	<path fill="#969696" d="M24.802,11.596H23.43l0.655-4.118H22.95l0.185-1.163h3.642l-0.185,1.163h-1.134L24.802,11.596z"/>
	<path fill="#969696" d="M28.46,7.478L28.319,8.36h1.548l-0.185,1.163h-1.548l-0.145,0.91h1.632l-0.185,1.163h-3.004l0.84-5.281
		h3.005l-0.185,1.163H28.46z"/>
	<path fill="#969696" d="M32.683,11.596l0.84-5.281h1.961c0.938,0,1.511,0.364,1.351,1.373c-0.076,0.477-0.291,0.861-0.753,1.079
		L36.079,8.78c0.741,0.098,0.981,0.609,0.865,1.345c-0.176,1.106-1.18,1.471-2.146,1.471H32.683z M34.223,10.545h0.175
		c0.406,0,1.089,0.021,1.182-0.561c0.102-0.637-0.588-0.574-1.036-0.574h-0.14L34.223,10.545z M34.565,8.388h0.154
		c0.364,0,0.752-0.063,0.824-0.512c0.077-0.483-0.346-0.511-0.717-0.511h-0.098L34.565,8.388z"/>
	<path fill="#969696" d="M37.681,6.315h1.646l0.759,1.436l1.216-1.436h1.646l-2.384,2.746l-0.403,2.535h-1.373l0.403-2.535
		L37.681,6.315z"/>
</g>
</svg>
