<?xml version="1.0" encoding="utf-8"?>
<!-- Generator: Adobe Illustrator 16.0.4, SVG Export Plug-In . SVG Version: 6.00 Build 0)  -->
<!DOCTYPE svg PUBLIC "-//W3C//DTD SVG 1.1//EN" "http://www.w3.org/Graphics/SVG/1.1/DTD/svg11.dtd">
<svg version="1.1" xmlns="http://www.w3.org/2000/svg" xmlns:xlink="http://www.w3.org/1999/xlink" x="0px" y="0px" width="620px"
	 height="620px" viewBox="0 0 620 620" enable-background="new 0 0 620 620" xml:space="preserve">
<g id="Layer_1">
	<g>
		<g>
			<path fill="#FFFFFF" d="M430.762,95.388c-0.009,0.012,2.045,1.296,5.754,3.921c3.707,2.625,9.061,6.612,15.443,12.213
				c6.369,5.601,13.753,12.844,21.344,21.93c7.586,9.079,15.376,20.007,22.513,32.729c7.14,12.714,13.631,27.224,18.685,43.184
				c5.062,15.953,8.676,33.36,10.164,51.594c1.491,18.231,0.833,37.299-2.5,56.272c-3.309,18.969-9.326,37.831-18.067,55.407
				c-8.713,17.588-20.15,33.84-33.497,47.88c-13.334,14.063-28.524,25.899-44.332,35.458c-15.82,9.58-32.229,16.919-48.245,22.52
				c-8.016,2.843-15.96,5.069-23.51,7.384c-7.568,2.311-14.842,4.615-21.679,7.145c-6.834,2.524-13.232,5.286-19.024,8.417
				c-5.797,3.116-10.983,6.59-15.514,10.301c-9.075,7.413-15.506,15.595-20.287,22.701c-4.77,7.136-7.957,13.243-10.124,17.532
				c-2.148,4.302-3.263,6.819-3.433,7.166c-2.584,5.582-5.737,9.698-7.329,9.057c-1.573-0.639-0.945-5.907,1.713-11.655
				c0.173-0.354,1.34-2.928,3.599-7.34c2.278-4.396,5.619-10.674,10.677-18.082c5.054-7.37,11.932-15.956,21.653-23.743
				c4.847-3.891,10.385-7.521,16.491-10.731c6.11-3.216,12.767-6.011,19.789-8.524c7.022-2.521,14.409-4.777,22.036-7.022
				c7.643-2.264,15.507-4.383,23.393-7.093c15.802-5.354,31.997-12.408,47.617-21.656c15.612-9.234,30.632-20.692,43.856-34.372
				c13.238-13.651,24.639-29.502,33.385-46.729c8.776-17.214,14.893-35.751,18.354-54.466c3.478-18.713,4.323-37.583,3.022-55.673
				c-1.292-18.098-4.706-35.417-9.577-51.321c-4.868-15.908-11.178-30.41-18.159-43.137c-6.985-12.74-14.636-23.708-22.115-32.835
				c-7.472-9.138-14.771-16.439-21.076-22.1c-6.317-5.656-11.629-9.691-15.303-12.357C432.791,96.706,430.753,95.399,430.762,95.388
				z"/>
		</g>
		<g>
			<path fill="#FFFFFF" d="M190.264,95.388c0.007,0.012-2.027,1.318-5.715,3.973c-3.674,2.666-8.986,6.701-15.303,12.357
				c-6.306,5.66-13.604,12.962-21.081,22.1c-7.476,9.126-15.129,20.095-22.11,32.835c-6.981,12.727-13.294,27.229-18.161,43.137
				c-4.87,15.904-8.285,33.223-9.577,51.321c-1.299,18.09-0.458,36.959,3.021,55.673c3.459,18.715,9.58,37.252,18.356,54.466
				c8.746,17.227,20.147,33.077,33.386,46.729c13.224,13.68,28.239,25.138,43.856,34.372c15.617,9.248,31.816,16.303,47.618,21.656
				c7.886,2.71,15.75,4.829,23.392,7.093c7.627,2.245,15.012,4.501,22.033,7.022c7.022,2.514,13.682,5.309,19.792,8.524
				c6.106,3.211,11.645,6.841,16.491,10.731c9.717,7.787,16.596,16.373,21.652,23.743c5.055,7.408,8.399,13.686,10.678,18.082
				c2.26,4.412,3.422,6.985,3.597,7.34c2.661,5.748,3.288,11.017,1.712,11.655c-1.587,0.642-4.744-3.475-7.328-9.057
				c-0.166-0.347-1.281-2.864-3.434-7.166c-2.167-4.289-5.353-10.396-10.123-17.532c-4.777-7.106-11.208-15.288-20.287-22.701
				c-4.525-3.711-9.717-7.185-15.51-10.301c-5.796-3.131-12.19-5.893-19.024-8.417c-6.841-2.529-14.114-4.834-21.682-7.145
				c-7.546-2.314-15.495-4.541-23.506-7.384c-16.015-5.601-32.426-12.939-48.245-22.52c-15.813-9.559-30.997-21.395-44.332-35.458
				c-13.347-14.04-24.784-30.292-33.5-47.88c-8.739-17.576-14.756-36.438-18.068-55.407c-3.33-18.973-3.987-38.041-2.496-56.272
				c1.484-18.234,5.099-35.641,10.161-51.594c5.054-15.96,11.548-30.469,18.684-43.184c7.14-12.722,14.926-23.65,22.517-32.729
				c7.587-9.085,14.971-16.329,21.343-21.93c6.38-5.601,11.737-9.588,15.44-12.213C188.222,96.684,190.271,95.399,190.264,95.388z"
				/>
		</g>
		<path fill="#FFFFFF" d="M339.958,479.69c-6.622-10.345,18.91-46.81,34.177-52.931C374.841,443.189,352.108,481.467,339.958,479.69
			z"/>
		<path fill="#FFFFFF" d="M346.889,494.827c3.227,11.852,47.399,17.378,62.175,10.159
			C397.353,493.446,353.715,484.626,346.889,494.827z"/>
		<path fill="#FFFFFF" d="M374.087,468.778c-7.138-9.994,16.524-47.703,31.458-54.586
			C407.081,430.567,386.307,469.94,374.087,468.778z"/>
		<path fill="#FFFFFF" d="M381.773,481.928c3.817,11.67,48.215,14.96,62.606,7.008C432.104,478,388.075,471.395,381.773,481.928z"/>
		<path fill="#FFFFFF" d="M408.798,457.514c-8.946-8.414,6.933-50.011,20.246-59.661
			C433.732,413.617,421.011,456.277,408.798,457.514z"/>
		<path fill="#FFFFFF" d="M417.521,468.257c6.018,10.702,50.206,5.299,62.773-5.302
			C466.129,454.615,421.656,456.697,417.521,468.257z"/>
		<path fill="#FFFFFF" d="M437.712,440.076c-10.138-6.922-0.903-50.475,10.751-62.075
			C455.537,392.847,449.589,436.965,437.712,440.076z"/>
		<path fill="#FFFFFF" d="M449.815,448.568c7.604,9.639,50.423-2.555,61.192-14.979C495.72,427.551,452.11,436.503,449.815,448.568z
			"/>
		<path fill="#FFFFFF" d="M464.243,415.726c-11.198-5.044-9.732-49.538-0.289-62.999
			C473.516,366.103,475.388,410.579,464.243,415.726z"/>
		<path fill="#FFFFFF" d="M477.877,422.99c9.174,8.163,49.194-11.344,57.622-25.459C519.389,394.261,478.021,410.716,477.877,422.99
			z"/>
		<path fill="#FFFFFF" d="M486.25,386.928c-12.018-2.517-20.147-46.288-13.815-61.462
			C484.65,336.475,496.029,379.508,486.25,386.928z"/>
		<path fill="#FFFFFF" d="M499.031,390.538c9.975,7.163,47.746-16.396,54.662-31.313C537.33,357.647,497.9,378.312,499.031,390.538z
			"/>
		<path fill="#FFFFFF" d="M503.875,353.214c-12.272,0.443-30.684-40.094-28.184-56.342
			C490.196,304.622,511.586,343.659,503.875,353.214z"/>
		<path fill="#FFFFFF" d="M516.604,356.865c11.256,4.896,43.206-26.102,46.82-42.142
			C547.095,316.631,512.912,345.155,516.604,356.865z"/>
		<path fill="#FFFFFF" d="M515.058,321.571c-12.109,2.045-35.675-35.727-35.332-52.163
			C495.125,275.19,521.448,311.09,515.058,321.571z"/>
		<path fill="#FFFFFF" d="M526.853,322.568c12.143,1.809,34.966-36.414,34.302-52.842
			C545.877,275.803,520.26,312.212,526.853,322.568z"/>
		<path fill="#FFFFFF" d="M517.508,283.493c-11.562,4.135-41.377-28.926-43.909-45.17
			C489.765,241.321,521.965,272.052,517.508,283.493z"/>
		<path fill="#FFFFFF" d="M533.935,285.088c12.193-1.421,24.262-44.269,19.334-59.956
			C540.11,234.982,524.866,276.811,533.935,285.088z"/>
		<path fill="#FFFFFF" d="M516.128,251.3c-11.014,5.434-44.417-24.001-48.796-39.851C483.736,212.58,519.244,239.427,516.128,251.3z
			"/>
		<path fill="#FFFFFF" d="M528.983,246.708c12.205-1.341,24.554-44.111,19.732-59.827
			C535.488,196.642,519.975,238.367,528.983,246.708z"/>
		<path fill="#FFFFFF" d="M509.727,219.195c-11.073,5.309-44.155-24.481-48.363-40.375
			C477.755,180.128,512.972,207.352,509.727,219.195z"/>
		<path fill="#FFFFFF" d="M522.176,215.315c11.699-3.714,15.384-48.079,7.557-62.541
			C518.687,164.951,511.697,208.917,522.176,215.315z"/>
		<path fill="#FFFFFF" d="M498.145,183.617c-9.927,7.229-47.851-16.093-54.861-30.968
			C459.642,150.969,499.197,171.386,498.145,183.617z"/>
		<path fill="#FFFFFF" d="M509.667,180.541c10.976-5.505,7.646-49.903-2.352-62.954
			C498.318,131.347,498.318,175.868,509.667,180.541z"/>
		<path fill="#FFFFFF" d="M478.557,146.72c-7.547,9.691-50.439-2.23-61.29-14.583C432.519,125.997,476.182,134.673,478.557,146.72z"
			/>
		<path fill="#FFFFFF" d="M491.37,144.091c9.795-7.41-1.539-50.46-13.741-61.481C471.282,97.777,479.361,141.552,491.37,144.091z"/>
		<path fill="#FFFFFF" d="M451.689,120.179c-7.269,9.901-50.482-0.805-61.68-12.848
			C405.087,100.763,448.976,108.206,451.689,120.179z"/>
		<path fill="#FFFFFF" d="M434.723,98.223c-9.585,7.676-48.546-13.87-56.235-28.409C394.75,67.385,435.21,85.959,434.723,98.223z"/>
		<path fill="#FFFFFF" d="M463.932,113.268c9.478-7.805-3.614-50.354-16.258-60.864C441.951,67.817,451.826,111.226,463.932,113.268
			z"/>
		<path fill="#FFFFFF" d="M280.35,479.69c6.624-10.345-18.914-46.81-34.175-52.931C245.469,443.189,268.203,481.467,280.35,479.69z"
			/>
		<path fill="#FFFFFF" d="M273.42,494.827c-3.226,11.852-47.4,17.378-62.175,10.159C222.956,493.446,266.593,484.626,273.42,494.827
			z"/>
		<path fill="#FFFFFF" d="M246.222,468.778c7.136-9.994-16.524-47.703-31.462-54.586
			C213.228,430.567,233.999,469.94,246.222,468.778z"/>
		<path fill="#FFFFFF" d="M238.536,481.928c-3.817,11.67-48.216,14.96-62.607,7.008C188.208,478,232.234,471.395,238.536,481.928z"
			/>
		<path fill="#FFFFFF" d="M211.515,457.514c8.942-8.414-6.938-50.011-20.246-59.661C186.58,413.617,199.298,456.277,211.515,457.514
			z"/>
		<path fill="#FFFFFF" d="M202.787,468.257c-6.018,10.702-50.209,5.299-62.776-5.302
			C154.18,454.615,198.652,456.697,202.787,468.257z"/>
		<path fill="#FFFFFF" d="M182.596,440.076c10.138-6.922,0.905-50.475-10.751-62.075
			C164.772,392.847,170.72,436.965,182.596,440.076z"/>
		<path fill="#FFFFFF" d="M170.494,448.568c-7.605,9.639-50.42-2.555-61.192-14.979
			C124.589,427.551,168.202,436.503,170.494,448.568z"/>
		<path fill="#FFFFFF" d="M156.066,415.726c11.197-5.044,9.732-49.538,0.288-62.999C146.789,366.103,144.92,410.579,156.066,415.726
			z"/>
		<path fill="#FFFFFF" d="M142.432,422.99c-9.178,8.163-49.194-11.344-57.623-25.459
			C100.917,394.261,142.284,410.716,142.432,422.99z"/>
		<path fill="#FFFFFF" d="M134.059,386.928c12.017-2.517,20.147-46.288,13.815-61.462
			C135.661,336.475,124.279,379.508,134.059,386.928z"/>
		<path fill="#FFFFFF" d="M121.278,390.538c-9.975,7.163-47.748-16.396-54.662-31.313
			C82.979,357.647,122.407,378.312,121.278,390.538z"/>
		<path fill="#FFFFFF" d="M116.438,353.214c12.271,0.443,30.68-40.094,28.18-56.342
			C130.116,304.622,108.725,343.659,116.438,353.214z"/>
		<path fill="#FFFFFF" d="M103.708,356.865c-11.26,4.896-43.213-26.102-46.824-42.142
			C73.209,316.631,107.396,345.155,103.708,356.865z"/>
		<path fill="#FFFFFF" d="M105.255,321.571c12.106,2.045,35.671-35.727,35.328-52.163C125.184,275.19,98.861,311.09,105.255,321.571
			z"/>
		<path fill="#FFFFFF" d="M93.456,322.568c-12.143,1.809-34.966-36.414-34.301-52.842
			C74.432,275.803,100.049,312.212,93.456,322.568z"/>
		<path fill="#FFFFFF" d="M102.796,283.493c11.563,4.135,41.378-28.926,43.915-45.17
			C130.544,241.321,98.344,272.052,102.796,283.493z"/>
		<path fill="#FFFFFF" d="M86.375,285.088c-12.198-1.421-24.263-44.269-19.334-59.956C80.202,234.982,95.442,276.811,86.375,285.088
			z"/>
		<path fill="#FFFFFF" d="M104.181,251.3c11.013,5.434,44.421-24.001,48.795-39.851C136.573,212.58,101.064,239.427,104.181,251.3z"
			/>
		<path fill="#FFFFFF" d="M91.326,246.708c-12.206-1.341-24.559-44.111-19.733-59.827C84.82,196.642,100.337,238.367,91.326,246.708
			z"/>
		<path fill="#FFFFFF" d="M110.582,219.195c11.072,5.309,44.155-24.481,48.364-40.375
			C142.554,180.128,107.337,207.352,110.582,219.195z"/>
		<path fill="#FFFFFF" d="M98.137,215.315c-11.707-3.714-15.384-48.079-7.561-62.541
			C101.626,164.951,108.611,208.917,98.137,215.315z"/>
		<path fill="#FFFFFF" d="M122.164,183.617c9.928,7.229,47.854-16.093,54.861-30.968
			C160.667,150.969,121.112,171.386,122.164,183.617z"/>
		<path fill="#FFFFFF" d="M110.642,180.541c-10.977-5.505-7.642-49.903,2.352-62.954C121.99,131.347,121.99,175.868,110.642,180.541
			z"/>
		<path fill="#FFFFFF" d="M141.753,146.72c7.542,9.691,50.438-2.23,61.292-14.583C187.787,125.997,144.127,134.673,141.753,146.72z"
			/>
		<path fill="#FFFFFF" d="M128.938,144.091c-9.791-7.41,1.539-50.46,13.741-61.481C149.029,97.777,140.948,141.552,128.938,144.091z
			"/>
		<path fill="#FFFFFF" d="M168.618,120.179c7.267,9.901,50.483-0.805,61.677-12.848
			C215.222,100.763,171.332,108.206,168.618,120.179z"/>
		<path fill="#FFFFFF" d="M185.586,98.223c9.588,7.676,48.545-13.87,56.235-28.409C225.555,67.385,185.103,85.959,185.586,98.223z"
			/>
		<path fill="#FFFFFF" d="M156.377,113.268c-9.481-7.805,3.618-50.354,16.259-60.864
			C178.358,67.817,168.482,111.226,156.377,113.268z"/>
	</g>
</g>
<g id="Layer_2">
	<g>
		<path fill="#FFFFFF" d="M302.709,213.309c2.677,2.896,4.577,6.08,5.7,9.553c1.121,3.474,1.683,6.877,1.683,10.205
			c0,3.62-0.76,7.653-2.28,12.104c-1.52,4.451-3.69,8.414-6.514,11.887c-3.112,3.837-7.238,7.365-12.376,10.585
			c-5.14,3.221-11.436,5.808-18.89,7.762l-0.651,1.737c3.474,0.29,7.146,1.069,11.019,2.334c3.871,1.267,7.328,2.985,10.368,5.157
			c3.184,2.317,5.79,5.303,7.816,8.957c2.025,3.655,3.04,8.017,3.04,13.082c0,8.25-1.9,15.833-5.7,22.744
			c-3.8,6.91-8.776,12.719-14.927,17.424c-6.442,4.921-13.733,8.721-21.875,11.399c-8.142,2.677-16.846,4.017-26.109,4.017
			c-11.653,0-21.278-2.589-28.877-7.763c-7.6-5.175-11.399-11.562-11.399-19.16c0-4.706,1.34-8.867,4.017-12.485
			s6.259-5.428,10.748-5.428c3.979,0,6.911,0.96,8.793,2.877c1.881,1.918,2.823,4.071,2.823,6.459c0,3.111-0.833,6.313-2.497,9.608
			c-1.666,3.292-3.004,6.024-4.017,8.196c0.361,0.505,1.085,1.303,2.171,2.388c1.086,1.086,2.605,2.135,4.56,3.148
			c1.954,1.013,4.397,1.9,7.328,2.66s6.313,1.14,10.15,1.14c4.777,0,9.716-1.104,14.819-3.312c5.102-2.208,9.57-5.302,13.407-9.281
			c4.052-4.271,7.309-9.355,9.771-15.253c2.459-5.898,3.691-12.974,3.691-21.224c0-6.658-2.19-11.742-6.568-15.253
			c-4.38-3.509-10.802-5.265-19.27-5.265h-14.547l2.823-12.05h9.662c11.145,0,19.975-3.925,26.489-11.779
			c6.514-7.852,9.771-17.604,9.771-29.257c0-6.585-1.666-11.598-4.994-15.036c-3.33-3.437-8.288-5.157-14.873-5.157
			c-5.067,0-9.662,0.96-13.787,2.877c-4.125,1.918-7.274,4.071-9.445,6.459c0,0.797,0.035,2.045,0.108,3.745
			c0.071,1.701,0.108,3.528,0.108,5.482c0,6.948-1.449,12.05-4.342,15.307c-2.896,3.257-7.238,4.885-13.027,4.885
			c-3.547,0-6.025-0.923-7.437-2.769c-1.411-1.845-2.117-4.142-2.117-6.894c0-4.196,1.23-8.359,3.691-12.484
			c2.459-4.125,6.224-8.178,11.29-12.159c4.487-3.545,10.276-6.568,17.37-9.065c7.092-2.497,14.691-3.746,22.798-3.746
			c7.382,0,13.587,0.996,18.618,2.985C295.852,207.646,299.813,210.198,302.709,213.309z"/>
		<path fill="#FFFFFF" d="M447.965,246.962c0,10.351-1.864,20.338-5.591,29.963c-3.729,9.626-8.812,17.986-15.253,25.078
			c-6.804,7.455-14.547,13.335-23.232,17.641c-8.685,4.305-18.601,6.459-29.745,6.459c-14.477,0-25.803-4.16-33.98-12.484
			c-8.179-8.322-12.267-18.744-12.267-31.266c0-10.927,1.899-21.187,5.699-30.777c3.8-9.589,9.064-18.076,15.796-25.458
			c6.585-7.236,14.42-12.954,23.503-17.152c9.082-4.197,18.689-6.297,28.823-6.297c14.836,0,26.253,4.288,34.251,12.865
			C443.965,224.11,447.965,234.586,447.965,246.962z M424.842,242.077c0-10.276-2.19-18.057-6.568-23.34
			c-4.38-5.282-10.405-7.925-18.075-7.925c-7.963,0-15.128,2.443-21.495,7.328c-6.37,4.885-11.725,11.708-16.067,20.464
			c-3.764,7.599-6.641,15.778-8.631,24.535c-1.991,8.758-2.985,16.718-2.985,23.884c0,9.699,2.099,17.28,6.297,22.743
			c4.196,5.465,10.385,8.197,18.563,8.197c7.526,0,14.438-2.226,20.735-6.677s11.833-11.453,16.61-21.006
			c4.052-8.034,7.002-16.355,8.848-24.969C423.919,256.697,424.842,248.954,424.842,242.077z"/>
	</g>
</g>
</svg>
