<?xml version="1.0" encoding="utf-8"?>
<!-- Generator: Adobe Illustrator 16.0.4, SVG Export Plug-In . SVG Version: 6.00 Build 0)  -->
<!DOCTYPE svg PUBLIC "-//W3C//DTD SVG 1.1//EN" "http://www.w3.org/Graphics/SVG/1.1/DTD/svg11.dtd">
<svg version="1.1" id="Layer_1" xmlns="http://www.w3.org/2000/svg" xmlns:xlink="http://www.w3.org/1999/xlink" x="0px" y="0px"
	 width="620px" height="620px" viewBox="0 0 620 620" enable-background="new 0 0 620 620" xml:space="preserve">
<g>
	<g>
		<path fill="#FFFFFF" d="M430.762,95.388c-0.009,0.012,2.045,1.296,5.754,3.921c3.707,2.625,9.061,6.612,15.443,12.213
			c6.369,5.601,13.753,12.844,21.344,21.93c7.586,9.079,15.376,20.007,22.513,32.729c7.14,12.714,13.631,27.224,18.685,43.184
			c5.062,15.953,8.676,33.36,10.164,51.594c1.491,18.231,0.833,37.299-2.5,56.272c-3.309,18.969-9.326,37.831-18.067,55.407
			c-8.713,17.588-20.15,33.84-33.497,47.88c-13.334,14.063-28.524,25.899-44.332,35.458c-15.82,9.58-32.229,16.919-48.245,22.52
			c-8.016,2.843-15.96,5.069-23.51,7.384c-7.568,2.311-14.842,4.615-21.679,7.145c-6.834,2.524-13.232,5.286-19.024,8.417
			c-5.797,3.116-10.983,6.59-15.514,10.301c-9.075,7.413-15.506,15.595-20.287,22.701c-4.77,7.136-7.957,13.243-10.124,17.532
			c-2.148,4.302-3.263,6.819-3.433,7.166c-2.584,5.582-5.737,9.698-7.329,9.057c-1.573-0.639-0.945-5.907,1.713-11.655
			c0.173-0.354,1.34-2.928,3.599-7.34c2.278-4.396,5.619-10.674,10.677-18.082c5.054-7.37,11.932-15.956,21.653-23.743
			c4.847-3.891,10.385-7.521,16.491-10.731c6.11-3.216,12.767-6.011,19.789-8.524c7.022-2.521,14.409-4.777,22.036-7.022
			c7.643-2.264,15.507-4.383,23.393-7.093c15.802-5.354,31.997-12.408,47.617-21.656c15.612-9.234,30.632-20.692,43.856-34.372
			c13.238-13.651,24.639-29.502,33.385-46.729c8.776-17.214,14.893-35.751,18.354-54.466c3.478-18.713,4.323-37.583,3.022-55.673
			c-1.292-18.098-4.706-35.417-9.577-51.321c-4.868-15.908-11.178-30.41-18.159-43.137c-6.985-12.74-14.636-23.708-22.115-32.835
			c-7.472-9.138-14.771-16.439-21.076-22.1c-6.317-5.656-11.629-9.691-15.303-12.357C432.791,96.706,430.753,95.399,430.762,95.388z
			"/>
	</g>
	<g>
		<path fill="#FFFFFF" d="M190.264,95.388c0.007,0.012-2.027,1.318-5.715,3.973c-3.674,2.666-8.986,6.701-15.303,12.357
			c-6.306,5.66-13.604,12.962-21.081,22.1c-7.476,9.126-15.129,20.095-22.11,32.835c-6.981,12.727-13.294,27.229-18.161,43.137
			c-4.87,15.904-8.285,33.223-9.577,51.321c-1.299,18.09-0.458,36.959,3.021,55.673c3.459,18.715,9.58,37.252,18.356,54.466
			c8.746,17.227,20.147,33.077,33.386,46.729c13.224,13.68,28.239,25.138,43.856,34.372c15.617,9.248,31.816,16.303,47.618,21.656
			c7.886,2.71,15.75,4.829,23.392,7.093c7.627,2.245,15.012,4.501,22.033,7.022c7.022,2.514,13.682,5.309,19.792,8.524
			c6.106,3.211,11.645,6.841,16.491,10.731c9.717,7.787,16.596,16.373,21.652,23.743c5.055,7.408,8.399,13.686,10.678,18.082
			c2.26,4.412,3.422,6.985,3.597,7.34c2.661,5.748,3.288,11.017,1.712,11.655c-1.587,0.642-4.744-3.475-7.328-9.057
			c-0.166-0.347-1.281-2.864-3.434-7.166c-2.167-4.289-5.353-10.396-10.123-17.532c-4.777-7.106-11.208-15.288-20.287-22.701
			c-4.525-3.711-9.717-7.185-15.51-10.301c-5.796-3.131-12.19-5.893-19.024-8.417c-6.841-2.529-14.114-4.834-21.682-7.145
			c-7.546-2.314-15.495-4.541-23.506-7.384c-16.015-5.601-32.426-12.939-48.245-22.52c-15.813-9.559-30.997-21.395-44.332-35.458
			c-13.347-14.04-24.784-30.292-33.5-47.88c-8.739-17.576-14.756-36.438-18.068-55.407c-3.33-18.973-3.987-38.041-2.496-56.272
			c1.484-18.234,5.099-35.641,10.161-51.594c5.054-15.96,11.548-30.469,18.684-43.184c7.14-12.722,14.926-23.65,22.517-32.729
			c7.587-9.085,14.971-16.329,21.343-21.93c6.38-5.601,11.737-9.588,15.44-12.213C188.222,96.684,190.271,95.399,190.264,95.388z"/>
	</g>
	<path fill="#FFFFFF" d="M339.958,479.69c-6.622-10.345,18.91-46.81,34.177-52.931C374.841,443.189,352.108,481.467,339.958,479.69z
		"/>
	<path fill="#FFFFFF" d="M346.889,494.827c3.227,11.852,47.399,17.378,62.175,10.159
		C397.353,493.446,353.715,484.626,346.889,494.827z"/>
	<path fill="#FFFFFF" d="M374.087,468.778c-7.138-9.994,16.524-47.703,31.458-54.586
		C407.081,430.567,386.307,469.94,374.087,468.778z"/>
	<path fill="#FFFFFF" d="M381.773,481.928c3.817,11.67,48.215,14.96,62.606,7.008C432.104,478,388.075,471.395,381.773,481.928z"/>
	<path fill="#FFFFFF" d="M408.798,457.514c-8.946-8.414,6.933-50.011,20.246-59.661
		C433.732,413.617,421.011,456.277,408.798,457.514z"/>
	<path fill="#FFFFFF" d="M417.521,468.257c6.018,10.702,50.206,5.299,62.773-5.302C466.129,454.615,421.656,456.697,417.521,468.257
		z"/>
	<path fill="#FFFFFF" d="M437.712,440.076c-10.138-6.922-0.903-50.475,10.751-62.075
		C455.537,392.847,449.589,436.965,437.712,440.076z"/>
	<path fill="#FFFFFF" d="M449.815,448.568c7.604,9.639,50.423-2.555,61.192-14.979C495.72,427.551,452.11,436.503,449.815,448.568z"
		/>
	<path fill="#FFFFFF" d="M464.243,415.726c-11.198-5.044-9.732-49.538-0.289-62.999
		C473.516,366.103,475.388,410.579,464.243,415.726z"/>
	<path fill="#FFFFFF" d="M477.877,422.99c9.174,8.163,49.194-11.344,57.622-25.459C519.389,394.261,478.021,410.716,477.877,422.99z
		"/>
	<path fill="#FFFFFF" d="M486.25,386.928c-12.018-2.517-20.147-46.288-13.815-61.462C484.65,336.475,496.029,379.508,486.25,386.928
		z"/>
	<path fill="#FFFFFF" d="M499.031,390.538c9.975,7.163,47.746-16.396,54.662-31.313C537.33,357.647,497.9,378.312,499.031,390.538z"
		/>
	<path fill="#FFFFFF" d="M503.875,353.214c-12.272,0.443-30.684-40.094-28.184-56.342
		C490.196,304.622,511.586,343.659,503.875,353.214z"/>
	<path fill="#FFFFFF" d="M516.604,356.865c11.256,4.896,43.206-26.102,46.82-42.142
		C547.095,316.631,512.912,345.155,516.604,356.865z"/>
	<path fill="#FFFFFF" d="M515.058,321.571c-12.109,2.045-35.675-35.727-35.332-52.163
		C495.125,275.19,521.448,311.09,515.058,321.571z"/>
	<path fill="#FFFFFF" d="M526.853,322.568c12.143,1.809,34.966-36.414,34.302-52.842
		C545.877,275.803,520.26,312.212,526.853,322.568z"/>
	<path fill="#FFFFFF" d="M517.508,283.493c-11.562,4.135-41.377-28.926-43.909-45.17
		C489.765,241.321,521.965,272.052,517.508,283.493z"/>
	<path fill="#FFFFFF" d="M533.935,285.088c12.193-1.421,24.262-44.269,19.334-59.956
		C540.11,234.982,524.866,276.811,533.935,285.088z"/>
	<path fill="#FFFFFF" d="M516.128,251.3c-11.014,5.434-44.417-24.001-48.796-39.851C483.736,212.58,519.244,239.427,516.128,251.3z"
		/>
	<path fill="#FFFFFF" d="M528.983,246.708c12.205-1.341,24.554-44.111,19.732-59.827
		C535.488,196.642,519.975,238.367,528.983,246.708z"/>
	<path fill="#FFFFFF" d="M509.727,219.195c-11.073,5.309-44.155-24.481-48.363-40.375
		C477.755,180.128,512.972,207.352,509.727,219.195z"/>
	<path fill="#FFFFFF" d="M522.176,215.315c11.699-3.714,15.384-48.079,7.557-62.541
		C518.687,164.951,511.697,208.917,522.176,215.315z"/>
	<path fill="#FFFFFF" d="M498.145,183.617c-9.927,7.229-47.851-16.093-54.861-30.968
		C459.642,150.969,499.197,171.386,498.145,183.617z"/>
	<path fill="#FFFFFF" d="M509.667,180.541c10.976-5.505,7.646-49.903-2.352-62.954C498.318,131.347,498.318,175.868,509.667,180.541
		z"/>
	<path fill="#FFFFFF" d="M478.557,146.72c-7.547,9.691-50.439-2.23-61.29-14.583C432.519,125.997,476.182,134.673,478.557,146.72z"
		/>
	<path fill="#FFFFFF" d="M491.37,144.091c9.795-7.41-1.539-50.46-13.741-61.481C471.282,97.777,479.361,141.552,491.37,144.091z"/>
	<path fill="#FFFFFF" d="M451.689,120.179c-7.269,9.901-50.482-0.805-61.68-12.848C405.087,100.763,448.976,108.206,451.689,120.179
		z"/>
	<path fill="#FFFFFF" d="M434.723,98.223c-9.585,7.676-48.546-13.87-56.235-28.409C394.75,67.385,435.21,85.959,434.723,98.223z"/>
	<path fill="#FFFFFF" d="M463.932,113.268c9.478-7.805-3.614-50.354-16.258-60.864C441.951,67.817,451.826,111.226,463.932,113.268z
		"/>
	<path fill="#FFFFFF" d="M280.35,479.69c6.624-10.345-18.914-46.81-34.175-52.931C245.469,443.189,268.203,481.467,280.35,479.69z"
		/>
	<path fill="#FFFFFF" d="M273.42,494.827c-3.226,11.852-47.4,17.378-62.175,10.159C222.956,493.446,266.593,484.626,273.42,494.827z
		"/>
	<path fill="#FFFFFF" d="M246.222,468.778c7.136-9.994-16.524-47.703-31.462-54.586C213.228,430.567,233.999,469.94,246.222,468.778
		z"/>
	<path fill="#FFFFFF" d="M238.536,481.928c-3.817,11.67-48.216,14.96-62.607,7.008C188.208,478,232.234,471.395,238.536,481.928z"/>
	<path fill="#FFFFFF" d="M211.515,457.514c8.942-8.414-6.938-50.011-20.246-59.661C186.58,413.617,199.298,456.277,211.515,457.514z
		"/>
	<path fill="#FFFFFF" d="M202.787,468.257c-6.018,10.702-50.209,5.299-62.776-5.302C154.18,454.615,198.652,456.697,202.787,468.257
		z"/>
	<path fill="#FFFFFF" d="M182.596,440.076c10.138-6.922,0.905-50.475-10.751-62.075C164.772,392.847,170.72,436.965,182.596,440.076
		z"/>
	<path fill="#FFFFFF" d="M170.494,448.568c-7.605,9.639-50.42-2.555-61.192-14.979C124.589,427.551,168.202,436.503,170.494,448.568
		z"/>
	<path fill="#FFFFFF" d="M156.066,415.726c11.197-5.044,9.732-49.538,0.288-62.999C146.789,366.103,144.92,410.579,156.066,415.726z
		"/>
	<path fill="#FFFFFF" d="M142.432,422.99c-9.178,8.163-49.194-11.344-57.623-25.459C100.917,394.261,142.284,410.716,142.432,422.99
		z"/>
	<path fill="#FFFFFF" d="M134.059,386.928c12.017-2.517,20.147-46.288,13.815-61.462
		C135.661,336.475,124.279,379.508,134.059,386.928z"/>
	<path fill="#FFFFFF" d="M121.278,390.538c-9.975,7.163-47.748-16.396-54.662-31.313
		C82.979,357.647,122.407,378.312,121.278,390.538z"/>
	<path fill="#FFFFFF" d="M116.438,353.214c12.271,0.443,30.68-40.094,28.18-56.342C130.116,304.622,108.725,343.659,116.438,353.214
		z"/>
	<path fill="#FFFFFF" d="M103.708,356.865c-11.26,4.896-43.213-26.102-46.824-42.142
		C73.209,316.631,107.396,345.155,103.708,356.865z"/>
	<path fill="#FFFFFF" d="M105.255,321.571c12.106,2.045,35.671-35.727,35.328-52.163C125.184,275.19,98.861,311.09,105.255,321.571z
		"/>
	<path fill="#FFFFFF" d="M93.456,322.568c-12.143,1.809-34.966-36.414-34.301-52.842C74.432,275.803,100.049,312.212,93.456,322.568
		z"/>
	<path fill="#FFFFFF" d="M102.796,283.493c11.563,4.135,41.378-28.926,43.915-45.17C130.544,241.321,98.344,272.052,102.796,283.493
		z"/>
	<path fill="#FFFFFF" d="M86.375,285.088c-12.198-1.421-24.263-44.269-19.334-59.956C80.202,234.982,95.442,276.811,86.375,285.088z
		"/>
	<path fill="#FFFFFF" d="M104.181,251.3c11.013,5.434,44.421-24.001,48.795-39.851C136.573,212.58,101.064,239.427,104.181,251.3z"
		/>
	<path fill="#FFFFFF" d="M91.326,246.708c-12.206-1.341-24.559-44.111-19.733-59.827C84.82,196.642,100.337,238.367,91.326,246.708z
		"/>
	<path fill="#FFFFFF" d="M110.582,219.195c11.072,5.309,44.155-24.481,48.364-40.375
		C142.554,180.128,107.337,207.352,110.582,219.195z"/>
	<path fill="#FFFFFF" d="M98.137,215.315c-11.707-3.714-15.384-48.079-7.561-62.541C101.626,164.951,108.611,208.917,98.137,215.315
		z"/>
	<path fill="#FFFFFF" d="M122.164,183.617c9.928,7.229,47.854-16.093,54.861-30.968
		C160.667,150.969,121.112,171.386,122.164,183.617z"/>
	<path fill="#FFFFFF" d="M110.642,180.541c-10.977-5.505-7.642-49.903,2.352-62.954C121.99,131.347,121.99,175.868,110.642,180.541z
		"/>
	<path fill="#FFFFFF" d="M141.753,146.72c7.542,9.691,50.438-2.23,61.292-14.583C187.787,125.997,144.127,134.673,141.753,146.72z"
		/>
	<path fill="#FFFFFF" d="M128.938,144.091c-9.791-7.41,1.539-50.46,13.741-61.481C149.029,97.777,140.948,141.552,128.938,144.091z"
		/>
	<path fill="#FFFFFF" d="M168.618,120.179c7.267,9.901,50.483-0.805,61.677-12.848C215.222,100.763,171.332,108.206,168.618,120.179
		z"/>
	<path fill="#FFFFFF" d="M185.586,98.223c9.588,7.676,48.545-13.87,56.235-28.409C225.555,67.385,185.103,85.959,185.586,98.223z"/>
	<path fill="#FFFFFF" d="M156.377,113.268c-9.481-7.805,3.618-50.354,16.259-60.864C178.358,67.817,168.482,111.226,156.377,113.268
		z"/>
</g>
<g>
	<path fill="#FFFFFF" d="M378.158,190.107c3.205,3.468,5.483,7.284,6.831,11.447c1.339,4.161,2.012,8.237,2.012,12.226
		c0,4.335-0.909,9.168-2.729,14.503c-1.824,5.331-4.423,10.079-7.809,14.244c-3.725,4.593-8.668,8.823-14.822,12.68
		c-6.158,3.859-13.705,6.958-22.635,9.301l-0.779,2.079c4.156,0.348,8.558,1.281,13.202,2.798c4.637,1.518,8.779,3.578,12.419,6.179
		c3.814,2.776,6.941,6.35,9.37,10.73c2.422,4.378,3.637,9.606,3.637,15.673c0,9.886-2.278,18.969-6.826,27.25
		c-4.556,8.277-10.516,15.233-17.883,20.874c-7.721,5.896-16.459,10.452-26.213,13.656c-9.755,3.208-20.184,4.818-31.281,4.818
		c-13.959,0-25.495-3.101-34.597-9.304c-9.104-6.202-13.66-13.852-13.66-22.956c0-5.638,1.607-10.626,4.812-14.96
		c3.21-4.334,7.502-6.506,12.881-6.506c4.765,0,8.278,1.153,10.531,3.449c2.254,2.301,3.386,4.881,3.386,7.738
		c0,3.729-0.999,7.568-2.994,11.512c-1.994,3.95-3.599,7.221-4.812,9.82c0.432,0.605,1.301,1.562,2.601,2.864
		c1.301,1.3,3.124,2.555,5.462,3.773c2.344,1.211,5.272,2.274,8.781,3.186c3.513,0.909,7.567,1.363,12.159,1.363
		c5.727,0,11.643-1.322,17.76-3.97c6.114-2.643,11.468-6.35,16.06-11.116c4.858-5.116,8.761-11.212,11.711-18.274
		c2.942-7.066,4.423-15.544,4.423-25.43c0-7.978-2.625-14.068-7.874-18.275c-5.246-4.203-12.94-6.308-23.086-6.308h-17.427
		l3.379-14.441h11.578c13.354,0,23.935-4.7,31.735-14.11c7.809-9.409,11.707-21.094,11.707-35.055c0-7.888-1.997-13.895-5.98-18.015
		c-3.992-4.116-9.936-6.178-17.825-6.178c-6.069,0-11.569,1.15-16.517,3.446c-4.94,2.3-8.715,4.877-11.316,7.74
		c0,0.952,0.043,2.453,0.133,4.487c0.082,2.036,0.127,4.226,0.127,6.569c0,8.322-1.735,14.436-5.201,18.34
		c-3.471,3.899-8.673,5.854-15.609,5.854c-4.251,0-7.22-1.106-8.909-3.317c-1.692-2.211-2.536-4.966-2.536-8.261
		c0-5.026,1.473-10.014,4.421-14.959c2.948-4.94,7.455-9.798,13.528-14.566c5.372-4.246,12.311-7.869,20.813-10.86
		c8.495-2.994,17.603-4.489,27.312-4.489c8.842,0,16.272,1.194,22.307,3.578C369.94,183.321,374.688,186.378,378.158,190.107z"/>
</g>
</svg>
