<?xml version="1.0" encoding="utf-8"?>
<!-- Generator: Adobe Illustrator 16.0.4, SVG Export Plug-In . SVG Version: 6.00 Build 0)  -->
<!DOCTYPE svg PUBLIC "-//W3C//DTD SVG 1.1//EN" "http://www.w3.org/Graphics/SVG/1.1/DTD/svg11.dtd">
<svg version="1.1" xmlns="http://www.w3.org/2000/svg" xmlns:xlink="http://www.w3.org/1999/xlink" x="0px" y="0px" width="620px"
	 height="620px" viewBox="0 0 620 620" enable-background="new 0 0 620 620" xml:space="preserve">
<g id="Layer_1">
	<g>
		<g>
			<path fill="#FFFFFF" d="M430.762,95.388c-0.009,0.012,2.045,1.296,5.754,3.921c3.707,2.625,9.061,6.612,15.443,12.213
				c6.369,5.601,13.753,12.844,21.344,21.93c7.586,9.079,15.376,20.007,22.513,32.729c7.14,12.714,13.631,27.224,18.685,43.184
				c5.062,15.953,8.676,33.36,10.164,51.594c1.491,18.231,0.833,37.299-2.5,56.272c-3.309,18.969-9.326,37.831-18.067,55.407
				c-8.713,17.588-20.15,33.84-33.497,47.88c-13.334,14.063-28.524,25.899-44.332,35.458c-15.82,9.58-32.229,16.919-48.245,22.52
				c-8.016,2.843-15.96,5.069-23.51,7.384c-7.568,2.311-14.842,4.615-21.679,7.145c-6.834,2.524-13.232,5.286-19.024,8.417
				c-5.797,3.116-10.983,6.59-15.514,10.301c-9.075,7.413-15.506,15.595-20.287,22.701c-4.77,7.136-7.957,13.243-10.124,17.532
				c-2.148,4.302-3.263,6.819-3.433,7.166c-2.584,5.582-5.737,9.698-7.329,9.057c-1.573-0.639-0.945-5.907,1.713-11.655
				c0.173-0.354,1.34-2.928,3.599-7.34c2.278-4.396,5.619-10.674,10.677-18.082c5.054-7.37,11.932-15.956,21.653-23.743
				c4.847-3.891,10.385-7.521,16.491-10.731c6.11-3.216,12.767-6.011,19.789-8.524c7.022-2.521,14.409-4.777,22.036-7.022
				c7.643-2.264,15.507-4.383,23.393-7.093c15.802-5.354,31.997-12.408,47.617-21.656c15.612-9.234,30.632-20.692,43.856-34.372
				c13.238-13.651,24.639-29.502,33.385-46.729c8.776-17.214,14.893-35.751,18.354-54.466c3.478-18.713,4.323-37.583,3.022-55.673
				c-1.292-18.098-4.706-35.417-9.577-51.321c-4.868-15.908-11.178-30.41-18.159-43.137c-6.985-12.74-14.636-23.708-22.115-32.835
				c-7.472-9.138-14.771-16.439-21.076-22.1c-6.317-5.656-11.629-9.691-15.303-12.357C432.791,96.706,430.753,95.399,430.762,95.388
				z"/>
		</g>
		<g>
			<path fill="#FFFFFF" d="M190.264,95.388c0.007,0.012-2.027,1.318-5.715,3.973c-3.674,2.666-8.986,6.701-15.303,12.357
				c-6.306,5.66-13.604,12.962-21.081,22.1c-7.476,9.126-15.129,20.095-22.11,32.835c-6.981,12.727-13.294,27.229-18.161,43.137
				c-4.87,15.904-8.285,33.223-9.577,51.321c-1.299,18.09-0.458,36.959,3.021,55.673c3.459,18.715,9.58,37.252,18.356,54.466
				c8.746,17.227,20.147,33.077,33.386,46.729c13.224,13.68,28.239,25.138,43.856,34.372c15.617,9.248,31.816,16.303,47.618,21.656
				c7.886,2.71,15.75,4.829,23.392,7.093c7.627,2.245,15.012,4.501,22.033,7.022c7.022,2.514,13.682,5.309,19.792,8.524
				c6.106,3.211,11.645,6.841,16.491,10.731c9.717,7.787,16.596,16.373,21.652,23.743c5.055,7.408,8.399,13.686,10.678,18.082
				c2.26,4.412,3.422,6.985,3.597,7.34c2.661,5.748,3.288,11.017,1.712,11.655c-1.587,0.642-4.744-3.475-7.328-9.057
				c-0.166-0.347-1.281-2.864-3.434-7.166c-2.167-4.289-5.353-10.396-10.123-17.532c-4.777-7.106-11.208-15.288-20.287-22.701
				c-4.525-3.711-9.717-7.185-15.51-10.301c-5.796-3.131-12.19-5.893-19.024-8.417c-6.841-2.529-14.114-4.834-21.682-7.145
				c-7.546-2.314-15.495-4.541-23.506-7.384c-16.015-5.601-32.426-12.939-48.245-22.52c-15.813-9.559-30.997-21.395-44.332-35.458
				c-13.347-14.04-24.784-30.292-33.5-47.88c-8.739-17.576-14.756-36.438-18.068-55.407c-3.33-18.973-3.987-38.041-2.496-56.272
				c1.484-18.234,5.099-35.641,10.161-51.594c5.054-15.96,11.548-30.469,18.684-43.184c7.14-12.722,14.926-23.65,22.517-32.729
				c7.587-9.085,14.971-16.329,21.343-21.93c6.38-5.601,11.737-9.588,15.44-12.213C188.222,96.684,190.271,95.399,190.264,95.388z"
				/>
		</g>
		<path fill="#FFFFFF" d="M339.958,479.69c-6.622-10.345,18.91-46.81,34.177-52.931C374.841,443.189,352.108,481.467,339.958,479.69
			z"/>
		<path fill="#FFFFFF" d="M346.889,494.827c3.227,11.852,47.399,17.378,62.175,10.159
			C397.353,493.446,353.715,484.626,346.889,494.827z"/>
		<path fill="#FFFFFF" d="M374.087,468.778c-7.138-9.994,16.524-47.703,31.458-54.586
			C407.081,430.567,386.307,469.94,374.087,468.778z"/>
		<path fill="#FFFFFF" d="M381.773,481.928c3.817,11.67,48.215,14.96,62.606,7.008C432.104,478,388.075,471.395,381.773,481.928z"/>
		<path fill="#FFFFFF" d="M408.798,457.514c-8.946-8.414,6.933-50.011,20.246-59.661
			C433.732,413.617,421.011,456.277,408.798,457.514z"/>
		<path fill="#FFFFFF" d="M417.521,468.257c6.018,10.702,50.206,5.299,62.773-5.302
			C466.129,454.615,421.656,456.697,417.521,468.257z"/>
		<path fill="#FFFFFF" d="M437.712,440.076c-10.138-6.922-0.903-50.475,10.751-62.075
			C455.537,392.847,449.589,436.965,437.712,440.076z"/>
		<path fill="#FFFFFF" d="M449.815,448.568c7.604,9.639,50.423-2.555,61.192-14.979C495.72,427.551,452.11,436.503,449.815,448.568z
			"/>
		<path fill="#FFFFFF" d="M464.243,415.726c-11.198-5.044-9.732-49.538-0.289-62.999
			C473.516,366.103,475.388,410.579,464.243,415.726z"/>
		<path fill="#FFFFFF" d="M477.877,422.99c9.174,8.163,49.194-11.344,57.622-25.459C519.389,394.261,478.021,410.716,477.877,422.99
			z"/>
		<path fill="#FFFFFF" d="M486.25,386.928c-12.018-2.517-20.147-46.288-13.815-61.462
			C484.65,336.475,496.029,379.508,486.25,386.928z"/>
		<path fill="#FFFFFF" d="M499.031,390.538c9.975,7.163,47.746-16.396,54.662-31.313C537.33,357.647,497.9,378.312,499.031,390.538z
			"/>
		<path fill="#FFFFFF" d="M503.875,353.214c-12.272,0.443-30.684-40.094-28.184-56.342
			C490.196,304.622,511.586,343.659,503.875,353.214z"/>
		<path fill="#FFFFFF" d="M516.604,356.865c11.256,4.896,43.206-26.102,46.82-42.142
			C547.095,316.631,512.912,345.155,516.604,356.865z"/>
		<path fill="#FFFFFF" d="M515.058,321.571c-12.109,2.045-35.675-35.727-35.332-52.163
			C495.125,275.19,521.448,311.09,515.058,321.571z"/>
		<path fill="#FFFFFF" d="M526.853,322.568c12.143,1.809,34.966-36.414,34.302-52.842
			C545.877,275.803,520.26,312.212,526.853,322.568z"/>
		<path fill="#FFFFFF" d="M517.508,283.493c-11.562,4.135-41.377-28.926-43.909-45.17
			C489.765,241.321,521.965,272.052,517.508,283.493z"/>
		<path fill="#FFFFFF" d="M533.935,285.088c12.193-1.421,24.262-44.269,19.334-59.956
			C540.11,234.982,524.866,276.811,533.935,285.088z"/>
		<path fill="#FFFFFF" d="M516.128,251.3c-11.014,5.434-44.417-24.001-48.796-39.851C483.736,212.58,519.244,239.427,516.128,251.3z
			"/>
		<path fill="#FFFFFF" d="M528.983,246.708c12.205-1.341,24.554-44.111,19.732-59.827
			C535.488,196.642,519.975,238.367,528.983,246.708z"/>
		<path fill="#FFFFFF" d="M509.727,219.195c-11.073,5.309-44.155-24.481-48.363-40.375
			C477.755,180.128,512.972,207.352,509.727,219.195z"/>
		<path fill="#FFFFFF" d="M522.176,215.315c11.699-3.714,15.384-48.079,7.557-62.541
			C518.687,164.951,511.697,208.917,522.176,215.315z"/>
		<path fill="#FFFFFF" d="M498.145,183.617c-9.927,7.229-47.851-16.093-54.861-30.968
			C459.642,150.969,499.197,171.386,498.145,183.617z"/>
		<path fill="#FFFFFF" d="M509.667,180.541c10.976-5.505,7.646-49.903-2.352-62.954
			C498.318,131.347,498.318,175.868,509.667,180.541z"/>
		<path fill="#FFFFFF" d="M478.557,146.72c-7.547,9.691-50.439-2.23-61.29-14.583C432.519,125.997,476.182,134.673,478.557,146.72z"
			/>
		<path fill="#FFFFFF" d="M491.37,144.091c9.795-7.41-1.539-50.46-13.741-61.481C471.282,97.777,479.361,141.552,491.37,144.091z"/>
		<path fill="#FFFFFF" d="M451.689,120.179c-7.269,9.901-50.482-0.805-61.68-12.848
			C405.087,100.763,448.976,108.206,451.689,120.179z"/>
		<path fill="#FFFFFF" d="M434.723,98.223c-9.585,7.676-48.546-13.87-56.235-28.409C394.75,67.385,435.21,85.959,434.723,98.223z"/>
		<path fill="#FFFFFF" d="M463.932,113.268c9.478-7.805-3.614-50.354-16.258-60.864C441.951,67.817,451.826,111.226,463.932,113.268
			z"/>
		<path fill="#FFFFFF" d="M280.35,479.69c6.624-10.345-18.914-46.81-34.175-52.931C245.469,443.189,268.203,481.467,280.35,479.69z"
			/>
		<path fill="#FFFFFF" d="M273.42,494.827c-3.226,11.852-47.4,17.378-62.175,10.159C222.956,493.446,266.593,484.626,273.42,494.827
			z"/>
		<path fill="#FFFFFF" d="M246.222,468.778c7.136-9.994-16.524-47.703-31.462-54.586
			C213.228,430.567,233.999,469.94,246.222,468.778z"/>
		<path fill="#FFFFFF" d="M238.536,481.928c-3.817,11.67-48.216,14.96-62.607,7.008C188.208,478,232.234,471.395,238.536,481.928z"
			/>
		<path fill="#FFFFFF" d="M211.515,457.514c8.942-8.414-6.938-50.011-20.246-59.661C186.58,413.617,199.298,456.277,211.515,457.514
			z"/>
		<path fill="#FFFFFF" d="M202.787,468.257c-6.018,10.702-50.209,5.299-62.776-5.302
			C154.18,454.615,198.652,456.697,202.787,468.257z"/>
		<path fill="#FFFFFF" d="M182.596,440.076c10.138-6.922,0.905-50.475-10.751-62.075
			C164.772,392.847,170.72,436.965,182.596,440.076z"/>
		<path fill="#FFFFFF" d="M170.494,448.568c-7.605,9.639-50.42-2.555-61.192-14.979
			C124.589,427.551,168.202,436.503,170.494,448.568z"/>
		<path fill="#FFFFFF" d="M156.066,415.726c11.197-5.044,9.732-49.538,0.288-62.999C146.789,366.103,144.92,410.579,156.066,415.726
			z"/>
		<path fill="#FFFFFF" d="M142.432,422.99c-9.178,8.163-49.194-11.344-57.623-25.459
			C100.917,394.261,142.284,410.716,142.432,422.99z"/>
		<path fill="#FFFFFF" d="M134.059,386.928c12.017-2.517,20.147-46.288,13.815-61.462
			C135.661,336.475,124.279,379.508,134.059,386.928z"/>
		<path fill="#FFFFFF" d="M121.278,390.538c-9.975,7.163-47.748-16.396-54.662-31.313
			C82.979,357.647,122.407,378.312,121.278,390.538z"/>
		<path fill="#FFFFFF" d="M116.438,353.214c12.271,0.443,30.68-40.094,28.18-56.342
			C130.116,304.622,108.725,343.659,116.438,353.214z"/>
		<path fill="#FFFFFF" d="M103.708,356.865c-11.26,4.896-43.213-26.102-46.824-42.142
			C73.209,316.631,107.396,345.155,103.708,356.865z"/>
		<path fill="#FFFFFF" d="M105.255,321.571c12.106,2.045,35.671-35.727,35.328-52.163C125.184,275.19,98.861,311.09,105.255,321.571
			z"/>
		<path fill="#FFFFFF" d="M93.456,322.568c-12.143,1.809-34.966-36.414-34.301-52.842
			C74.432,275.803,100.049,312.212,93.456,322.568z"/>
		<path fill="#FFFFFF" d="M102.796,283.493c11.563,4.135,41.378-28.926,43.915-45.17
			C130.544,241.321,98.344,272.052,102.796,283.493z"/>
		<path fill="#FFFFFF" d="M86.375,285.088c-12.198-1.421-24.263-44.269-19.334-59.956C80.202,234.982,95.442,276.811,86.375,285.088
			z"/>
		<path fill="#FFFFFF" d="M104.181,251.3c11.013,5.434,44.421-24.001,48.795-39.851C136.573,212.58,101.064,239.427,104.181,251.3z"
			/>
		<path fill="#FFFFFF" d="M91.326,246.708c-12.206-1.341-24.559-44.111-19.733-59.827C84.82,196.642,100.337,238.367,91.326,246.708
			z"/>
		<path fill="#FFFFFF" d="M110.582,219.195c11.072,5.309,44.155-24.481,48.364-40.375
			C142.554,180.128,107.337,207.352,110.582,219.195z"/>
		<path fill="#FFFFFF" d="M98.137,215.315c-11.707-3.714-15.384-48.079-7.561-62.541
			C101.626,164.951,108.611,208.917,98.137,215.315z"/>
		<path fill="#FFFFFF" d="M122.164,183.617c9.928,7.229,47.854-16.093,54.861-30.968
			C160.667,150.969,121.112,171.386,122.164,183.617z"/>
		<path fill="#FFFFFF" d="M110.642,180.541c-10.977-5.505-7.642-49.903,2.352-62.954C121.99,131.347,121.99,175.868,110.642,180.541
			z"/>
		<path fill="#FFFFFF" d="M141.753,146.72c7.542,9.691,50.438-2.23,61.292-14.583C187.787,125.997,144.127,134.673,141.753,146.72z"
			/>
		<path fill="#FFFFFF" d="M128.938,144.091c-9.791-7.41,1.539-50.46,13.741-61.481C149.029,97.777,140.948,141.552,128.938,144.091z
			"/>
		<path fill="#FFFFFF" d="M168.618,120.179c7.267,9.901,50.483-0.805,61.677-12.848
			C215.222,100.763,171.332,108.206,168.618,120.179z"/>
		<path fill="#FFFFFF" d="M185.586,98.223c9.588,7.676,48.545-13.87,56.235-28.409C225.555,67.385,185.103,85.959,185.586,98.223z"
			/>
		<path fill="#FFFFFF" d="M156.377,113.268c-9.481-7.805,3.618-50.354,16.259-60.864
			C178.358,67.817,168.482,111.226,156.377,113.268z"/>
	</g>
</g>
<g id="Layer_2">
	<g>
		<path fill="#FFFFFF" d="M322.007,229.964c0,9.824-2.411,18.106-7.233,24.848c-4.822,6.744-11.386,12.48-19.691,17.213
			c-6.251,3.573-13.508,6.721-21.767,9.444c-8.261,2.725-17.347,5.559-27.259,8.506c-8.485,2.501-16.677,5.605-24.58,9.31
			c-7.903,3.707-14.4,8.194-19.49,13.462h106.759l-5.491,23.308H177.741l4.42-18.218c2.679-3.57,5.894-7.054,9.645-10.448
			c3.75-3.393,8.171-6.698,13.261-9.913c4.464-2.767,9.444-5.492,14.936-8.171c5.492-2.679,11.453-5.268,17.882-7.769
			c8.305-3.215,15.559-6.363,21.767-9.444c6.206-3.081,11.453-6.229,15.739-9.443c6.518-4.822,11.139-10.067,13.864-15.739
			c2.723-5.67,4.085-12.301,4.085-19.892c0-8.84-2.411-15.827-7.233-20.963c-4.822-5.134-11.074-7.702-18.753-7.702
			c-7.413,0-13.709,1.296-18.887,3.885c-5.181,2.591-8.797,5.358-10.851,8.305c0,1.071,0.067,2.591,0.201,4.554
			c0.134,1.965,0.201,4.333,0.201,7.099c0,8.037-1.563,14.044-4.688,18.017c-3.127,3.975-8.127,5.961-15.003,5.961
			c-4.912,0-8.328-1.139-10.247-3.416c-1.921-2.277-2.88-5.067-2.88-8.372c0-5.268,1.628-10.603,4.889-16.007
			c3.259-5.402,7.88-10.425,13.864-15.069c5.804-4.555,12.77-8.238,20.896-11.051c8.125-2.813,16.922-4.219,26.389-4.219
			c15.181,0,27.437,3.75,36.77,11.252C317.339,206.79,322.007,217.017,322.007,229.964z"/>
		<path fill="#FFFFFF" d="M427.054,188.037c-1.886,6.697-3.949,14.355-6.193,22.973c-2.243,8.619-3.77,14.713-4.577,18.284
			l-18.519,80.103c-0.181,0.716-0.314,1.474-0.402,2.278c-0.088,0.804-0.132,1.562-0.132,2.276c0,2.323,0.534,4.266,1.605,5.827
			c1.071,1.563,2.365,2.702,3.885,3.416c1.785,0.894,5.178,1.741,10.181,2.545c5,0.804,9.019,1.296,12.055,1.474l-2.143,8.841
			h-90.225l2.143-8.841c2.768-0.178,7.033-0.557,12.793-1.139c5.76-0.58,9.799-1.183,12.122-1.809
			c2.411-0.714,4.776-2.298,7.1-4.755c2.321-2.455,3.839-5.335,4.555-8.64l22.048-95.374h-33.434l2.413-10.582h7.369
			c9.291,0,18.002-1.584,26.131-4.755c8.13-3.169,14.831-7.21,20.104-12.123H427.054z"/>
	</g>
</g>
</svg>
